Blinker-Black.ufo
<glyph name="exclam" format="1">
  <advance width="277.0"/>
  <unicode hex="0021"/>
  <outline>
    <contour>
      <point x="263.0" y="627.0" type="line"/>
      <point x="14.0" y="627.0" type="line"/>
      <point x="41.0" y="233.0" type="line"/>
      <point x="236.0" y="233.0" type="line"/>
    </contour>
    <contour>
      <point x="250.0" y="0.0" type="line"/>
      <point x="250.0" y="189.0" type="line"/>
      <point x="26.0" y="189.0" type="line"/>
      <point x="26.0" y="0.0" type="line"/>
    </contour>
  </outline>
</glyph>
<glyph name="quotedbl" format="2">
  <advance width="339"/>
  <unicode hex="0022"/>
  <outline>
    <contour>
      <point x="148.0" y="627.0" type="line"/>
      <point x="17.0" y="627.0" type="line"/>
      <point x="17.0" y="399.0" type="line"/>
      <point x="148.0" y="399.0" type="line"/>
    </contour>
    <contour>
      <point x="322.0" y="627.0" type="line"/>
      <point x="190.0" y="627.0" type="line"/>
      <point x="190.0" y="399.0" type="line"/>
      <point x="322.0" y="399.0" type="line"/>
    </contour>
  </outline>
</glyph>
<glyph name="numbersign" format="1">
  <advance width="544.0"/>
  <unicode hex="0023"/>
  <outline>
    <contour>
      <point x="532.0" y="353.0" type="line"/>
      <point x="532.0" y="493.0" type="line"/>
      <point x="478.0" y="493.0" type="line"/>
      <point x="500.0" y="627.0" type="line"/>
      <point x="355.0" y="627.0" type="line"/>
      <point x="331.0" y="493.0" type="line"/>
      <point x="274.0" y="493.0" type="line"/>
      <point x="296.0" y="627.0" type="line"/>
      <point x="151.0" y="627.0" type="line"/>
      <point x="128.0" y="493.0" type="line"/>
      <point x="48.0" y="493.0" type="line"/>
      <point x="48.0" y="353.0" type="line"/>
      <point x="103.0" y="353.0" type="line"/>
      <point x="93.0" y="284.0" type="line"/>
      <point x="13.0" y="284.0" type="line"/>
      <point x="13.0" y="144.0" type="line"/>
      <point x="71.0" y="144.0" type="line"/>
      <point x="47.0" y="0.0" type="line"/>
      <point x="193.0" y="0.0" type="line"/>
      <point x="216.0" y="144.0" type="line"/>
      <point x="275.0" y="144.0" type="line"/>
      <point x="252.0" y="0.0" type="line"/>
      <point x="397.0" y="0.0" type="line"/>
      <point x="421.0" y="144.0" type="line"/>
      <point x="497.0" y="144.0" type="line"/>
      <point x="497.0" y="284.0" type="line"/>
      <point x="444.0" y="284.0" type="line"/>
      <point x="452.0" y="353.0" type="line"/>
    </contour>
    <contour>
      <point x="307.0" y="353.0" type="line"/>
      <point x="297.0" y="284.0" type="line"/>
      <point x="238.0" y="284.0" type="line"/>
      <point x="249.0" y="353.0" type="line"/>
    </contour>
  </outline>
</glyph>
<glyph name="dollar" format="2">
  <advance width="490"/>
  <unicode hex="0024"/>
  <outline>
    <contour>
      <point x="296.0" y="553.0" type="line"/>
      <point x="296.0" y="714.0" type="line"/>
      <point x="186.0" y="714.0" type="line"/>
      <point x="186.0" y="553.0" type="line"/>
    </contour>
    <contour>
      <point x="296.0" y="-87.0" type="line"/>
      <point x="296.0" y="89.0" type="line"/>
      <point x="186.0" y="89.0" type="line"/>
      <point x="186.0" y="-87.0" type="line"/>
    </contour>
    <contour>
      <point x="165.0" y="239.0" type="curve" smooth="yes"/>
      <point x="250.0" y="219.0" type="line" smooth="yes"/>
      <point x="268.0" y="215.0"/>
      <point x="270.0" y="214.0"/>
      <point x="270.0" y="208.0" type="curve" smooth="yes"/>
      <point x="270.0" y="198.0"/>
      <point x="255.0" y="196.0"/>
      <point x="227.0" y="196.0" type="curve" smooth="yes"/>
      <point x="146.0" y="196.0"/>
      <point x="65.0" y="209.0"/>
      <point x="22.0" y="223.0" type="curve"/>
      <point x="22.0" y="13.0" type="line"/>
      <point x="55.0" y="1.0"/>
      <point x="144.0" y="-10.0"/>
      <point x="226.0" y="-10.0" type="curve" smooth="yes"/>
      <point x="448.0" y="-10.0"/>
      <point x="478.0" y="110.0"/>
      <point x="478.0" y="211.0" type="curve"/>
      <point x="478.0" y="344.0"/>
      <point x="429.27376451748745" y="368.82269354802963"/>
      <point x="326.0" y="396.0" type="curve" smooth="yes"/>
      <point x="250.0" y="416.0" type="line" smooth="yes"/>
      <point x="234.0" y="420.0"/>
      <point x="231.0" y="422.0"/>
      <point x="231.0" y="426.0" type="curve" smooth="yes"/>
      <point x="231.0" y="433.0"/>
      <point x="236.0" y="436.0"/>
      <point x="267.0" y="436.0" type="curve" smooth="yes"/>
      <point x="346.5121951219512" y="436.0"/>
      <point x="398.18847553488115" y="425.9646608372098"/>
      <point x="430.0" y="420.0" type="curve"/>
      <point x="430.0" y="619.0" type="line"/>
      <point x="396.1777606724807" y="628.9477174492704"/>
      <point x="336.5340909090909" y="637.0"/>
      <point x="255.0" y="637.0" type="curve" smooth="yes"/>
      <point x="96.0" y="637.0"/>
      <point x="18.0" y="577.0"/>
      <point x="18.0" y="421.0" type="curve"/>
      <point x="18.0" y="294.0"/>
      <point x="86.0" y="258.0"/>
    </contour>
  </outline>
</glyph>
<glyph name="percent" format="2">
  <advance width="708"/>
  <unicode hex="0025"/>
  <outline>
    <contour>
      <point x="158.0" y="530.0" type="curve"/>
      <point x="173.0" y="530.0"/>
      <point x="180.0" y="521.0"/>
      <point x="180.0" y="478.0" type="curve"/>
      <point x="180.0" y="443.0"/>
      <point x="173.0" y="432.0"/>
      <point x="158.0" y="432.0" type="curve"/>
      <point x="143.0" y="432.0"/>
      <point x="136.0" y="443.0"/>
      <point x="136.0" y="478.0" type="curve"/>
      <point x="136.0" y="521.0"/>
      <point x="143.0" y="530.0"/>
    </contour>
    <contour>
      <point x="158.0" y="320.0" type="curve"/>
      <point x="262.0" y="320.0"/>
      <point x="304.0" y="367.0"/>
      <point x="304.0" y="478.0" type="curve"/>
      <point x="304.0" y="588.0"/>
      <point x="262.0" y="636.0"/>
      <point x="158.0" y="636.0" type="curve"/>
      <point x="54.0" y="636.0"/>
      <point x="10.0" y="588.0"/>
      <point x="10.0" y="478.0" type="curve"/>
      <point x="10.0" y="367.0"/>
      <point x="54.0" y="320.0"/>
    </contour>
    <contour>
      <point x="552.0" y="202.0" type="curve"/>
      <point x="567.0" y="202.0"/>
      <point x="574.0" y="193.0"/>
      <point x="574.0" y="150.0" type="curve"/>
      <point x="574.0" y="115.0"/>
      <point x="567.0" y="104.0"/>
      <point x="552.0" y="104.0" type="curve"/>
      <point x="537.0" y="104.0"/>
      <point x="530.0" y="115.0"/>
      <point x="530.0" y="150.0" type="curve"/>
      <point x="530.0" y="193.0"/>
      <point x="537.0" y="202.0"/>
    </contour>
    <contour>
      <point x="552.0" y="-8.0" type="curve"/>
      <point x="656.0" y="-8.0"/>
      <point x="698.0" y="39.0"/>
      <point x="698.0" y="150.0" type="curve"/>
      <point x="698.0" y="260.0"/>
      <point x="656.0" y="308.0"/>
      <point x="552.0" y="308.0" type="curve"/>
      <point x="448.0" y="308.0"/>
      <point x="404.0" y="260.0"/>
      <point x="404.0" y="150.0" type="curve"/>
      <point x="404.0" y="39.0"/>
      <point x="448.0" y="-8.0"/>
    </contour>
    <component base="fraction" xOffset="244"/>
  </outline>
</glyph>
<glyph name="ampersand" format="1">
  <advance width="654.0"/>
  <unicode hex="0026"/>
  <outline>
    <contour>
      <point x="368.0" y="194.0" type="line"/>
      <point x="362.0" y="192.0"/>
      <point x="348.0" y="188.0"/>
      <point x="324.0" y="188.0" type="curve"/>
      <point x="261.0" y="188.0"/>
      <point x="239.0" y="215.0"/>
      <point x="239.0" y="344.0" type="curve"/>
      <point x="239.0" y="416.0"/>
      <point x="242.0" y="448.0"/>
      <point x="286.0" y="448.0" type="curve"/>
      <point x="311.0" y="448.0"/>
      <point x="318.0" y="437.0"/>
      <point x="318.0" y="423.0" type="curve"/>
      <point x="318.0" y="398.0"/>
      <point x="294.0" y="376.0"/>
      <point x="160.0" y="376.0" type="curve"/>
      <point x="160.0" y="245.0" type="line"/>
      <point x="336.0" y="231.0"/>
      <point x="522.0" y="294.0"/>
      <point x="522.0" y="446.0" type="curve"/>
      <point x="522.0" y="561.0"/>
      <point x="450.0" y="637.0"/>
      <point x="298.0" y="637.0" type="curve" smooth="yes"/>
      <point x="111.0" y="637.0"/>
      <point x="13.0" y="522.0"/>
      <point x="13.0" y="323.0" type="curve"/>
      <point x="13.0" y="77.0"/>
      <point x="123.0" y="-12.0"/>
      <point x="322.0" y="-12.0" type="curve"/>
      <point x="432.0" y="-12.0"/>
      <point x="546.0" y="26.0"/>
      <point x="575.0" y="61.0" type="curve"/>
      <point x="575.0" y="218.0" type="line"/>
      <point x="649.0" y="218.0" type="line"/>
      <point x="649.0" y="395.0" type="line"/>
      <point x="368.0" y="395.0" type="line"/>
    </contour>
  </outline>
</glyph>
<glyph name="quotesingle" format="2">
  <advance width="180"/>
  <unicode hex="0027"/>
  <outline>
    <contour>
      <point x="163.0" y="627.0" type="line"/>
      <point x="17.0" y="627.0" type="line"/>
      <point x="17.0" y="399.0" type="line"/>
      <point x="163.0" y="399.0" type="line"/>
    </contour>
  </outline>
</glyph>
<glyph name="parenleft" format="2">
  <advance width="212"/>
  <unicode hex="0028"/>
  <outline>
    <contour>
      <point x="147.0" y="313.0" type="curve"/>
      <point x="147.0" y="416.0"/>
      <point x="157.0" y="577.0"/>
      <point x="204.0" y="675.0" type="curve"/>
      <point x="105.0" y="707.0" type="line"/>
      <point x="38.0" y="594.0"/>
      <point x="13.0" y="450.0"/>
      <point x="13.0" y="313.0" type="curve"/>
      <point x="13.0" y="171.0"/>
      <point x="41.0" y="33.0"/>
      <point x="105.0" y="-80.0" type="curve"/>
      <point x="207.0" y="-48.0" type="line"/>
      <point x="160.0" y="50.0"/>
      <point x="147.0" y="210.0"/>
    </contour>
  </outline>
</glyph>
<glyph name="asterisk" format="2">
  <advance width="362"/>
  <unicode hex="002A"/>
  <outline>
    <contour>
      <point x="162.0" y="421.0" type="line"/>
      <point x="199.0" y="506.0" type="line"/>
      <point x="46.0" y="574.0" type="line"/>
      <point x="8.0" y="461.0" type="line"/>
    </contour>
    <contour>
      <point x="217.0" y="433.0" type="line"/>
      <point x="149.0" y="499.0" type="line"/>
      <point x="37.0" y="372.0" type="line"/>
      <point x="132.0" y="300.0" type="line"/>
    </contour>
    <contour>
      <point x="215.0" y="500.0" type="line"/>
      <point x="145.0" y="436.0" type="line"/>
      <point x="227.0" y="301.0" type="line"/>
      <point x="324.0" y="370.0" type="line"/>
    </contour>
    <contour>
      <point x="162.0" y="510.0" type="line"/>
      <point x="195.0" y="423.0" type="line"/>
      <point x="352.0" y="460.0" type="line"/>
      <point x="315.0" y="573.0" type="line"/>
    </contour>
    <contour>
      <point x="134.0" y="464.0" type="line"/>
      <point x="225.0" y="464.0" type="line"/>
      <point x="238.0" y="627.0" type="line"/>
      <point x="119.0" y="627.0" type="line"/>
    </contour>
  </outline>
</glyph>
<glyph name="plus" format="1">
  <advance width="500.0"/>
  <unicode hex="002B"/>
  <outline>
    <contour>
      <point x="463.0" y="238.0" type="line"/>
      <point x="463.0" y="406.0" type="line"/>
      <point x="37.0" y="406.0" type="line"/>
      <point x="37.0" y="238.0" type="line"/>
    </contour>
    <contour>
      <point x="337.0" y="532.0" type="line"/>
      <point x="163.0" y="532.0" type="line"/>
      <point x="163.0" y="110.0" type="line"/>
      <point x="337.0" y="110.0" type="line"/>
    </contour>
  </outline>
</glyph>
<glyph name="hyphen" format="2">
  <advance width="355"/>
  <unicode hex="002D"/>
  <outline>
    <contour>
      <point x="337.0" y="237.0" type="line"/>
      <point x="337.0" y="401.0" type="line"/>
      <point x="18.0" y="401.0" type="line"/>
      <point x="18.0" y="237.0" type="line"/>
    </contour>
  </outline>
</glyph>
<glyph name="period" format="2">
  <advance width="244"/>
  <unicode hex="002E"/>
  <outline>
    <contour>
      <point x="17.0" y="0.0" type="line"/>
      <point x="227.0" y="0.0" type="line"/>
      <point x="227.0" y="195.0" type="line"/>
      <point x="17.0" y="195.0" type="line"/>
    </contour>
  </outline>
</glyph>
<glyph name="zero" format="1">
  <advance width="573.0"/>
  <unicode hex="0030"/>
  <outline>
    <contour>
      <point x="287.0" y="432.0" type="curve"/>
      <point x="320.0" y="432.0"/>
      <point x="325.0" y="417.0"/>
      <point x="325.0" y="313.0" type="curve"/>
      <point x="325.0" y="215.0"/>
      <point x="320.0" y="200.0"/>
      <point x="287.0" y="200.0" type="curve"/>
      <point x="253.0" y="200.0"/>
      <point x="248.0" y="215.0"/>
      <point x="248.0" y="313.0" type="curve"/>
      <point x="248.0" y="417.0"/>
      <point x="253.0" y="432.0"/>
    </contour>
    <contour>
      <point x="287.0" y="-12.0" type="curve"/>
      <point x="469.0" y="-12.0"/>
      <point x="555.0" y="49.0"/>
      <point x="555.0" y="313.0" type="curve"/>
      <point x="555.0" y="569.0"/>
      <point x="496.0" y="637.0"/>
      <point x="287.0" y="637.0" type="curve"/>
      <point x="107.0" y="637.0"/>
      <point x="18.0" y="576.0"/>
      <point x="18.0" y="313.0" type="curve"/>
      <point x="18.0" y="56.0"/>
      <point x="78.0" y="-12.0"/>
    </contour>
  </outline>
</glyph>
<glyph name="one" format="2">
  <advance width="376"/>
  <unicode hex="0031"/>
  <guideline x="485.0" y="0.0" angle="90.0" identifier="ZcdcUZgeUZ"/>
  <guideline x="3676.0" y="0.0" angle="90.0" identifier="Bgnli88Grc"/>
  <guideline x="0.0" y="222.0" angle="0.0" identifier="4723DaX9VZ"/>
  <guideline x="1551.0" y="0.0" angle="90.0" identifier="XOc3n7oMJ8"/>
  <guideline x="987.0" y="0.0" angle="90.0" identifier="HlaCk9PH8O"/>
  <guideline x="2175.0" y="0.0" angle="90.0" identifier="mmlp8wjgW5"/>
  <guideline x="0.0" y="-666.0" angle="0.0" identifier="USYxD1iTNV"/>
  <guideline x="0.0" y="1020.0" angle="0.0" identifier="zouN7bN4CU"/>
  <outline>
    <contour>
      <point x="121.0" y="0.0" type="line"/>
      <point x="348.0" y="0.0" type="line"/>
      <point x="348.0" y="637.0" type="line"/>
      <point x="121.0" y="565.0" type="line"/>
    </contour>
    <contour>
      <point x="9.0" y="412.0" type="line"/>
      <point x="125.0" y="424.0" type="line"/>
      <point x="348.0" y="637.0" type="line"/>
      <point x="9.0" y="601.0" type="line"/>
    </contour>
  </outline>
</glyph>
<glyph name="two" format="2">
  <advance width="472"/>
  <unicode hex="0032"/>
  <guideline x="448" y="252" angle="90.0" identifier="cxCvj9GAUr"/>
  <outline>
    <contour>
      <point x="445.0" y="0.0" type="line"/>
      <point x="445.0" y="212.0" type="line"/>
      <point x="277.0" y="212.0" type="line"/>
      <point x="388.0" y="310.0" type="line" smooth="yes"/>
      <point x="431.0" y="348.0"/>
      <point x="454.0" y="391.0"/>
      <point x="454.0" y="471.0" type="curve"/>
      <point x="454.0" y="568.0"/>
      <point x="390.0" y="637.0"/>
      <point x="264.0" y="637.0" type="curve"/>
      <point x="175.0" y="637.0"/>
      <point x="87.0" y="624.0"/>
      <point x="44.0" y="612.0" type="curve"/>
      <point x="44.0" y="415.0" type="line"/>
      <point x="84.60330229254859" y="422.7339623414378"/>
      <point x="153.10344827586206" y="432.0"/>
      <point x="212.0" y="432.0" type="curve"/>
      <point x="231.0" y="432.0"/>
      <point x="236.0" y="423.0"/>
      <point x="236.0" y="414.0" type="curve" smooth="yes"/>
      <point x="236.0" y="401.0"/>
      <point x="230.0" y="392.0"/>
      <point x="217.0" y="381.0" type="curve" smooth="yes"/>
      <point x="17.0" y="212.0" type="line"/>
      <point x="17.0" y="0.0" type="line"/>
    </contour>
  </outline>
</glyph>
<glyph name="three" format="1">
  <advance width="462.0"/>
  <unicode hex="0033"/>
  <outline>
    <contour>
      <point x="337.0" y="331.0" type="line"/>
      <point x="407.0" y="350.0"/>
      <point x="428.0" y="403.0"/>
      <point x="428.0" y="473.0" type="curve" smooth="yes"/>
      <point x="428.0" y="583.0"/>
      <point x="364.0" y="637.0"/>
      <point x="248.0" y="637.0" type="curve"/>
      <point x="168.0" y="637.0"/>
      <point x="71.0" y="625.0"/>
      <point x="28.0" y="611.0" type="curve"/>
      <point x="28.0" y="428.0" type="line"/>
      <point x="67.0" y="435.0"/>
      <point x="139.0" y="442.0"/>
      <point x="178.0" y="442.0" type="curve"/>
      <point x="212.0" y="442.0"/>
      <point x="216.0" y="435.0"/>
      <point x="216.0" y="425.0" type="curve"/>
      <point x="216.0" y="414.0"/>
      <point x="210.0" y="409.0"/>
      <point x="186.0" y="409.0" type="curve" smooth="yes"/>
      <point x="75.0" y="409.0" type="line"/>
      <point x="75.0" y="227.0" type="line"/>
      <point x="211.0" y="227.0" type="line" smooth="yes"/>
      <point x="228.0" y="227.0"/>
      <point x="235.0" y="222.0"/>
      <point x="235.0" y="211.0" type="curve" smooth="yes"/>
      <point x="235.0" y="198.0"/>
      <point x="230.0" y="190.0"/>
      <point x="194.0" y="190.0" type="curve"/>
      <point x="138.0" y="190.0"/>
      <point x="78.0" y="190.0"/>
      <point x="21.0" y="200.0" type="curve"/>
      <point x="21.0" y="10.0" type="line"/>
      <point x="53.0" y="-2.0"/>
      <point x="134.0" y="-12.0"/>
      <point x="215.0" y="-12.0" type="curve"/>
      <point x="343.0" y="-12.0"/>
      <point x="447.0" y="46.0"/>
      <point x="447.0" y="183.0" type="curve"/>
      <point x="447.0" y="268.0"/>
      <point x="415.0" y="322.0"/>
      <point x="337.0" y="329.0" type="curve"/>
    </contour>
  </outline>
</glyph>
<glyph name="four" format="1">
  <advance width="535.0"/>
  <unicode hex="0034"/>
  <outline>
    <contour>
      <point x="524.0" y="117.0" type="line"/>
      <point x="524.0" y="315.0" type="line"/>
      <point x="474.0" y="315.0" type="line"/>
      <point x="474.0" y="517.0" type="line"/>
      <point x="300.0" y="517.0" type="line"/>
      <point x="265.0" y="315.0" type="line"/>
      <point x="239.0" y="315.0" type="line"/>
      <point x="293.0" y="627.0" type="line"/>
      <point x="83.0" y="627.0" type="line"/>
      <point x="17.0" y="315.0" type="line"/>
      <point x="17.0" y="117.0" type="line"/>
      <point x="247.0" y="117.0" type="line"/>
      <point x="247.0" y="0.0" type="line"/>
      <point x="474.0" y="0.0" type="line"/>
      <point x="474.0" y="117.0" type="line"/>
    </contour>
  </outline>
</glyph>
<glyph name="five" format="2">
  <advance width="461"/>
  <unicode hex="0035"/>
  <guideline x="181" y="213" angle="0" name="mid" identifier="2MUdz5Y5Xa"/>
  <outline>
    <contour>
      <point x="216.0" y="-12.0" type="curve"/>
      <point x="344.0" y="-12.0"/>
      <point x="446.0" y="46.0"/>
      <point x="446.0" y="203.0" type="curve" smooth="yes"/>
      <point x="446.0" y="357.0"/>
      <point x="386.0" y="396.0"/>
      <point x="310.0" y="396.0" type="curve" smooth="yes"/>
      <point x="299.0" y="396.0"/>
      <point x="278.0" y="395.0"/>
      <point x="265.0" y="393.0" type="curve"/>
      <point x="265.0" y="422.0" type="line"/>
      <point x="406.0" y="422.0" type="line"/>
      <point x="406.0" y="627.0" type="line"/>
      <point x="38.0" y="627.0" type="line"/>
      <point x="38.0" y="229.0" type="line"/>
      <point x="80.0" y="235.0"/>
      <point x="118.0" y="236.0"/>
      <point x="171.0" y="236.0" type="curve"/>
      <point x="210.0" y="236.0"/>
      <point x="219.0" y="229.0"/>
      <point x="219.0" y="214.0" type="curve"/>
      <point x="219.0" y="199.0"/>
      <point x="213.0" y="192.0"/>
      <point x="178.0" y="192.0" type="curve"/>
      <point x="122.0" y="192.0"/>
      <point x="77.0" y="192.0"/>
      <point x="20.0" y="202.0" type="curve"/>
      <point x="20.0" y="10.0" type="line"/>
      <point x="52.0" y="-2.0"/>
      <point x="135.0" y="-12.0"/>
    </contour>
  </outline>
</glyph>
<glyph name="six" format="2">
  <advance width="516"/>
  <unicode hex="0036"/>
  <outline>
    <contour>
      <point x="17.0" y="297.0" type="curve"/>
      <point x="17.0" y="65.0"/>
      <point x="86.0" y="-12.0"/>
      <point x="272.0" y="-12.0" type="curve"/>
      <point x="424.0" y="-12.0"/>
      <point x="501.0" y="74.0"/>
      <point x="501.0" y="218.0" type="curve"/>
      <point x="501.0" y="357.0"/>
      <point x="448.0" y="415.0"/>
      <point x="342.0" y="415.0" type="curve"/>
      <point x="270.0" y="415.0"/>
      <point x="217.0" y="374.0"/>
      <point x="211.0" y="371.0" type="curve"/>
      <point x="211.0" y="235.0" type="line"/>
      <point x="231.0" y="245.0"/>
      <point x="250.0" y="251.0"/>
      <point x="265.0" y="251.0" type="curve"/>
      <point x="284.92857142857144" y="251.0"/>
      <point x="296.0" y="243.0"/>
      <point x="296.0" y="215.0" type="curve"/>
      <point x="296.0" y="185.0"/>
      <point x="284.8" y="174.0"/>
      <point x="268.0" y="174.0" type="curve"/>
      <point x="235.89285714285714" y="174.0"/>
      <point x="237.0" y="188.0"/>
      <point x="237.0" y="276.0" type="curve"/>
      <point x="237.0" y="428.0"/>
      <point x="252.4128440366972" y="446.0"/>
      <point x="349.0" y="446.0" type="curve"/>
      <point x="400.0" y="446.0"/>
      <point x="431.0" y="441.0"/>
      <point x="452.0" y="438.0" type="curve"/>
      <point x="452.0" y="626.0" type="line"/>
      <point x="432.0" y="633.0"/>
      <point x="379.0" y="637.0"/>
      <point x="334.0" y="637.0" type="curve"/>
      <point x="127.0" y="637.0"/>
      <point x="17.0" y="531.0"/>
    </contour>
  </outline>
</glyph>
<glyph name="seven" format="2">
  <advance width="459"/>
  <unicode hex="0037"/>
  <outline>
    <contour>
      <point x="446.0" y="422.0" type="line"/>
      <point x="446.0" y="627.0" type="line"/>
      <point x="23.0" y="627.0" type="line"/>
      <point x="23.0" y="422.0" type="line"/>
      <point x="203.0" y="422.0" type="line"/>
      <point x="-1.0" y="0.0" type="line"/>
      <point x="256.0" y="0.0" type="line"/>
    </contour>
  </outline>
</glyph>
<glyph name="eight" format="2">
  <advance width="515"/>
  <unicode hex="0038"/>
  <guideline x="358" y="329" angle="0" identifier="o0urrjZd0P"/>
  <guideline x="258" y="255" angle="270.0" identifier="mnyUCv7USl"/>
  <outline>
    <contour>
      <point x="258.0" y="-12.0" type="curve"/>
      <point x="427.0" y="-12.0"/>
      <point x="499.0" y="43.0"/>
      <point x="499.0" y="169.0" type="curve"/>
      <point x="499.0" y="241.0"/>
      <point x="472.0" y="299.0"/>
      <point x="408.0" y="326.0" type="curve"/>
      <point x="473.0" y="357.0"/>
      <point x="488.0" y="407.0"/>
      <point x="488.0" y="464.0" type="curve"/>
      <point x="488.0" y="594.0"/>
      <point x="428.0" y="637.0"/>
      <point x="258.0" y="637.0" type="curve"/>
      <point x="96.0" y="637.0"/>
      <point x="26.0" y="588.0"/>
      <point x="26.0" y="467.0" type="curve"/>
      <point x="25.0" y="407.0"/>
      <point x="41.0" y="358.0"/>
      <point x="108.0" y="326.0" type="curve"/>
      <point x="45.0" y="300.0"/>
      <point x="16.0" y="247.0"/>
      <point x="16.0" y="174.0" type="curve"/>
      <point x="16.0" y="37.0"/>
      <point x="79.0" y="-12.0"/>
    </contour>
    <contour>
      <point x="258.0" y="463.0" type="curve"/>
      <point x="281.0" y="463.0"/>
      <point x="292.0" y="453.0"/>
      <point x="292.0" y="431.0" type="curve"/>
      <point x="292.0" y="411.0"/>
      <point x="281.0" y="401.0"/>
      <point x="258.0" y="401.0" type="curve"/>
      <point x="235.0" y="401.0"/>
      <point x="223.0" y="411.0"/>
      <point x="223.0" y="432.0" type="curve"/>
      <point x="223.0" y="454.0"/>
      <point x="235.0" y="463.0"/>
    </contour>
    <contour>
      <point x="258.0" y="234.0" type="curve"/>
      <point x="282.0" y="234.0"/>
      <point x="293.0" y="224.0"/>
      <point x="293.0" y="202.0" type="curve"/>
      <point x="293.0" y="180.0"/>
      <point x="282.0" y="170.0"/>
      <point x="258.0" y="170.0" type="curve"/>
      <point x="234.0" y="170.0"/>
      <point x="223.0" y="180.0"/>
      <point x="223.0" y="202.0" type="curve"/>
      <point x="223.0" y="224.0"/>
      <point x="234.0" y="234.0"/>
    </contour>
  </outline>
</glyph>
<glyph name="nine" format="2">
  <advance width="516"/>
  <unicode hex="0039"/>
  <outline>
    <contour>
      <point x="499.0" y="329.0" type="curve"/>
      <point x="499.0" y="561.0"/>
      <point x="430.0" y="638.0"/>
      <point x="244.0" y="638.0" type="curve"/>
      <point x="92.0" y="638.0"/>
      <point x="15.0" y="552.0"/>
      <point x="15.0" y="408.0" type="curve"/>
      <point x="15.0" y="270.4111675126904"/>
      <point x="68.0" y="213.0"/>
      <point x="174.0" y="213.0" type="curve"/>
      <point x="246.0" y="213.0"/>
      <point x="299.1009680139021" y="250.05048400695105"/>
      <point x="305.0" y="253.0" type="curve"/>
      <point x="305.0" y="392.0" type="line"/>
      <point x="284.0" y="381.0"/>
      <point x="266.0" y="373.0"/>
      <point x="251.0" y="373.0" type="curve"/>
      <point x="231.0" y="373.0"/>
      <point x="220.0" y="380.875"/>
      <point x="220.0" y="409.0" type="curve"/>
      <point x="220.0" y="439.87179487179486"/>
      <point x="231.0" y="452.0"/>
      <point x="248.0" y="452.0" type="curve"/>
      <point x="280.0" y="452.0"/>
      <point x="279.0" y="438.46938775510205"/>
      <point x="279.0" y="350.0" type="curve"/>
      <point x="279.0" y="198.0"/>
      <point x="263.58715596330273" y="180.0"/>
      <point x="167.0" y="180.0" type="curve"/>
      <point x="116.0" y="180.0"/>
      <point x="85.0" y="185.0"/>
      <point x="64.0" y="188.0" type="curve"/>
      <point x="64.0" y="0.0" type="line"/>
      <point x="84.0" y="-7.0"/>
      <point x="137.0" y="-11.0"/>
      <point x="182.0" y="-11.0" type="curve"/>
      <point x="389.0" y="-11.0"/>
      <point x="499.0" y="95.0"/>
    </contour>
  </outline>
</glyph>
<glyph name="less" format="1">
  <advance width="500.0"/>
  <unicode hex="003C"/>
  <outline>
    <contour>
      <point x="463.0" y="378.0" type="line"/>
      <point x="463.0" y="549.0" type="line"/>
      <point x="37.0" y="404.0" type="line"/>
      <point x="37.0" y="265.0" type="line"/>
    </contour>
    <contour>
      <point x="463.0" y="75.0" type="line"/>
      <point x="463.0" y="249.0" type="line"/>
      <point x="37.0" y="363.0" type="line"/>
      <point x="37.0" y="220.0" type="line"/>
    </contour>
  </outline>
</glyph>
<glyph name="question" format="2">
  <advance width="379"/>
  <unicode hex="003F"/>
  <guideline x="438" y="203" angle="0" identifier="Pdf8mxG1cX"/>
  <outline>
    <contour>
      <point x="368.0" y="495.0" type="curve" smooth="yes"/>
      <point x="368.0" y="593.2328767123288"/>
      <point x="289.6368715083799" y="637.0"/>
      <point x="199.0" y="637.0" type="curve" smooth="yes"/>
      <point x="120.05263157894737" y="637.0"/>
      <point x="73.15520652211322" y="629.8289255854281"/>
      <point x="19.0" y="609.0" type="curve"/>
      <point x="19.0" y="423.0" type="line"/>
      <point x="50.09902768861264" y="433.0319444156815"/>
      <point x="113.26923076923077" y="446.0"/>
      <point x="148.0" y="446.0" type="curve"/>
      <point x="163.71428571428572" y="446.0"/>
      <point x="170.0" y="439.0"/>
      <point x="170.0" y="429.0" type="curve"/>
      <point x="170.0" y="411.0"/>
      <point x="134.53086960342966" y="391.7960302623607"/>
      <point x="66.0" y="362.0" type="curve"/>
      <point x="66.0" y="234.0" type="line"/>
      <point x="265.0" y="234.0" type="line"/>
      <point x="265.0" y="325.0" type="line"/>
      <point x="332.0" y="370.0"/>
      <point x="368.0" y="411.08974358974353"/>
    </contour>
    <contour>
      <point x="278.0" y="0.0" type="line"/>
      <point x="278.0" y="189.0" type="line"/>
      <point x="53.0" y="189.0" type="line"/>
      <point x="53.0" y="0.0" type="line"/>
    </contour>
  </outline>
</glyph>
<glyph name="at" format="2">
  <advance width="595"/>
  <unicode hex="0040"/>
  <outline>
    <contour>
      <point x="179.0" y="182.0" type="curve"/>
      <point x="179.0" y="116.0"/>
      <point x="206.0" y="85.0"/>
      <point x="268.0" y="85.0" type="curve"/>
      <point x="305.0" y="85.0"/>
      <point x="365.0" y="104.0"/>
      <point x="383.0" y="151.0" type="curve"/>
      <point x="345.0" y="193.0" type="line"/>
      <point x="347.0" y="191.0"/>
      <point x="323.0" y="179.0"/>
      <point x="301.0" y="179.0" type="curve"/>
      <point x="290.0" y="179.0"/>
      <point x="286.0" y="181.0"/>
      <point x="286.0" y="189.0" type="curve"/>
      <point x="286.0" y="199.0"/>
      <point x="288.0" y="202.0"/>
      <point x="309.0" y="202.0" type="curve"/>
      <point x="335.0" y="202.0"/>
      <point x="341.0" y="200.0"/>
      <point x="344.0" y="197.0" type="curve"/>
      <point x="344.0" y="268.0" type="line"/>
      <point x="340.0" y="271.0"/>
      <point x="314.0" y="275.0"/>
      <point x="291.0" y="275.0" type="curve"/>
      <point x="206.0" y="275.0"/>
      <point x="179.0" y="252.0"/>
    </contour>
    <contour>
      <point x="589.0" y="302.0" type="curve"/>
      <point x="589.0" y="468.0"/>
      <point x="490.0" y="557.0"/>
      <point x="315.0" y="557.0" type="curve"/>
      <point x="126.0" y="557.0"/>
      <point x="12.0" y="446.0"/>
      <point x="12.0" y="245.0" type="curve"/>
      <point x="12.0" y="13.0"/>
      <point x="147.0" y="-76.0"/>
      <point x="316.0" y="-76.0" type="curve"/>
      <point x="397.0" y="-76.0"/>
      <point x="457.0" y="-62.0"/>
      <point x="501.0" y="-36.0" type="curve"/>
      <point x="501.0" y="76.0" type="line"/>
      <point x="454.0" y="51.0"/>
      <point x="389.0" y="41.0"/>
      <point x="349.0" y="41.0" type="curve"/>
      <point x="220.0" y="41.0"/>
      <point x="138.0" y="85.0"/>
      <point x="138.0" y="244.0" type="curve"/>
      <point x="138.0" y="391.0"/>
      <point x="187.0" y="444.0"/>
      <point x="317.0" y="444.0" type="curve"/>
      <point x="439.0" y="444.0"/>
      <point x="473.0" y="365.0"/>
      <point x="473.0" y="288.0" type="curve"/>
      <point x="473.0" y="221.0"/>
      <point x="455.0" y="184.0"/>
      <point x="445.0" y="184.0" type="curve"/>
      <point x="442.0" y="184.0"/>
      <point x="440.0" y="185.0"/>
      <point x="440.0" y="194.0" type="curve" smooth="yes"/>
      <point x="440.0" y="301.0" type="line" smooth="yes"/>
      <point x="440.0" y="368.0"/>
      <point x="395.0" y="397.0"/>
      <point x="331.0" y="397.0" type="curve"/>
      <point x="279.0" y="397.0"/>
      <point x="236.0" y="393.0"/>
      <point x="202.0" y="387.0" type="curve"/>
      <point x="202.0" y="287.0" type="line"/>
      <point x="212.0" y="289.0"/>
      <point x="237.0" y="293.0"/>
      <point x="296.0" y="293.0" type="curve" smooth="yes"/>
      <point x="323.0" y="293.0"/>
      <point x="333.0" y="290.0"/>
      <point x="333.0" y="279.0" type="curve" smooth="yes"/>
      <point x="333.0" y="164.0" type="line"/>
      <point x="357.0" y="164.0" type="line"/>
      <point x="359.0" y="123.0"/>
      <point x="377.0" y="85.0"/>
      <point x="428.0" y="85.0" type="curve"/>
      <point x="520.0" y="85.0"/>
      <point x="589.0" y="178.0"/>
    </contour>
  </outline>
</glyph>
<glyph name="A" format="2">
  <advance width="642"/>
  <unicode hex="0041"/>
  <anchor x="322.0" y="645" name="top"/>
  <anchor x="644.0" y="0" name="ogonek"/>
  <outline>
    <contour>
      <point x="-10.0" y="0.0" type="line"/>
      <point x="219.0" y="0.0" type="line"/>
      <point x="283.0" y="252.0" type="line" smooth="yes"/>
      <point x="298.0" y="313.0"/>
      <point x="347.0" y="500.0"/>
      <point x="370.0" y="627.0" type="curve"/>
      <point x="206.0" y="627.0" type="line"/>
    </contour>
    <contour>
      <point x="649.0" y="0.0" type="line"/>
      <point x="442.0" y="627.0" type="line"/>
      <point x="265.0" y="627.0" type="line"/>
      <point x="291.0" y="494.0"/>
      <point x="340.0" y="314.0"/>
      <point x="356.0" y="252.0" type="curve" smooth="yes"/>
      <point x="422.0" y="0.0" type="line"/>
    </contour>
    <contour>
      <point x="158.0" y="64.0" type="line"/>
      <point x="463.0" y="64.0" type="line"/>
      <point x="463.0" y="236.0" type="line"/>
      <point x="158.0" y="236.0" type="line"/>
    </contour>
  </outline>
</glyph>
<glyph name="B" format="2">
  <advance width="564"/>
  <unicode hex="0042"/>
  <guideline x="321" y="351" angle="270.0" identifier="v8HvT1n9AB"/>
  <outline>
    <contour>
      <point x="314.0" y="0.0" type="line"/>
      <point x="468.0" y="0.0"/>
      <point x="556.0" y="53.0"/>
      <point x="556.0" y="188.0" type="curve"/>
      <point x="556.0" y="280.0"/>
      <point x="519.0" y="318.0"/>
      <point x="460.0" y="333.0" type="curve"/>
      <point x="501.0" y="349.0"/>
      <point x="522.0" y="392.0"/>
      <point x="522.0" y="462.0" type="curve"/>
      <point x="522.0" y="578.0"/>
      <point x="460.0" y="627.0"/>
      <point x="315.0" y="627.0" type="curve" smooth="yes"/>
      <point x="123.0" y="627.0" type="line"/>
      <point x="123.0" y="446.0" type="line"/>
      <point x="310.0" y="446.0" type="line" smooth="yes"/>
      <point x="321.0" y="446.0"/>
      <point x="331.0" y="439.0"/>
      <point x="331.0" y="418.0" type="curve"/>
      <point x="331.0" y="395.0"/>
      <point x="322.0" y="388.0"/>
      <point x="310.0" y="388.0" type="curve" smooth="yes"/>
      <point x="123.0" y="388.0" type="line"/>
      <point x="123.0" y="247.0" type="line"/>
      <point x="314.0" y="247.0" type="line" smooth="yes"/>
      <point x="327.0" y="247.0"/>
      <point x="334.0" y="237.0"/>
      <point x="334.0" y="218.0" type="curve"/>
      <point x="334.0" y="199.0"/>
      <point x="327.0" y="189.0"/>
      <point x="314.0" y="189.0" type="curve" smooth="yes"/>
      <point x="123.0" y="189.0" type="line"/>
      <point x="123.0" y="0.0" type="line"/>
    </contour>
    <contour>
      <point x="244.0" y="0.0" type="line"/>
      <point x="244.0" y="627.0" type="line"/>
      <point x="26.0" y="627.0" type="line"/>
      <point x="26.0" y="0.0" type="line"/>
    </contour>
  </outline>
</glyph>
<glyph name="C" format="2">
  <advance width="505"/>
  <unicode hex="0043"/>
  <anchor x="274.0" y="655" name="top"/>
  <anchor x="275.0" y="0" name="bottom"/>
  <outline>
    <contour>
      <point x="494.0" y="226.0" type="line"/>
      <point x="448.16099706132997" y="211.05249904173803"/>
      <point x="380.0" y="200.0"/>
      <point x="328.0" y="200.0" type="curve"/>
      <point x="278.0" y="200.0"/>
      <point x="249.0" y="219.82456140350877"/>
      <point x="249.0" y="313.0" type="curve" smooth="yes"/>
      <point x="249.0" y="410.0"/>
      <point x="272.0" y="432.0"/>
      <point x="338.0" y="432.0" type="curve"/>
      <point x="390.0" y="432.0"/>
      <point x="433.0" y="430.0"/>
      <point x="480.0" y="428.0" type="curve"/>
      <point x="480.0" y="628.0" type="line"/>
      <point x="436.0" y="635.0"/>
      <point x="385.0" y="637.0"/>
      <point x="333.0" y="637.0" type="curve"/>
      <point x="124.0" y="637.0"/>
      <point x="14.0" y="550.0"/>
      <point x="14.0" y="313.0" type="curve" smooth="yes"/>
      <point x="14.0" y="31.0"/>
      <point x="116.0" y="-12.0"/>
      <point x="298.0" y="-12.0" type="curve"/>
      <point x="391.0" y="-12.0"/>
      <point x="449.0" y="9.0"/>
      <point x="494.0" y="27.0" type="curve"/>
    </contour>
  </outline>
</glyph>
<glyph name="D" format="2">
  <advance width="605"/>
  <unicode hex="0044"/>
  <anchor x="280.0" y="645" name="top"/>
  <outline>
    <contour>
      <point x="58.0" y="432.0" type="line"/>
      <point x="283.0" y="432.0" type="line" smooth="yes"/>
      <point x="341.0" y="432.0"/>
      <point x="356.0" y="415.0"/>
      <point x="356.0" y="314.0" type="curve"/>
      <point x="356.0" y="217.84347826086957"/>
      <point x="341.0" y="200.0"/>
      <point x="283.0" y="200.0" type="curve" smooth="yes"/>
      <point x="60.0" y="200.0" type="line"/>
      <point x="60.0" y="0.0" type="line"/>
      <point x="283.0" y="0.0" type="line" smooth="yes"/>
      <point x="485.0" y="0.0"/>
      <point x="591.0" y="83.0"/>
      <point x="591.0" y="314.0" type="curve"/>
      <point x="591.0" y="572.0"/>
      <point x="485.0" y="627.0"/>
      <point x="283.0" y="627.0" type="curve" smooth="yes"/>
      <point x="58.0" y="627.0" type="line"/>
    </contour>
    <contour>
      <point x="253.0" y="0.0" type="line"/>
      <point x="253.0" y="627.0" type="line"/>
      <point x="26.0" y="627.0" type="line"/>
      <point x="26.0" y="0.0" type="line"/>
    </contour>
  </outline>
</glyph>
<glyph name="E" format="2">
  <advance width="492"/>
  <unicode hex="0045"/>
  <guideline x="332" y="208" angle="90.0" identifier="xaTvLPJNi7"/>
  <guideline x="254" y="627" angle="90" name="mid" identifier="AJcA7mpimo"/>
  <anchor x="251.0" y="645" name="top"/>
  <anchor x="456.0" y="0.0" name="ogonek"/>
  <outline>
    <contour>
      <point x="474.0" y="0.0" type="line"/>
      <point x="474.0" y="197.0" type="line"/>
      <point x="253.0" y="197.0" type="line"/>
      <point x="253.0" y="224.0" type="line"/>
      <point x="428.0" y="224.0" type="line"/>
      <point x="428.0" y="407.0" type="line"/>
      <point x="253.0" y="407.0" type="line"/>
      <point x="253.0" y="434.0" type="line"/>
      <point x="465.0" y="434.0" type="line"/>
      <point x="465.0" y="627.0" type="line"/>
      <point x="26.0" y="627.0" type="line"/>
      <point x="26.0" y="0.0" type="line"/>
    </contour>
  </outline>
</glyph>
<glyph name="F" format="2">
  <advance width="485"/>
  <unicode hex="0046"/>
  <outline>
    <contour>
      <point x="253.0" y="0.0" type="line"/>
      <point x="253.0" y="197.0" type="line"/>
      <point x="433.0" y="197.0" type="line"/>
      <point x="433.0" y="384.0" type="line"/>
      <point x="253.0" y="384.0" type="line"/>
      <point x="253.0" y="422.0" type="line"/>
      <point x="470.0" y="422.0" type="line"/>
      <point x="470.0" y="627.0" type="line"/>
      <point x="26.0" y="627.0" type="line"/>
      <point x="26.0" y="0.0" type="line"/>
    </contour>
  </outline>
</glyph>
<glyph name="G" format="1">
  <advance width="570.0"/>
  <unicode hex="0047"/>
  <outline>
    <contour>
      <point x="349.0" y="27.0" type="line"/>
      <point x="550.0" y="27.0" type="line"/>
      <point x="550.0" y="328.0" type="line"/>
      <point x="349.0" y="328.0" type="line"/>
    </contour>
    <contour>
      <point x="493.0" y="209.0" type="line"/>
      <point x="445.0" y="193.0"/>
      <point x="376.0" y="181.0"/>
      <point x="323.0" y="181.0" type="curve"/>
      <point x="266.0" y="181.0"/>
      <point x="248.0" y="210.0"/>
      <point x="248.0" y="313.0" type="curve" smooth="yes"/>
      <point x="248.0" y="410.0"/>
      <point x="271.0" y="432.0"/>
      <point x="337.0" y="432.0" type="curve"/>
      <point x="403.0" y="432.0"/>
      <point x="457.0" y="430.0"/>
      <point x="517.0" y="427.0" type="curve"/>
      <point x="517.0" y="625.0" type="line"/>
      <point x="461.0" y="634.0"/>
      <point x="397.0" y="637.0"/>
      <point x="332.0" y="637.0" type="curve"/>
      <point x="123.0" y="637.0"/>
      <point x="13.0" y="550.0"/>
      <point x="13.0" y="313.0" type="curve" smooth="yes"/>
      <point x="13.0" y="55.0"/>
      <point x="122.0" y="-12.0"/>
      <point x="317.0" y="-12.0" type="curve"/>
      <point x="428.0" y="-12.0"/>
      <point x="497.0" y="6.0"/>
      <point x="550.0" y="27.0" type="curve"/>
    </contour>
    <contour>
      <point x="287.0" y="228.0" type="line"/>
      <point x="550.0" y="228.0" type="line"/>
      <point x="550.0" y="385.0" type="line"/>
      <point x="287.0" y="385.0" type="line"/>
    </contour>
    <contour>
      <point x="317.0" y="655" type="move" name="top"/>
    </contour>
    <contour>
      <point x="316.0" y="0" type="move" name="bottom"/>
    </contour>
  </outline>
</glyph>
<glyph name="H" format="2">
  <advance width="614"/>
  <unicode hex="0048"/>
  <guideline x="0.0" y="433.0" angle="0.0" name="mid" identifier="q0TVWV1waX"/>
  <guideline x="302" y="627" angle="90" name="mid" identifier="dKKGOznFwW"/>
  <anchor x="307.0" y="645" name="top"/>
  <outline>
    <contour>
      <point x="26.0" y="0.0" type="line"/>
      <point x="253.0" y="0.0" type="line"/>
      <point x="253.0" y="627.0" type="line"/>
      <point x="26.0" y="627.0" type="line"/>
    </contour>
    <contour>
      <point x="361.0" y="0.0" type="line"/>
      <point x="588.0" y="0.0" type="line"/>
      <point x="588.0" y="627.0" type="line"/>
      <point x="361.0" y="627.0" type="line"/>
    </contour>
    <contour>
      <point x="170.0" y="216.0" type="line"/>
      <point x="473.0" y="216.0" type="line"/>
      <point x="473.0" y="420.0" type="line"/>
      <point x="170.0" y="420.0" type="line"/>
    </contour>
  </outline>
</glyph>
<glyph name="I" format="2">
  <advance width="279"/>
  <unicode hex="0049"/>
  <guideline x="128.0" y="0.0" angle="90.0" name="mid" identifier="gU13WGMN9n"/>
  <anchor x="140.0" y="645" name="top"/>
  <anchor x="252.0" y="0" name="ogonek"/>
  <outline>
    <contour>
      <point x="253.0" y="0.0" type="line"/>
      <point x="253.0" y="627.0" type="line"/>
      <point x="26.0" y="627.0" type="line"/>
      <point x="26.0" y="0.0" type="line"/>
    </contour>
  </outline>
</glyph>
<glyph name="J" format="1">
  <advance width="409.0"/>
  <unicode hex="004A"/>
  <outline>
    <contour>
      <point x="160.0" y="627.0" type="line"/>
      <point x="160.0" y="259.0" type="line"/>
      <point x="160.0" y="218.0"/>
      <point x="146.1095890410959" y="200.0"/>
      <point x="82.0" y="200.0" type="curve"/>
      <point x="48.4" y="200.0"/>
      <point x="29.942153641493313" y="201.1670283723958"/>
      <point x="12.0" y="204.0" type="curve"/>
      <point x="12.0" y="-3.0" type="line"/>
      <point x="32.0" y="-7.0"/>
      <point x="65.0" y="-12.0"/>
      <point x="122.0" y="-12.0" type="curve"/>
      <point x="312.28195488721803" y="-12.0"/>
      <point x="387.0" y="54.0"/>
      <point x="387.0" y="239.0" type="curve"/>
      <point x="387.0" y="627.0" type="line"/>
    </contour>
    <contour>
      <point x="275.0" y="645" type="move" name="top"/>
    </contour>
  </outline>
</glyph>
<glyph name="K" format="2">
  <advance width="638"/>
  <unicode hex="004B"/>
  <guideline x="0.0" y="314.0" angle="0.0" name="mid" identifier="0cZRHPYgBl"/>
  <anchor x="301.0" y="0" name="bottom"/>
  <outline>
    <contour>
      <point x="655.0" y="0.0" type="line"/>
      <point x="472.0" y="325.0" type="line"/>
      <point x="649.0" y="627.0" type="line"/>
      <point x="383.0" y="627.0" type="line"/>
      <point x="273.0" y="405.0" type="line"/>
      <point x="253.0" y="405.0" type="line"/>
      <point x="253.0" y="627.0" type="line"/>
      <point x="26.0" y="627.0" type="line"/>
      <point x="26.0" y="0.0" type="line"/>
      <point x="253.0" y="0.0" type="line"/>
      <point x="253.0" y="230.0" type="line"/>
      <point x="273.0" y="230.0" type="line"/>
      <point x="377.0" y="0.0" type="line"/>
    </contour>
  </outline>
</glyph>
<glyph name="L" format="1">
  <advance width="454.0"/>
  <unicode hex="004C"/>
  <outline>
    <contour>
      <point x="442.0" y="0.0" type="line"/>
      <point x="442.0" y="212.0" type="line"/>
      <point x="253.0" y="212.0" type="line"/>
      <point x="253.0" y="627.0" type="line"/>
      <point x="26.0" y="627.0" type="line"/>
      <point x="26.0" y="0.0" type="line"/>
    </contour>
    <contour>
      <point x="140.0" y="645" type="move" name="top"/>
    </contour>
    <contour>
      <point x="283.0" y="627" type="move" name="caronalt"/>
    </contour>
    <contour>
      <point x="250.0" y="0" type="move" name="bottom"/>
    </contour>
  </outline>
</glyph>
<glyph name="M" format="2">
  <advance width="739"/>
  <unicode hex="004D"/>
  <outline>
    <contour>
      <point x="713.0" y="0.0" type="line"/>
      <point x="713.0" y="627.0" type="line"/>
      <point x="449.0" y="627.0" type="line"/>
      <point x="372.0" y="396.0" type="line"/>
      <point x="300.0" y="627.0" type="line"/>
      <point x="26.0" y="627.0" type="line"/>
      <point x="26.0" y="0.0" type="line"/>
      <point x="238.0" y="0.0" type="line"/>
      <point x="238.0" y="274.0" type="line"/>
      <point x="281.0" y="115.0" type="line"/>
      <point x="453.0" y="115.0" type="line"/>
      <point x="501.0" y="275.0" type="line"/>
      <point x="501.0" y="0.0" type="line"/>
    </contour>
  </outline>
</glyph>
<glyph name="N" format="2">
  <advance width="629"/>
  <unicode hex="004E"/>
  <guideline x="185.0" y="0.0" angle="90.0" identifier="p8q4yHMk7e"/>
  <guideline x="412.0" y="0.0" angle="90.0" identifier="SVC8qigqcc"/>
  <guideline x="0.0" y="314.0" angle="0.0" name="mid" identifier="mIsrSLtoGc"/>
  <guideline x="320.0" y="0.0" angle="90.0" name="mid" identifier="OCHfjriBUi"/>
  <anchor x="322.0" y="645" name="top"/>
  <anchor x="308.0" y="0" name="bottom"/>
  <outline>
    <contour>
      <point x="603.0" y="0.0" type="line"/>
      <point x="603.0" y="627.0" type="line"/>
      <point x="392.0" y="627.0" type="line"/>
      <point x="392.0" y="364.0" type="line"/>
      <point x="235.0" y="627.0" type="line"/>
      <point x="26.0" y="627.0" type="line"/>
      <point x="26.0" y="0.0" type="line"/>
      <point x="238.0" y="0.0" type="line"/>
      <point x="238.0" y="242.0" type="line"/>
      <point x="392.0" y="0.0" type="line"/>
    </contour>
  </outline>
</glyph>
<glyph name="O" format="2">
  <advance width="647"/>
  <unicode hex="004F"/>
  <anchor x="323.0" y="655" name="top"/>
  <outline>
    <contour>
      <point x="323.0" y="-12.0" type="curve"/>
      <point x="546.0" y="-12.0"/>
      <point x="634.0" y="90.0"/>
      <point x="634.0" y="313.0" type="curve"/>
      <point x="634.0" y="540.0"/>
      <point x="554.0" y="637.0"/>
      <point x="323.0" y="637.0" type="curve"/>
      <point x="100.0" y="637.0"/>
      <point x="13.0" y="535.0"/>
      <point x="13.0" y="313.0" type="curve"/>
      <point x="13.0" y="85.0"/>
      <point x="93.0" y="-12.0"/>
    </contour>
    <contour>
      <point x="323.0" y="200.0" type="curve"/>
      <point x="261.0" y="200.0"/>
      <point x="243.0" y="225.0"/>
      <point x="243.0" y="313.0" type="curve"/>
      <point x="243.0" y="405.0"/>
      <point x="261.0" y="432.0"/>
      <point x="323.0" y="432.0" type="curve"/>
      <point x="386.0" y="432.0"/>
      <point x="404.0" y="405.0"/>
      <point x="404.0" y="313.0" type="curve"/>
      <point x="404.0" y="225.0"/>
      <point x="386.0" y="200.0"/>
    </contour>
  </outline>
</glyph>
<glyph name="P" format="2">
  <advance width="568"/>
  <unicode hex="0050"/>
  <guideline x="279" y="385" angle="0" name="mid" identifier="BoAGRpdYK7"/>
  <guideline x="225" y="237" angle="270.0" identifier="l4mg0jy6Wu"/>
  <outline>
    <contour>
      <point x="274.0" y="152.0" type="line" smooth="yes"/>
      <point x="466.0" y="152.0"/>
      <point x="558.0" y="223.0"/>
      <point x="558.0" y="392.0" type="curve"/>
      <point x="558.0" y="568.0"/>
      <point x="475.0" y="627.0"/>
      <point x="271.0" y="627.0" type="curve" smooth="yes"/>
      <point x="187.0" y="627.0" type="line"/>
      <point x="187.0" y="422.0" type="line"/>
      <point x="291.0" y="422.0" type="line" smooth="yes"/>
      <point x="308.0" y="422.0"/>
      <point x="327.0" y="418.0"/>
      <point x="327.0" y="385.0" type="curve"/>
      <point x="327.0" y="351.0"/>
      <point x="309.0" y="347.0"/>
      <point x="291.0" y="347.0" type="curve" smooth="yes"/>
      <point x="187.0" y="347.0" type="line"/>
      <point x="187.0" y="152.0" type="line"/>
    </contour>
    <contour>
      <point x="253.0" y="0.0" type="line"/>
      <point x="253.0" y="627.0" type="line"/>
      <point x="26.0" y="627.0" type="line"/>
      <point x="26.0" y="0.0" type="line"/>
    </contour>
  </outline>
</glyph>
<glyph name="Q" format="2">
  <advance width="647"/>
  <unicode hex="0051"/>
  <outline>
    <contour>
      <point x="247.0" y="106.0" type="line"/>
      <point x="397.0" y="-128.0" type="line"/>
      <point x="654.0" y="-128.0" type="line"/>
      <point x="496.0" y="106.0" type="line"/>
    </contour>
    <component base="O"/>
  </outline>
</glyph>
<glyph name="S" format="2">
  <advance width="509"/>
  <unicode hex="0053"/>
  <anchor x="255.0" y="655" name="top"/>
  <anchor x="242.0" y="0" name="bottom"/>
  <outline>
    <contour>
      <point x="165.0" y="239.0" type="curve" smooth="yes"/>
      <point x="269.0" y="219.0" type="line" smooth="yes"/>
      <point x="287.0" y="216.0"/>
      <point x="289.0" y="214.0"/>
      <point x="289.0" y="208.0" type="curve" smooth="yes"/>
      <point x="289.0" y="198.0"/>
      <point x="274.0" y="196.0"/>
      <point x="246.0" y="196.0" type="curve" smooth="yes"/>
      <point x="158.0" y="196.0"/>
      <point x="68.0" y="208.0"/>
      <point x="22.0" y="223.0" type="curve"/>
      <point x="22.0" y="11.0" type="line"/>
      <point x="58.0" y="-2.0"/>
      <point x="155.0" y="-12.0"/>
      <point x="245.0" y="-12.0" type="curve" smooth="yes"/>
      <point x="468.0" y="-12.0"/>
      <point x="498.0" y="109.63636363636364"/>
      <point x="498.0" y="211.0" type="curve"/>
      <point x="498.0" y="344.27956989247315"/>
      <point x="449.07021672220776" y="374.09048069006155"/>
      <point x="345.0" y="396.0" type="curve" smooth="yes"/>
      <point x="250.0" y="416.0" type="line" smooth="yes"/>
      <point x="234.0" y="419.0"/>
      <point x="231.0" y="422.0"/>
      <point x="231.0" y="426.0" type="curve" smooth="yes"/>
      <point x="231.0" y="433.0"/>
      <point x="236.0" y="436.0"/>
      <point x="267.0" y="436.0" type="curve" smooth="yes"/>
      <point x="356.0" y="436.0"/>
      <point x="414.0" y="426.0"/>
      <point x="450.0" y="420.0" type="curve"/>
      <point x="450.0" y="619.0" type="line"/>
      <point x="415.0" y="629.0"/>
      <point x="352.0" y="637.0"/>
      <point x="266.0" y="637.0" type="curve" smooth="yes"/>
      <point x="100.0" y="637.0"/>
      <point x="18.0" y="577.0"/>
      <point x="18.0" y="421.0" type="curve"/>
      <point x="18.0" y="293.6"/>
      <point x="86.00475124186792" y="254.19139399194847"/>
    </contour>
  </outline>
</glyph>
<glyph name="T" format="2">
  <advance width="517"/>
  <unicode hex="0054"/>
  <guideline x="248" y="0" angle="90" name="mid" identifier="pcDASFu765"/>
  <anchor x="259.0" y="645" name="top"/>
  <anchor x="259.0" y="0" name="bottom"/>
  <outline>
    <contour>
      <point x="505.0" y="422.0" type="line"/>
      <point x="505.0" y="627.0" type="line"/>
      <point x="12.0" y="627.0" type="line"/>
      <point x="12.0" y="422.0" type="line"/>
      <point x="145.0" y="422.0" type="line"/>
      <point x="145.0" y="0.0" type="line"/>
      <point x="372.0" y="0.0" type="line"/>
      <point x="372.0" y="422.0" type="line"/>
    </contour>
  </outline>
</glyph>
<glyph name="U" format="2">
  <advance width="620"/>
  <unicode hex="0055"/>
  <guideline x="311.0" y="0.0" angle="90.0" name="mid" identifier="QstiEOc6sf"/>
  <anchor x="311" y="645" name="top"/>
  <anchor x="479" y="27" name="ogonekalt"/>
  <outline>
    <contour>
      <point x="372.0" y="627.0" type="line"/>
      <point x="372.0" y="278.0" type="line" smooth="yes"/>
      <point x="372.0" y="222.0"/>
      <point x="360.0" y="200.0"/>
      <point x="311.0" y="200.0" type="curve"/>
      <point x="259.0" y="200.0"/>
      <point x="248.0" y="221.0"/>
      <point x="248.0" y="278.0" type="curve" smooth="yes"/>
      <point x="248.0" y="627.0" type="line"/>
      <point x="21.0" y="627.0" type="line"/>
      <point x="21.0" y="276.0" type="line" smooth="yes"/>
      <point x="21.0" y="78.0"/>
      <point x="103.0" y="-12.0"/>
      <point x="312.0" y="-12.0" type="curve"/>
      <point x="491.0" y="-12.0"/>
      <point x="599.0" y="79.0"/>
      <point x="599.0" y="276.0" type="curve" smooth="yes"/>
      <point x="599.0" y="627.0" type="line"/>
    </contour>
  </outline>
</glyph>
<glyph name="V" format="2">
  <advance width="654"/>
  <unicode hex="0056"/>
  <outline>
    <contour>
      <point x="662.0" y="627.0" type="line"/>
      <point x="425.0" y="627.0" type="line"/>
      <point x="359.0" y="331.0" type="line" smooth="yes"/>
      <point x="347.68544999021003" y="280.255957531851"/>
      <point x="321.9498482002604" y="101.73076402245069"/>
      <point x="303.0" y="0.0" type="curve"/>
      <point x="465.0" y="0.0" type="line"/>
    </contour>
    <contour>
      <point x="-8.0" y="627.0" type="line"/>
      <point x="191.0" y="0.0" type="line"/>
      <point x="364.0" y="0.0" type="line"/>
      <point x="344.04896360311096" y="108.73314836304523"/>
      <point x="317.63842432746037" y="279.149322430821"/>
      <point x="305.0" y="333.0" type="curve" smooth="yes"/>
      <point x="236.0" y="627.0" type="line"/>
    </contour>
  </outline>
</glyph>
<glyph name="W" format="1">
  <advance width="858.0"/>
  <unicode hex="0057"/>
  <outline>
    <contour>
      <point x="462.0" y="627.0" type="curve"/>
      <point x="332.0" y="627.0" type="line"/>
      <point x="302.0" y="405.0" type="line" smooth="yes"/>
      <point x="293.4727181640733" y="341.8981144141423"/>
      <point x="268.0001349661984" y="75.00337415496077"/>
      <point x="265.0" y="0.0" type="curve"/>
      <point x="384.0" y="0.0" type="line"/>
      <point x="399.0" y="100.0" type="line" smooth="yes"/>
      <point x="425.9917439247935" y="279.9449594986234"/>
      <point x="459.00118856794217" y="550.0305065771818"/>
    </contour>
    <contour>
      <point x="-7.0" y="627.0" type="line"/>
      <point x="149.0" y="0.0" type="line"/>
      <point x="313.0" y="0.0" type="line"/>
      <point x="307.0" y="82.0"/>
      <point x="278.9012981412042" y="341.54286022337675"/>
      <point x="267.0" y="407.0" type="curve" smooth="yes"/>
      <point x="227.0" y="627.0" type="line"/>
    </contour>
    <contour>
      <point x="864.0" y="627.0" type="line"/>
      <point x="638.0" y="627.0" type="line"/>
      <point x="601.0" y="405.0" type="line" smooth="yes"/>
      <point x="590.742045435465" y="343.45227261279007"/>
      <point x="561.0" y="85.0"/>
      <point x="556.0" y="0.0" type="curve"/>
      <point x="710.0" y="0.0" type="line"/>
    </contour>
    <contour>
      <point x="396.0" y="627.0" type="line"/>
      <point x="401.99729696348635" y="552.0337879564206"/>
      <point x="432.01474849314616" y="279.90167671235884"/>
      <point x="459.0" y="100.0" type="curve" smooth="yes"/>
      <point x="474.0" y="0.0" type="line"/>
      <point x="605.0" y="0.0" type="line"/>
      <point x="598.9991702544951" y="82.01133985523387"/>
      <point x="574.6140546210471" y="340.903374480301"/>
      <point x="565.0" y="407.0" type="curve" smooth="yes"/>
      <point x="533.0" y="627.0" type="line"/>
    </contour>
    <contour>
      <point x="429.0" y="645" type="move" name="top"/>
    </contour>
  </outline>
</glyph>
<glyph name="X" format="2">
  <advance width="620"/>
  <unicode hex="0058"/>
  <anchor x="324.0" y="645" name="top"/>
  <outline>
    <contour>
      <point x="638.0" y="0.0" type="line"/>
      <point x="447.0" y="327.0" type="line"/>
      <point x="617.0" y="627.0" type="line"/>
      <point x="378.0" y="627.0" type="line"/>
      <point x="328.0" y="513.0" type="line"/>
      <point x="276.0" y="627.0" type="line"/>
      <point x="-2.0" y="627.0" type="line"/>
      <point x="178.0" y="318.0" type="line"/>
      <point x="-17.0" y="0.0" type="line"/>
      <point x="230.0" y="0.0" type="line"/>
      <point x="294.0" y="140.0" type="line"/>
      <point x="361.0" y="0.0" type="line"/>
    </contour>
  </outline>
</glyph>
<glyph name="Y" format="1">
  <advance width="629.0"/>
  <unicode hex="0059"/>
  <outline>
    <contour>
      <point x="635.0" y="627.0" type="line"/>
      <point x="404.0" y="627.0" type="line"/>
      <point x="321.0" y="423.0" type="line"/>
      <point x="247.0" y="627.0" type="line"/>
      <point x="-8.0" y="627.0" type="line"/>
      <point x="203.0" y="218.0" type="line"/>
      <point x="203.0" y="0.0" type="line"/>
      <point x="430.0" y="0.0" type="line"/>
      <point x="430.0" y="218.0" type="line"/>
    </contour>
    <contour>
      <point x="320.0" y="645" type="move" name="top"/>
    </contour>
  </outline>
</glyph>
<glyph name="Z" format="1">
  <advance width="505.0"/>
  <unicode hex="005A"/>
  <outline>
    <contour>
      <point x="489.0" y="0.0" type="line"/>
      <point x="489.0" y="212.0" type="line"/>
      <point x="273.0" y="212.0" type="line"/>
      <point x="470.0" y="422.0" type="line"/>
      <point x="470.0" y="627.0" type="line"/>
      <point x="45.0" y="627.0" type="line"/>
      <point x="45.0" y="422.0" type="line"/>
      <point x="214.0" y="422.0" type="line"/>
      <point x="16.0" y="212.0" type="line"/>
      <point x="16.0" y="0.0" type="line"/>
    </contour>
    <contour>
      <point x="263.0" y="645" type="move" name="top"/>
    </contour>
  </outline>
</glyph>
<glyph name="bracketleft" format="2">
  <advance width="219"/>
  <unicode hex="005B"/>
  <outline>
    <contour>
      <point x="205.0" y="-82.0" type="line"/>
      <point x="205.0" y="30.0" type="line"/>
      <point x="147.0" y="30.0" type="line"/>
      <point x="147.0" y="598.0" type="line"/>
      <point x="205.0" y="598.0" type="line"/>
      <point x="205.0" y="707.0" type="line"/>
      <point x="25.0" y="707.0" type="line"/>
      <point x="25.0" y="-82.0" type="line"/>
    </contour>
  </outline>
</glyph>
<glyph name="backslash" format="1">
  <advance width="366.0"/>
  <unicode hex="005C"/>
  <outline>
    <contour>
      <point x="359.0" y="-80.0" type="line"/>
      <point x="133.0" y="707.0" type="line"/>
      <point x="6.0" y="707.0" type="line"/>
      <point x="231.0" y="-80.0" type="line"/>
    </contour>
  </outline>
</glyph>
<glyph name="asciicircum" format="1">
  <advance width="500.0"/>
  <unicode hex="005E"/>
  <outline>
    <contour>
      <point x="288.0" y="365.0" type="line"/>
      <point x="446.0" y="365.0" type="line"/>
      <point x="330.0" y="627.0" type="line"/>
      <point x="194.0" y="627.0" type="line"/>
    </contour>
    <contour>
      <point x="55.0" y="365.0" type="line"/>
      <point x="218.0" y="365.0" type="line"/>
      <point x="313.0" y="627.0" type="line"/>
      <point x="170.0" y="627.0" type="line"/>
    </contour>
  </outline>
</glyph>
<glyph name="a" format="2">
  <advance width="495"/>
  <unicode hex="0061"/>
  <guideline x="219.0" y="0.0" angle="90.0" identifier="iKTKImijeq"/>
  <guideline x="0.0" y="316.0" angle="0.0" identifier="7DXYkHJqTj"/>
  <anchor x="260.0" y="530" name="top"/>
  <anchor x="476.0" y="0" name="ogonek"/>
  <outline>
    <contour>
      <point x="9.0" y="144.0" type="curve"/>
      <point x="9.0" y="36.0"/>
      <point x="47.0" y="-12.0"/>
      <point x="134.0" y="-12.0" type="curve"/>
      <point x="212.0" y="-12.0"/>
      <point x="248.0" y="23.0"/>
      <point x="284.0" y="57.0" type="curve"/>
      <point x="284.0" y="148.0" type="line"/>
      <point x="277.0" y="141.0"/>
      <point x="251.0" y="133.0"/>
      <point x="219.0" y="133.0" type="curve"/>
      <point x="204.0" y="133.0"/>
      <point x="200.0" y="141.0"/>
      <point x="200.0" y="157.0" type="curve" smooth="yes"/>
      <point x="200.0" y="172.0"/>
      <point x="205.0" y="180.0"/>
      <point x="219.0" y="180.0" type="curve"/>
      <point x="244.0" y="180.0"/>
      <point x="268.0" y="178.0"/>
      <point x="280.0" y="170.0" type="curve"/>
      <point x="280.0" y="276.0" type="line"/>
      <point x="259.0" y="283.0"/>
      <point x="222.0" y="287.0"/>
      <point x="178.0" y="287.0" type="curve"/>
      <point x="68.0" y="287.0"/>
      <point x="9.0" y="248.0"/>
    </contour>
    <contour>
      <point x="268.0" y="0.0" type="line"/>
      <point x="476.0" y="0.0" type="line"/>
      <point x="476.0" y="340.0" type="line" smooth="yes"/>
      <point x="476.0" y="453.0"/>
      <point x="394.0" y="504.0"/>
      <point x="276.0" y="504.0" type="curve" smooth="yes"/>
      <point x="190.0" y="504.0"/>
      <point x="107.0" y="498.0"/>
      <point x="52.0" y="486.0" type="curve"/>
      <point x="52.0" y="307.0" type="line"/>
      <point x="89.0" y="313.0"/>
      <point x="123.0" y="316.0"/>
      <point x="179.0" y="316.0" type="curve"/>
      <point x="242.0" y="316.0"/>
      <point x="256.0" y="309.0"/>
      <point x="256.0" y="292.0" type="curve" smooth="yes"/>
      <point x="256.0" y="35.0" type="line"/>
      <point x="263.0" y="35.0" type="line"/>
    </contour>
  </outline>
</glyph>
<glyph name="b" format="2">
  <advance width="547"/>
  <unicode hex="0062"/>
  <outline>
    <contour>
      <point x="21.0" y="18.0" type="line"/>
      <point x="241.0" y="4.0" type="line"/>
      <point x="241.0" y="665.0" type="line"/>
      <point x="21.0" y="665.0" type="line"/>
    </contour>
    <contour>
      <point x="189.0" y="271.0" type="line"/>
      <point x="213.0" y="278.0"/>
      <point x="237.0" y="306.0"/>
      <point x="279.0" y="306.0" type="curve"/>
      <point x="302.0" y="306.0"/>
      <point x="315.0" y="295.0"/>
      <point x="315.0" y="252.0" type="curve"/>
      <point x="315.0" y="204.0"/>
      <point x="303.0" y="192.0"/>
      <point x="278.0" y="192.0" type="curve"/>
      <point x="216.0" y="192.0"/>
      <point x="189.0" y="212.0"/>
      <point x="179.0" y="223.0" type="curve"/>
      <point x="21.0" y="18.0" type="line"/>
      <point x="89.0" y="-1.0"/>
      <point x="181.0" y="-12.0"/>
      <point x="300.0" y="-12.0" type="curve"/>
      <point x="461.0" y="-12.0"/>
      <point x="535.0" y="72.0"/>
      <point x="535.0" y="252.0" type="curve"/>
      <point x="535.0" y="433.0"/>
      <point x="490.0" y="504.0"/>
      <point x="362.0" y="504.0" type="curve"/>
      <point x="279.0" y="504.0"/>
      <point x="203.0" y="456.0"/>
      <point x="189.0" y="446.0" type="curve"/>
    </contour>
  </outline>
</glyph>
<glyph name="c" format="2">
  <advance width="425"/>
  <unicode hex="0063"/>
  <anchor x="249.0" y="530" name="top"/>
  <anchor x="247.0" y="0" name="bottom"/>
  <outline>
    <contour>
      <point x="412.0" y="25.0" type="curve"/>
      <point x="412.0" y="204.0" type="line"/>
      <point x="389.0" y="200.0"/>
      <point x="338.0" y="192.0"/>
      <point x="281.0" y="192.0" type="curve"/>
      <point x="240.0" y="192.0"/>
      <point x="232.0" y="208.0"/>
      <point x="232.0" y="246.0" type="curve" smooth="yes"/>
      <point x="232.0" y="291.0"/>
      <point x="240.0" y="306.0"/>
      <point x="277.0" y="306.0" type="curve"/>
      <point x="337.0" y="306.0"/>
      <point x="369.0" y="304.0"/>
      <point x="399.0" y="303.0" type="curve"/>
      <point x="399.0" y="494.0" type="line"/>
      <point x="374.0" y="497.0"/>
      <point x="340.0" y="504.0"/>
      <point x="274.0" y="504.0" type="curve" smooth="yes"/>
      <point x="74.0" y="504.0"/>
      <point x="12.0" y="436.0"/>
      <point x="12.0" y="246.0" type="curve" smooth="yes"/>
      <point x="12.0" y="55.0"/>
      <point x="65.0" y="-12.0"/>
      <point x="212.0" y="-12.0" type="curve" smooth="yes"/>
      <point x="301.0" y="-12.0"/>
      <point x="384.0" y="7.0"/>
    </contour>
  </outline>
</glyph>
<glyph name="d" format="2">
  <advance width="547"/>
  <unicode hex="0064"/>
  <anchor x="556.0" y="665" name="caronalt"/>
  <outline>
    <contour>
      <point x="526.0" y="665.0" type="line"/>
      <point x="306.0" y="665.0" type="line"/>
      <point x="306.0" y="46.0" type="line"/>
      <point x="320.0" y="46.0" type="line"/>
      <point x="331.0" y="0.0" type="line"/>
      <point x="526.0" y="0.0" type="line"/>
    </contour>
    <contour>
      <point x="359.0" y="240.0" type="line"/>
      <point x="341.0" y="228.0"/>
      <point x="311.0" y="192.0"/>
      <point x="268.0" y="192.0" type="curve"/>
      <point x="242.0" y="192.0"/>
      <point x="232.0" y="203.0"/>
      <point x="232.0" y="247.0" type="curve"/>
      <point x="232.0" y="297.0"/>
      <point x="245.0" y="306.0"/>
      <point x="268.0" y="306.0" type="curve"/>
      <point x="309.0" y="306.0"/>
      <point x="332.0" y="296.0"/>
      <point x="346.0" y="286.0" type="curve"/>
      <point x="381.0" y="435.0" type="line"/>
      <point x="370.0" y="484.0"/>
      <point x="290.0" y="504.0"/>
      <point x="218.0" y="504.0" type="curve"/>
      <point x="79.0" y="504.0"/>
      <point x="12.0" y="426.0"/>
      <point x="12.0" y="246.0" type="curve"/>
      <point x="12.0" y="70.0"/>
      <point x="55.0" y="-12.0"/>
      <point x="183.0" y="-12.0" type="curve"/>
      <point x="293.0" y="-12.0"/>
      <point x="344.0" y="55.0"/>
      <point x="373.0" y="182.0" type="curve"/>
    </contour>
  </outline>
</glyph>
<glyph name="e" format="2">
  <advance width="492"/>
  <unicode hex="0065"/>
  <guideline x="295.0" y="0.0" angle="90.0" identifier="SZOlPIEDSx"/>
  <anchor x="253.0" y="530.0" name="top"/>
  <anchor x="423.0" y="10" name="ogonekalt"/>
  <outline>
    <contour>
      <point x="257.0" y="344.0" type="curve"/>
      <point x="283.0" y="344.0"/>
      <point x="286.0" y="333.0"/>
      <point x="288.0" y="319.0" type="curve" smooth="yes"/>
      <point x="289.0" y="308.0"/>
      <point x="289.0" y="302.0"/>
      <point x="289.0" y="296.0" type="curve"/>
      <point x="226.0" y="296.0" type="line"/>
      <point x="226.0" y="319.0"/>
      <point x="227.0" y="344.0"/>
    </contour>
    <contour>
      <point x="459.0" y="21.0" type="curve"/>
      <point x="459.0" y="181.0" type="line"/>
      <point x="435.0" y="177.0"/>
      <point x="361.0" y="168.0"/>
      <point x="277.0" y="168.0" type="curve"/>
      <point x="236.0" y="168.0"/>
      <point x="227.0" y="178.0"/>
      <point x="226.0" y="199.0" type="curve"/>
      <point x="475.0" y="199.0" type="line"/>
      <point x="478.85998693106126" y="235.669875845082"/>
      <point x="480.0" y="261.6991150442478"/>
      <point x="480.0" y="308.0" type="curve"/>
      <point x="480.0" y="428.0"/>
      <point x="431.2931034482758" y="504.0"/>
      <point x="254.0" y="504.0" type="curve"/>
      <point x="86.14457831325299" y="504.0"/>
      <point x="11.0" y="418.0"/>
      <point x="11.0" y="244.0" type="curve" smooth="yes"/>
      <point x="11.0" y="67.0"/>
      <point x="77.0" y="-12.0"/>
      <point x="242.0" y="-12.0" type="curve"/>
      <point x="355.0" y="-12.0"/>
      <point x="434.0" y="11.0"/>
    </contour>
  </outline>
</glyph>
<glyph name="f" format="1">
  <advance width="365.0"/>
  <unicode hex="0066"/>
  <outline>
    <contour>
      <point x="375.0" y="665.0" type="line"/>
      <point x="360.0" y="668.0"/>
      <point x="309.0" y="675.0"/>
      <point x="246.0" y="675.0" type="curve"/>
      <point x="135.0" y="675.0"/>
      <point x="55.0" y="620.0"/>
      <point x="55.0" y="504.0" type="curve"/>
      <point x="55.0" y="0.0" type="line"/>
      <point x="275.0" y="0.0" type="line"/>
      <point x="275.0" y="498.0" type="line" smooth="yes"/>
      <point x="275.0" y="522.0"/>
      <point x="284.0" y="528.0"/>
      <point x="317.0" y="528.0" type="curve" smooth="yes"/>
      <point x="335.0" y="528.0"/>
      <point x="364.0" y="525.0"/>
      <point x="375.0" y="524.0" type="curve"/>
    </contour>
    <contour>
      <point x="13.0" y="312.0" type="line"/>
      <point x="360.0" y="312.0" type="line"/>
      <point x="360.0" y="494.0" type="line"/>
      <point x="13.0" y="494.0" type="line"/>
    </contour>
  </outline>
</glyph>
<glyph name="g" format="2">
  <advance width="543"/>
  <unicode hex="0067"/>
  <anchor x="280.0" y="530" name="top"/>
  <outline>
    <contour>
      <point x="70.0" y="-136.0" type="line"/>
      <point x="105.0" y="-148.0"/>
      <point x="174.0" y="-162.0"/>
      <point x="261.0" y="-162.0" type="curve"/>
      <point x="452.0" y="-162.0"/>
      <point x="522.0" y="-93.0"/>
      <point x="522.0" y="120.0" type="curve" smooth="yes"/>
      <point x="522.0" y="485.0" type="line"/>
      <point x="302.0" y="485.0" type="line"/>
      <point x="302.0" y="48.0" type="line"/>
      <point x="298.0" y="27.0"/>
      <point x="279.0" y="24.0"/>
      <point x="246.0" y="24.0" type="curve"/>
      <point x="168.0" y="24.0"/>
      <point x="95.0" y="32.0"/>
      <point x="70.0" y="37.0" type="curve"/>
    </contour>
    <contour>
      <point x="360.0" y="271.0" type="line"/>
      <point x="335.0" y="259.0"/>
      <point x="292.0" y="237.0"/>
      <point x="258.0" y="237.0" type="curve" smooth="yes"/>
      <point x="230.0" y="237.0"/>
      <point x="225.0" y="249.0"/>
      <point x="225.0" y="271.0" type="curve" smooth="yes"/>
      <point x="225.0" y="300.0"/>
      <point x="230.0" y="311.0"/>
      <point x="259.0" y="311.0" type="curve" smooth="yes"/>
      <point x="310.0" y="311.0"/>
      <point x="328.0" y="305.0"/>
      <point x="354.0" y="292.0" type="curve"/>
      <point x="522.0" y="485.0" type="line"/>
      <point x="480.0" y="493.0"/>
      <point x="352.0" y="504.0"/>
      <point x="269.0" y="504.0" type="curve" smooth="yes"/>
      <point x="85.0" y="504.0"/>
      <point x="11.0" y="433.0"/>
      <point x="11.0" y="269.0" type="curve" smooth="yes"/>
      <point x="11.0" y="103.0"/>
      <point x="64.0" y="53.0"/>
      <point x="184.0" y="53.0" type="curve"/>
      <point x="250.0" y="53.0"/>
      <point x="320.0" y="85.0"/>
      <point x="360.0" y="103.0" type="curve"/>
    </contour>
  </outline>
</glyph>
<glyph name="h" format="2">
  <advance width="525"/>
  <unicode hex="0068"/>
  <guideline x="0.0" y="239.0" angle="0.0" identifier="NDAD2XTYBv"/>
  <guideline x="115" y="664" angle="90" name="mid" identifier="gCMYZC6jJA"/>
  <anchor x="131.0" y="683" name="top"/>
  <outline>
    <contour>
      <point x="21.0" y="0.0" type="line"/>
      <point x="241.0" y="0.0" type="line"/>
      <point x="241.0" y="665.0" type="line"/>
      <point x="21.0" y="665.0" type="line"/>
    </contour>
    <contour>
      <point x="201.0" y="277.0" type="line"/>
      <point x="215.35855397272138" y="291.3585539727214"/>
      <point x="237.84848484848484" y="306.0"/>
      <point x="265.0" y="306.0" type="curve"/>
      <point x="281.57894736842104" y="306.0"/>
      <point x="286.0" y="296.0"/>
      <point x="286.0" y="282.0" type="curve" smooth="yes"/>
      <point x="286.0" y="0.0" type="line"/>
      <point x="506.0" y="0.0" type="line"/>
      <point x="506.0" y="342.0" type="line" smooth="yes"/>
      <point x="506.0" y="451.0"/>
      <point x="454.0" y="504.0"/>
      <point x="363.0" y="504.0" type="curve"/>
      <point x="293.0" y="504.0"/>
      <point x="241.47636539730996" y="477.10598970272434"/>
      <point x="201.0" y="408.0" type="curve"/>
    </contour>
  </outline>
</glyph>
<glyph name="i" format="2">
  <advance width="262"/>
  <unicode hex="0069"/>
  <guideline x="0.0" y="844.0" angle="0.0" identifier="2junHiitFU"/>
  <guideline x="101.0" y="0.0" angle="90.0" name="mid" identifier="wS00GNJvrM"/>
  <anchor x="241.0" y="0.0" name="ogonek"/>
  <outline>
    <contour>
      <point x="21.0" y="0.0" type="line"/>
      <point x="241.0" y="0.0" type="line"/>
      <point x="241.0" y="494.0" type="line"/>
      <point x="21.0" y="494.0" type="line"/>
    </contour>
    <contour>
      <point x="21.0" y="517.0" type="line"/>
      <point x="241.0" y="517.0" type="line"/>
      <point x="241.0" y="665.0" type="line"/>
      <point x="21.0" y="665.0" type="line"/>
    </contour>
  </outline>
</glyph>
<glyph name="j" format="2">
  <advance width="266"/>
  <unicode hex="006A"/>
  <outline>
    <contour>
      <point x="-16.0" y="-156.0" type="line"/>
      <point x="-4.0" y="-158.0"/>
      <point x="17.0" y="-162.0"/>
      <point x="62.0" y="-162.0" type="curve"/>
      <point x="166.0" y="-162.0"/>
      <point x="245.0" y="-112.0"/>
      <point x="245.0" y="3.0" type="curve" smooth="yes"/>
      <point x="245.0" y="494.0" type="line"/>
      <point x="25.0" y="494.0" type="line"/>
      <point x="25.0" y="-1.0" type="line" smooth="yes"/>
      <point x="25.0" y="-12.0"/>
      <point x="19.0" y="-17.0"/>
      <point x="2.0" y="-17.0" type="curve" smooth="yes"/>
      <point x="-4.0" y="-17.0"/>
      <point x="-7.0" y="-17.0"/>
      <point x="-16.0" y="-16.0" type="curve"/>
    </contour>
    <contour>
      <point x="25.0" y="517.0" type="line"/>
      <point x="245.0" y="517.0" type="line"/>
      <point x="245.0" y="665.0" type="line"/>
      <point x="25.0" y="665.0" type="line"/>
    </contour>
  </outline>
</glyph>
<glyph name="k" format="2">
  <advance width="544"/>
  <unicode hex="006B"/>
  <anchor x="267.0" y="-10" name="bottom"/>
  <outline>
    <contour>
      <point x="299.0" y="0.0" type="line"/>
      <point x="548.0" y="0.0" type="line"/>
      <point x="443.0" y="258.0" type="line"/>
      <point x="220.0" y="249.0" type="line"/>
    </contour>
    <contour>
      <point x="295.0" y="494.0" type="line"/>
      <point x="220.0" y="249.0" type="line"/>
      <point x="443.0" y="258.0" type="line"/>
      <point x="538.0" y="494.0" type="line"/>
    </contour>
    <contour>
      <point x="161.0" y="169.0" type="line"/>
      <point x="386.0" y="169.0" type="line"/>
      <point x="386.0" y="332.0" type="line"/>
      <point x="161.0" y="332.0" type="line"/>
    </contour>
    <component base="l"/>
  </outline>
</glyph>
<glyph name="l" format="1">
  <advance width="262.0"/>
  <unicode hex="006C"/>
  <outline>
    <contour>
      <point x="241.0" y="0.0" type="line"/>
      <point x="241.0" y="665.0" type="line"/>
      <point x="21.0" y="665.0" type="line"/>
      <point x="21.0" y="0.0" type="line"/>
    </contour>
    <contour>
      <point x="131.0" y="683" type="move" name="top"/>
    </contour>
    <contour>
      <point x="271.0" y="665" type="move" name="caronalt"/>
    </contour>
    <contour>
      <point x="131.0" y="0" type="move" name="bottom"/>
    </contour>
  </outline>
</glyph>
<glyph name="m" format="1">
  <advance width="780.0"/>
  <unicode hex="006D"/>
  <outline>
    <contour>
      <point x="21.0" y="0.0" type="line"/>
      <point x="241.0" y="0.0" type="line"/>
      <point x="241.0" y="342.0" type="line"/>
      <point x="211.0" y="494.0" type="line"/>
      <point x="21.0" y="494.0" type="line"/>
    </contour>
    <contour>
      <point x="202.0" y="277.0" type="line"/>
      <point x="216.0" y="291.0"/>
      <point x="235.0" y="306.0"/>
      <point x="264.0" y="306.0" type="curve" smooth="yes"/>
      <point x="278.0" y="306.0"/>
      <point x="281.0" y="299.0"/>
      <point x="281.0" y="289.0" type="curve" smooth="yes"/>
      <point x="281.0" y="0.0" type="line"/>
      <point x="501.0" y="0.0" type="line"/>
      <point x="501.0" y="342.0" type="line" smooth="yes"/>
      <point x="501.0" y="451.0"/>
      <point x="454.0" y="504.0"/>
      <point x="362.0" y="504.0" type="curve"/>
      <point x="309.0" y="504.0"/>
      <point x="263.0" y="490.0"/>
      <point x="225.0" y="446.0" type="curve"/>
      <point x="202.0" y="446.0" type="line"/>
    </contour>
    <contour>
      <point x="462.0" y="277.0" type="line"/>
      <point x="476.0" y="291.0"/>
      <point x="495.0" y="306.0"/>
      <point x="524.0" y="306.0" type="curve" smooth="yes"/>
      <point x="538.0" y="306.0"/>
      <point x="541.0" y="299.0"/>
      <point x="541.0" y="289.0" type="curve" smooth="yes"/>
      <point x="541.0" y="0.0" type="line"/>
      <point x="761.0" y="0.0" type="line"/>
      <point x="761.0" y="342.0" type="line" smooth="yes"/>
      <point x="761.0" y="451.0"/>
      <point x="714.0" y="504.0"/>
      <point x="622.0" y="504.0" type="curve"/>
      <point x="568.0" y="504.0"/>
      <point x="520.0" y="490.0"/>
      <point x="481.0" y="449.0" type="curve"/>
      <point x="462.0" y="449.0" type="line"/>
    </contour>
  </outline>
</glyph>
<glyph name="n" format="2">
  <advance width="525"/>
  <unicode hex="006E"/>
  <guideline x="0.0" y="239.0" angle="0.0" identifier="5WjGW5o9ZR"/>
  <guideline x="272.0" y="0.0" angle="90.0" name="mid" identifier="SQHCveUTmu"/>
  <anchor x="264.0" y="530" name="top"/>
  <anchor x="-147.0" y="665" name="caronalt"/>
  <anchor x="263.0" y="-10" name="bottom"/>
  <outline>
    <contour>
      <point x="21.0" y="0.0" type="line"/>
      <point x="241.0" y="0.0" type="line"/>
      <point x="241.0" y="441.0" type="line"/>
      <point x="219.0" y="441.0" type="line"/>
      <point x="211.0" y="494.0" type="line"/>
      <point x="21.0" y="494.0" type="line"/>
    </contour>
    <contour>
      <point x="201.0" y="277.0" type="line"/>
      <point x="215.46771389403366" y="291.4677138940337"/>
      <point x="238.42424242424244" y="306.0"/>
      <point x="266.0" y="306.0" type="curve"/>
      <point x="281.7894736842105" y="306.0"/>
      <point x="286.0" y="296.0"/>
      <point x="286.0" y="282.0" type="curve" smooth="yes"/>
      <point x="286.0" y="0.0" type="line"/>
      <point x="506.0" y="0.0" type="line"/>
      <point x="506.0" y="342.0" type="line" smooth="yes"/>
      <point x="506.0" y="451.0"/>
      <point x="454.0" y="504.0"/>
      <point x="363.0" y="504.0" type="curve"/>
      <point x="293.0" y="504.0"/>
      <point x="240.49693601118236" y="478.1322146192896"/>
      <point x="201.0" y="410.0" type="curve"/>
    </contour>
  </outline>
</glyph>
<glyph name="o" format="1">
  <advance width="541.0"/>
  <unicode hex="006F"/>
  <outline>
    <contour>
      <point x="270.0" y="-12.0" type="curve"/>
      <point x="455.0" y="-12.0"/>
      <point x="530.0" y="61.0"/>
      <point x="530.0" y="246.0" type="curve"/>
      <point x="530.0" y="425.0"/>
      <point x="451.0" y="504.0"/>
      <point x="270.0" y="504.0" type="curve"/>
      <point x="86.0" y="504.0"/>
      <point x="11.0" y="431.0"/>
      <point x="11.0" y="246.0" type="curve"/>
      <point x="11.0" y="67.0"/>
      <point x="90.0" y="-12.0"/>
    </contour>
    <contour>
      <point x="270.0" y="192.0" type="curve"/>
      <point x="240.0" y="192.0"/>
      <point x="231.0" y="205.0"/>
      <point x="231.0" y="249.0" type="curve"/>
      <point x="231.0" y="293.0"/>
      <point x="240.0" y="306.0"/>
      <point x="270.0" y="306.0" type="curve"/>
      <point x="301.0" y="306.0"/>
      <point x="310.0" y="293.0"/>
      <point x="310.0" y="249.0" type="curve"/>
      <point x="310.0" y="205.0"/>
      <point x="301.0" y="192.0"/>
    </contour>
    <contour>
      <point x="270.0" y="530.0" type="move" name="top"/>
    </contour>
  </outline>
</glyph>
<glyph name="q" format="1">
  <advance width="546.0"/>
  <unicode hex="0071"/>
  <outline>
    <contour>
      <point x="525.0" y="-152.0" type="line"/>
      <point x="525.0" y="485.0" type="line"/>
      <point x="305.0" y="485.0" type="line"/>
      <point x="305.0" y="-152.0" type="line"/>
    </contour>
    <contour>
      <point x="358.0" y="237.0" type="line"/>
      <point x="340.0" y="225.0"/>
      <point x="310.0" y="192.0"/>
      <point x="267.0" y="192.0" type="curve"/>
      <point x="241.0" y="192.0"/>
      <point x="231.0" y="200.0"/>
      <point x="231.0" y="247.0" type="curve"/>
      <point x="231.0" y="294.0"/>
      <point x="244.0" y="306.0"/>
      <point x="267.0" y="306.0" type="curve"/>
      <point x="308.0" y="306.0"/>
      <point x="331.0" y="296.0"/>
      <point x="345.0" y="286.0" type="curve"/>
      <point x="525.0" y="485.0" type="line"/>
      <point x="414.0" y="501.0"/>
      <point x="329.0" y="506.0"/>
      <point x="267.0" y="506.0" type="curve"/>
      <point x="90.0" y="506.0"/>
      <point x="11.0" y="428.0"/>
      <point x="11.0" y="248.0" type="curve"/>
      <point x="11.0" y="72.0"/>
      <point x="54.0" y="-10.0"/>
      <point x="182.0" y="-10.0" type="curve"/>
      <point x="292.0" y="-10.0"/>
      <point x="343.0" y="57.0"/>
      <point x="372.0" y="184.0" type="curve"/>
    </contour>
  </outline>
</glyph>
<glyph name="r" format="2">
  <advance width="364"/>
  <unicode hex="0072"/>
  <guideline x="115" y="0" angle="90" name="mid" identifier="uwrQ6NT2ds"/>
  <anchor x="185.0" y="530" name="top"/>
  <anchor x="130.0" y="-10" name="bottom"/>
  <outline>
    <contour>
      <point x="21.0" y="0.0" type="line"/>
      <point x="241.0" y="0.0" type="line"/>
      <point x="241.0" y="412.0" type="line"/>
      <point x="227.0" y="494.0" type="line"/>
      <point x="21.0" y="494.0" type="line"/>
    </contour>
    <contour>
      <point x="222.0" y="275.0" type="line"/>
      <point x="243.0" y="287.0"/>
      <point x="265.0" y="295.0"/>
      <point x="310.0" y="295.0" type="curve" smooth="yes"/>
      <point x="332.0" y="295.0"/>
      <point x="348.0" y="293.0"/>
      <point x="356.0" y="292.0" type="curve"/>
      <point x="356.0" y="505.0" type="line"/>
      <point x="346.0" y="506.0"/>
      <point x="339.0" y="506.0"/>
      <point x="328.0" y="506.0" type="curve" smooth="yes"/>
      <point x="284.0" y="506.0"/>
      <point x="255.0" y="478.0"/>
      <point x="237.0" y="456.0" type="curve"/>
      <point x="222.0" y="456.0" type="line"/>
    </contour>
  </outline>
</glyph>
<glyph name="s" format="2">
  <advance width="445"/>
  <unicode hex="0073"/>
  <anchor x="226.0" y="530" name="top"/>
  <anchor x="222.0" y="-10" name="bottom"/>
  <outline>
    <contour>
      <point x="204.0" y="338.0" type="curve"/>
      <point x="204.0" y="347.0"/>
      <point x="218.0" y="348.0"/>
      <point x="247.0" y="348.0" type="curve" smooth="yes"/>
      <point x="304.7948717948718" y="348.0"/>
      <point x="370.86765759534927" y="340.1572697784237"/>
      <point x="408.0" y="335.0" type="curve"/>
      <point x="408.0" y="494.0" type="line"/>
      <point x="374.66604666228926" y="499.2084302090173"/>
      <point x="318.63870967741934" y="504.0"/>
      <point x="237.0" y="504.0" type="curve" smooth="yes"/>
      <point x="66.0" y="504.0"/>
      <point x="11.0" y="432.0"/>
      <point x="11.0" y="331.0" type="curve"/>
      <point x="11.0" y="229.3941605839416"/>
      <point x="50.062641948365" y="195.46902481001172"/>
      <point x="128.0" y="186.0" type="curve" smooth="yes"/>
      <point x="235.0" y="173.0" type="line"/>
      <point x="248.0" y="172.0"/>
      <point x="249.0" y="168.0"/>
      <point x="249.0" y="162.0" type="curve"/>
      <point x="249.0" y="150.0"/>
      <point x="236.0" y="150.0"/>
      <point x="210.0" y="150.0" type="curve"/>
      <point x="130.66473988439304" y="150.0"/>
      <point x="47.05287740856515" y="169.77834159819682"/>
      <point x="27.0" y="174.0" type="curve"/>
      <point x="27.0" y="12.0" type="line"/>
      <point x="63.676821444550086" y="-1.622819393690035"/>
      <point x="138.26470588235293" y="-12.0"/>
      <point x="221.0" y="-12.0" type="curve" smooth="yes"/>
      <point x="333.74146341463415" y="-12.0"/>
      <point x="435.0" y="18.0"/>
      <point x="435.0" y="167.0" type="curve"/>
      <point x="435.0" y="283.77852348993287"/>
      <point x="394.0" y="307.0"/>
      <point x="307.0" y="317.0" type="curve" smooth="yes"/>
      <point x="217.0" y="327.0" type="line" smooth="yes"/>
      <point x="204.0" y="328.0"/>
      <point x="204.0" y="333.0"/>
    </contour>
  </outline>
</glyph>
<glyph name="t" format="2">
  <advance width="393"/>
  <unicode hex="0074"/>
  <anchor x="304.0" y="730" name="caronalt"/>
  <anchor x="226.0" y="-10" name="bottom"/>
  <outline>
    <contour>
      <point x="384.0" y="7.0" type="curve"/>
      <point x="384.0" y="199.0" type="line"/>
      <point x="370.0" y="196.0"/>
      <point x="336.0" y="192.0"/>
      <point x="315.0" y="192.0" type="curve" smooth="yes"/>
      <point x="285.0" y="192.0"/>
      <point x="274.0" y="201.0"/>
      <point x="274.0" y="222.0" type="curve" smooth="yes"/>
      <point x="274.0" y="604.0" type="line"/>
      <point x="88.0" y="604.0" type="line"/>
      <point x="54.0" y="448.0" type="line"/>
      <point x="54.0" y="172.0" type="line" smooth="yes"/>
      <point x="54.0" y="35.0"/>
      <point x="116.0" y="-12.0"/>
      <point x="241.0" y="-12.0" type="curve"/>
      <point x="294.0" y="-12.0"/>
      <point x="369.0" y="0.0"/>
    </contour>
    <contour>
      <point x="12.0" y="312.0" type="line"/>
      <point x="376.0" y="312.0" type="line"/>
      <point x="376.0" y="494.0" type="line"/>
      <point x="12.0" y="494.0" type="line"/>
    </contour>
  </outline>
</glyph>
<glyph name="u" format="2">
  <advance width="522"/>
  <unicode hex="0075"/>
  <guideline x="531" y="564" angle="90.0" name="mid" identifier="8iqeKWB0q7"/>
  <guideline x="516" y="552" angle="90" name="mid" identifier="76NrHar2N6"/>
  <anchor x="261.0" y="530" name="top"/>
  <anchor x="488.0" y="0" name="ogonek"/>
  <outline>
    <contour>
      <point x="19.0" y="152.0" type="line" smooth="yes"/>
      <point x="19.0" y="43.0"/>
      <point x="71.0" y="-10.0"/>
      <point x="172.0" y="-10.0" type="curve"/>
      <point x="228.0" y="-10.0"/>
      <point x="281.0" y="20.0"/>
      <point x="321.0" y="86.0" type="curve"/>
      <point x="321.0" y="221.0" type="line"/>
      <point x="308.0" y="208.0"/>
      <point x="278.0" y="192.0"/>
      <point x="259.0" y="192.0" type="curve"/>
      <point x="243.0" y="192.0"/>
      <point x="239.0" y="200.0"/>
      <point x="239.0" y="212.0" type="curve" smooth="yes"/>
      <point x="239.0" y="494.0" type="line"/>
      <point x="19.0" y="494.0" type="line"/>
    </contour>
    <contour>
      <point x="501.0" y="494.0" type="line"/>
      <point x="281.0" y="494.0" type="line"/>
      <point x="281.0" y="55.0" type="line"/>
      <point x="303.0" y="55.0" type="line"/>
      <point x="311.0" y="0.0" type="line"/>
      <point x="501.0" y="0.0" type="line"/>
    </contour>
  </outline>
</glyph>
<glyph name="v" format="2">
  <advance width="543"/>
  <unicode hex="0076"/>
  <guideline x="252.0" y="0.0" angle="90.0" name="mid" identifier="iyGSIiw7sH"/>
  <outline>
    <contour>
      <point x="548.0" y="494.0" type="line"/>
      <point x="309.0" y="494.0" type="line"/>
      <point x="273.0" y="199.0" type="line"/>
      <point x="236.0" y="494.0" type="line"/>
      <point x="-6.0" y="494.0" type="line"/>
      <point x="146.0" y="0.0" type="line"/>
      <point x="398.0" y="0.0" type="line"/>
    </contour>
  </outline>
</glyph>
<glyph name="w" format="2">
  <advance width="793"/>
  <unicode hex="0077"/>
  <anchor x="396.0" y="530" name="top"/>
  <outline>
    <contour>
      <point x="799.0" y="494.0" type="line"/>
      <point x="558.0" y="494.0" type="line"/>
      <point x="539.0" y="197.0" type="line"/>
      <point x="496.0" y="494.0" type="line"/>
      <point x="301.0" y="494.0" type="line"/>
      <point x="255.0" y="197.0" type="line"/>
      <point x="236.0" y="494.0" type="line"/>
      <point x="-6.0" y="494.0" type="line"/>
      <point x="123.0" y="0.0" type="line"/>
      <point x="372.0" y="0.0" type="line"/>
      <point x="393.0" y="176.0" type="line"/>
      <point x="414.0" y="0.0" type="line"/>
      <point x="672.0" y="0.0" type="line"/>
    </contour>
  </outline>
</glyph>
<glyph name="x" format="1">
  <advance width="511.0"/>
  <unicode hex="0078"/>
  <outline>
    <contour>
      <point x="520.0" y="0.0" type="line"/>
      <point x="383.0" y="257.0" type="line"/>
      <point x="523.0" y="494.0" type="line"/>
      <point x="300.0" y="494.0" type="line"/>
      <point x="269.0" y="396.0" type="line"/>
      <point x="240.0" y="494.0" type="line"/>
      <point x="-13.0" y="494.0" type="line"/>
      <point x="129.0" y="258.0" type="line"/>
      <point x="-10.0" y="0.0" type="line"/>
      <point x="216.0" y="0.0" type="line"/>
      <point x="249.0" y="105.0" type="line"/>
      <point x="281.0" y="0.0" type="line"/>
    </contour>
    <contour>
      <point x="268.0" y="530" type="move" name="top"/>
    </contour>
  </outline>
</glyph>
<glyph name="y" format="2">
  <advance width="539"/>
  <unicode hex="0079"/>
  <anchor x="275.0" y="530" name="top"/>
  <outline>
    <contour>
      <point x="159.0" y="26.0" type="line"/>
      <point x="159.0" y="19.0"/>
      <point x="153.0" y="12.0"/>
      <point x="115.0" y="12.0" type="curve" smooth="yes"/>
      <point x="92.0" y="12.0"/>
      <point x="74.0" y="14.0"/>
      <point x="66.0" y="16.0" type="curve"/>
      <point x="66.0" y="-153.0" type="line"/>
      <point x="85.0" y="-157.0"/>
      <point x="124.0" y="-162.0"/>
      <point x="162.0" y="-162.0" type="curve" smooth="yes"/>
      <point x="278.0" y="-162.0"/>
      <point x="351.0" y="-119.0"/>
      <point x="395.0" y="14.0" type="curve" smooth="yes"/>
      <point x="545.0" y="494.0" type="line"/>
      <point x="312.0" y="494.0" type="line"/>
      <point x="274.0" y="225.0" type="line"/>
      <point x="236.0" y="494.0" type="line"/>
      <point x="-6.0" y="494.0" type="line"/>
    </contour>
  </outline>
</glyph>
<glyph name="z" format="2">
  <advance width="426"/>
  <unicode hex="007A"/>
  <guideline x="219.0" y="0.0" angle="90.0" identifier="LTQhvn0UEZ"/>
  <anchor x="222.0" y="530" name="top"/>
  <outline>
    <contour>
      <point x="412.0" y="0.0" type="line"/>
      <point x="412.0" y="190.0" type="line"/>
      <point x="266.0" y="190.0" type="line"/>
      <point x="395.0" y="312.0" type="line"/>
      <point x="395.0" y="494.0" type="line"/>
      <point x="33.0" y="494.0" type="line"/>
      <point x="33.0" y="312.0" type="line"/>
      <point x="150.0" y="312.0" type="line"/>
      <point x="15.0" y="190.0" type="line"/>
      <point x="15.0" y="0.0" type="line"/>
    </contour>
  </outline>
</glyph>
<glyph name="braceleft" format="1">
  <advance width="286.0"/>
  <unicode hex="007B"/>
  <outline>
    <contour>
      <point x="127.0" y="317.0" type="line"/>
      <point x="169.0" y="325.0"/>
      <point x="218.0" y="373.0"/>
      <point x="218.0" y="473.0" type="curve" smooth="yes"/>
      <point x="218.0" y="568.0" type="line" smooth="yes"/>
      <point x="218.0" y="603.0"/>
      <point x="226.0" y="607.0"/>
      <point x="277.0" y="607.0" type="curve"/>
      <point x="277.0" y="718.0" type="line"/>
      <point x="159.0" y="718.0"/>
      <point x="98.0" y="680.0"/>
      <point x="98.0" y="578.0" type="curve" smooth="yes"/>
      <point x="98.0" y="473.0" type="line" smooth="yes"/>
      <point x="98.0" y="385.0"/>
      <point x="37.0" y="363.0"/>
      <point x="14.0" y="363.0" type="curve" smooth="yes"/>
      <point x="-4.0" y="363.0" type="line"/>
      <point x="-4.0" y="267.0" type="line"/>
      <point x="14.0" y="267.0" type="line" smooth="yes"/>
      <point x="37.0" y="267.0"/>
      <point x="98.0" y="245.0"/>
      <point x="98.0" y="157.0" type="curve" smooth="yes"/>
      <point x="98.0" y="48.0" type="line" smooth="yes"/>
      <point x="98.0" y="-54.0"/>
      <point x="159.0" y="-92.0"/>
      <point x="277.0" y="-92.0" type="curve"/>
      <point x="277.0" y="19.0" type="line"/>
      <point x="226.0" y="19.0"/>
      <point x="218.0" y="23.0"/>
      <point x="218.0" y="58.0" type="curve" smooth="yes"/>
      <point x="218.0" y="157.0" type="line" smooth="yes"/>
      <point x="218.0" y="256.0"/>
      <point x="170.0" y="305.0"/>
      <point x="127.0" y="313.0" type="curve"/>
    </contour>
  </outline>
</glyph>
<glyph name="bar" format="1">
  <advance width="172.0"/>
  <unicode hex="007C"/>
  <outline>
    <contour>
      <point x="147.0" y="-80.0" type="line"/>
      <point x="147.0" y="707.0" type="line"/>
      <point x="25.0" y="707.0" type="line"/>
      <point x="25.0" y="-80.0" type="line"/>
    </contour>
  </outline>
</glyph>
<glyph name="asciitilde" format="2">
  <advance width="602"/>
  <unicode hex="007E"/>
  <guideline x="161" y="0" angle="90" name="mid" identifier="SLrs0408ha"/>
  <outline>
    <contour>
      <point x="590.0" y="446.0" type="curve"/>
      <point x="421.0" y="446.0" type="line"/>
      <point x="421.0" y="415.0"/>
      <point x="416.0" y="368.0"/>
      <point x="383.0" y="368.0" type="curve"/>
      <point x="344.0" y="368.0"/>
      <point x="263.0" y="454.0"/>
      <point x="168.0" y="454.0" type="curve"/>
      <point x="43.0" y="454.0"/>
      <point x="12.0" y="314.0"/>
      <point x="12.0" y="193.0" type="curve"/>
      <point x="180.0" y="193.0" type="line"/>
      <point x="180.0" y="225.0"/>
      <point x="186.0" y="276.0"/>
      <point x="218.0" y="276.0" type="curve"/>
      <point x="257.0" y="276.0"/>
      <point x="338.0" y="186.0"/>
      <point x="432.0" y="186.0" type="curve"/>
      <point x="558.0" y="186.0"/>
      <point x="590.0" y="325.0"/>
    </contour>
  </outline>
</glyph>
<glyph name="cent" format="2">
  <advance width="427"/>
  <unicode hex="00A2"/>
  <outline>
    <contour>
      <point x="293.0" y="486.0" type="line"/>
      <point x="293.0" y="645.0" type="line"/>
      <point x="184.0" y="645.0" type="line"/>
      <point x="184.0" y="486.0" type="line"/>
    </contour>
    <contour>
      <point x="293.0" y="-18.0" type="line"/>
      <point x="293.0" y="153.0" type="line"/>
      <point x="184.0" y="153.0" type="line"/>
      <point x="184.0" y="-18.0" type="line"/>
    </contour>
    <component base="c" xOffset="1" yOffset="66"/>
  </outline>
</glyph>
<glyph name="sterling" format="2">
  <advance width="461"/>
  <unicode hex="00A3"/>
  <outline>
    <contour>
      <point x="445.0" y="0.0" type="line"/>
      <point x="445.0" y="192.0" type="line"/>
      <point x="238.0" y="192.0" type="line"/>
      <point x="238.0" y="195.0" type="line"/>
      <point x="287.0" y="204.0"/>
      <point x="304.0" y="239.0"/>
      <point x="304.0" y="262.0" type="curve" smooth="yes"/>
      <point x="304.0" y="408.0" type="line" smooth="yes"/>
      <point x="304.0" y="431.0"/>
      <point x="320.0" y="440.0"/>
      <point x="347.0" y="440.0" type="curve" smooth="yes"/>
      <point x="364.0" y="440.0"/>
      <point x="395.0" y="438.0"/>
      <point x="429.0" y="431.0" type="curve"/>
      <point x="429.0" y="621.0" type="line"/>
      <point x="379.0" y="632.0"/>
      <point x="349.0" y="637.0"/>
      <point x="286.0" y="637.0" type="curve" smooth="yes"/>
      <point x="214.0" y="637.0"/>
      <point x="77.0" y="619.0"/>
      <point x="77.0" y="450.0" type="curve" smooth="yes"/>
      <point x="77.0" y="255.0" type="line" smooth="yes"/>
      <point x="77.0" y="213.0"/>
      <point x="48.0" y="199.0"/>
      <point x="19.0" y="193.0" type="curve"/>
      <point x="19.0" y="0.0" type="line"/>
    </contour>
    <contour>
      <point x="19.0" y="374.0" type="line"/>
      <point x="19.0" y="262.0" type="line"/>
      <point x="395.0" y="262.0" type="line"/>
      <point x="395.0" y="374.0" type="line"/>
    </contour>
  </outline>
</glyph>
<glyph name="currency" format="2">
  <advance width="586"/>
  <unicode hex="00A4"/>
  <guideline x="129" y="442" angle="44.620563298581025" identifier="FnGqwyTvrc"/>
  <outline>
    <contour>
      <point x="571.0" y="514.0" type="line"/>
      <point x="491.0" y="596.0" type="line"/>
      <point x="393.0" y="500.0" type="line"/>
      <point x="476.0" y="417.0" type="line"/>
    </contour>
    <contour>
      <point x="494.0" y="36.0" type="line"/>
      <point x="574.0" y="116.0" type="line"/>
      <point x="475.0" y="216.0" type="line"/>
      <point x="394.0" y="135.0" type="line"/>
    </contour>
    <contour>
      <point x="12.0" y="117.0" type="line"/>
      <point x="92.0" y="37.0" type="line"/>
      <point x="190.0" y="134.0" type="line"/>
      <point x="109.0" y="217.0" type="line"/>
    </contour>
    <contour>
      <point x="94.0" y="596.0" type="line"/>
      <point x="14.0" y="517.0" type="line"/>
      <point x="111.0" y="421.0" type="line"/>
      <point x="191.0" y="499.0" type="line"/>
    </contour>
    <contour>
      <point x="292.0" y="575.0" type="curve" smooth="yes"/>
      <point x="148.0" y="577.0"/>
      <point x="31.0" y="460.0"/>
      <point x="33.0" y="316.0" type="curve" smooth="yes"/>
      <point x="31.0" y="172.0"/>
      <point x="149.0" y="54.0"/>
      <point x="294.0" y="56.0" type="curve" smooth="yes"/>
      <point x="437.0" y="54.0"/>
      <point x="555.0" y="171.0"/>
      <point x="555.0" y="315.0" type="curve" smooth="yes"/>
      <point x="557.0" y="459.0"/>
      <point x="438.0" y="577.0"/>
    </contour>
    <contour>
      <point x="233.0" y="320.0" type="curve" smooth="yes"/>
      <point x="235.0" y="364.0"/>
      <point x="255.0" y="385.0"/>
      <point x="296.0" y="385.0" type="curve" smooth="yes"/>
      <point x="336.0" y="385.0"/>
      <point x="355.0" y="364.0"/>
      <point x="355.0" y="320.0" type="curve" smooth="yes"/>
      <point x="355.0" y="275.0"/>
      <point x="335.0" y="254.0"/>
      <point x="294.0" y="255.0" type="curve" smooth="yes"/>
      <point x="255.0" y="254.0"/>
      <point x="235.0" y="275.0"/>
    </contour>
  </outline>
</glyph>
<glyph name="yen" format="1">
  <advance width="585.0"/>
  <unicode hex="00A5"/>
  <outline>
    <contour>
      <point x="81.0" y="304.0" type="line"/>
      <point x="81.0" y="212.0" type="line"/>
      <point x="508.0" y="212.0" type="line"/>
      <point x="508.0" y="304.0" type="line"/>
    </contour>
    <contour>
      <point x="81.0" y="192.0" type="line"/>
      <point x="81.0" y="100.0" type="line"/>
      <point x="508.0" y="100.0" type="line"/>
      <point x="508.0" y="192.0" type="line"/>
    </contour>
    <contour>
      <point x="579.0" y="627.0" type="line"/>
      <point x="346.0" y="627.0" type="line"/>
      <point x="295.0" y="412.0" type="line"/>
      <point x="255.0" y="627.0" type="line"/>
      <point x="6.0" y="627.0" type="line"/>
      <point x="181.0" y="232.0" type="line"/>
      <point x="181.0" y="0.0" type="line"/>
      <point x="409.0" y="0.0" type="line"/>
      <point x="409.0" y="232.0" type="line"/>
    </contour>
  </outline>
</glyph>
<glyph name="section" format="1">
  <advance width="446.0"/>
  <unicode hex="00A7"/>
  <outline>
    <contour>
      <point x="120.0" y="452.0" type="line"/>
      <point x="45.0" y="412.0"/>
      <point x="12.0" y="365.0"/>
      <point x="12.0" y="304.0" type="curve"/>
      <point x="12.0" y="258.0"/>
      <point x="42.0" y="219.0"/>
      <point x="90.0" y="199.0" type="curve" smooth="yes"/>
      <point x="184.0" y="161.0" type="line" smooth="yes"/>
      <point x="204.0" y="152.0"/>
      <point x="220.0" y="147.0"/>
      <point x="220.0" y="135.0" type="curve"/>
      <point x="220.0" y="128.0"/>
      <point x="218.0" y="122.0"/>
      <point x="185.0" y="122.0" type="curve"/>
      <point x="144.0" y="122.0"/>
      <point x="105.0" y="130.0"/>
      <point x="69.0" y="140.0" type="curve"/>
      <point x="69.0" y="5.0" type="line"/>
      <point x="102.0" y="-3.0"/>
      <point x="144.0" y="-10.0"/>
      <point x="226.0" y="-10.0" type="curve"/>
      <point x="343.0" y="-10.0"/>
      <point x="402.0" y="50.0"/>
      <point x="402.0" y="135.0" type="curve"/>
      <point x="402.0" y="199.0"/>
      <point x="373.0" y="228.0"/>
      <point x="312.0" y="254.0" type="curve" smooth="yes"/>
      <point x="198.0" y="303.0" type="line" smooth="yes"/>
      <point x="181.0" y="311.0"/>
      <point x="174.0" y="318.0"/>
      <point x="174.0" y="334.0" type="curve"/>
      <point x="174.0" y="357.0"/>
      <point x="192.0" y="375.0"/>
      <point x="208.0" y="389.0" type="curve"/>
    </contour>
    <contour>
      <point x="261.0" y="505.0" type="curve"/>
      <point x="302.0" y="505.0"/>
      <point x="341.0" y="497.0"/>
      <point x="378.0" y="486.0" type="curve"/>
      <point x="378.0" y="621.0" type="line"/>
      <point x="344.0" y="630.0"/>
      <point x="303.0" y="637.0"/>
      <point x="217.0" y="637.0" type="curve"/>
      <point x="106.0" y="637.0"/>
      <point x="43.0" y="578.0"/>
      <point x="43.0" y="492.0" type="curve"/>
      <point x="43.0" y="428.0"/>
      <point x="73.0" y="401.0"/>
      <point x="135.0" y="373.0" type="curve" smooth="yes"/>
      <point x="248.0" y="323.0" type="line" smooth="yes"/>
      <point x="265.0" y="316.0"/>
      <point x="272.0" y="309.0"/>
      <point x="272.0" y="292.0" type="curve"/>
      <point x="272.0" y="270.0"/>
      <point x="254.0" y="252.0"/>
      <point x="238.0" y="238.0" type="curve"/>
      <point x="326.0" y="175.0" type="line"/>
      <point x="401.0" y="215.0"/>
      <point x="434.0" y="262.0"/>
      <point x="434.0" y="323.0" type="curve"/>
      <point x="434.0" y="371.0"/>
      <point x="400.0" y="409.0"/>
      <point x="352.0" y="429.0" type="curve" smooth="yes"/>
      <point x="262.0" y="466.0" type="line" smooth="yes"/>
      <point x="242.0" y="475.0"/>
      <point x="226.0" y="480.0"/>
      <point x="226.0" y="492.0" type="curve"/>
      <point x="226.0" y="499.0"/>
      <point x="227.0" y="505.0"/>
    </contour>
  </outline>
</glyph>
<glyph name="copyright" format="2">
  <advance width="654"/>
  <unicode hex="00A9"/>
  <outline>
    <contour>
      <point x="328.0" y="-10.0" type="curve"/>
      <point x="524.0" y="-10.0"/>
      <point x="641.0" y="111.0"/>
      <point x="641.0" y="314.0" type="curve"/>
      <point x="641.0" y="525.0"/>
      <point x="532.0" y="637.0"/>
      <point x="328.0" y="637.0" type="curve"/>
      <point x="130.0" y="637.0"/>
      <point x="13.0" y="517.0"/>
      <point x="13.0" y="314.0" type="curve"/>
      <point x="13.0" y="104.0"/>
      <point x="124.0" y="-10.0"/>
    </contour>
    <contour>
      <point x="330.0" y="532.0" type="curve"/>
      <point x="464.0" y="532.0"/>
      <point x="528.0" y="461.0"/>
      <point x="528.0" y="312.0" type="curve"/>
      <point x="528.0" y="171.0"/>
      <point x="464.0" y="103.0"/>
      <point x="330.0" y="103.0" type="curve"/>
      <point x="192.0" y="103.0"/>
      <point x="126.0" y="171.0"/>
      <point x="126.0" y="312.0" type="curve"/>
      <point x="126.0" y="461.0"/>
      <point x="192.0" y="532.0"/>
    </contour>
    <contour>
      <point x="447.0" y="275.0" type="line"/>
      <point x="418.0" y="267.0"/>
      <point x="389.0" y="261.0"/>
      <point x="356.0" y="261.0" type="curve"/>
      <point x="329.0" y="261.0"/>
      <point x="309.0" y="274.0"/>
      <point x="309.0" y="318.0" type="curve" smooth="yes"/>
      <point x="309.0" y="368.0"/>
      <point x="329.0" y="377.0"/>
      <point x="355.0" y="377.0" type="curve"/>
      <point x="388.0" y="377.0"/>
      <point x="401.0" y="375.0"/>
      <point x="438.0" y="372.0" type="curve"/>
      <point x="438.0" y="481.0" type="line"/>
      <point x="406.0" y="489.0"/>
      <point x="377.0" y="494.0"/>
      <point x="334.0" y="494.0" type="curve"/>
      <point x="227.0" y="494.0"/>
      <point x="160.0" y="446.0"/>
      <point x="160.0" y="316.0" type="curve" smooth="yes"/>
      <point x="160.0" y="176.0"/>
      <point x="230.0" y="137.0"/>
      <point x="325.0" y="137.0" type="curve"/>
      <point x="382.0" y="137.0"/>
      <point x="424.0" y="148.0"/>
      <point x="447.0" y="160.0" type="curve"/>
    </contour>
  </outline>
</glyph>
<glyph name="ordfeminine" format="2">
  <advance width="309"/>
  <unicode hex="00AA"/>
  <guideline x="219" y="172" angle="90.0" identifier="Crm1Y3RCGN"/>
  <guideline x="280" y="316" angle="0" identifier="G63KTmaSK3"/>
  <guideline x="28" y="461" angle="90.0" identifier="rGXGukrl2A"/>
  <outline>
    <contour>
      <point x="17.0" y="220.0" type="line"/>
      <point x="289.0" y="220.0" type="line"/>
      <point x="289.0" y="318.0" type="line"/>
      <point x="17.0" y="318.0" type="line"/>
    </contour>
    <contour>
      <point x="17.0" y="439.0" type="curve"/>
      <point x="17.0" y="378.0"/>
      <point x="44.0" y="347.0"/>
      <point x="101.0" y="347.0" type="curve"/>
      <point x="142.0" y="347.0"/>
      <point x="164.0" y="366.0"/>
      <point x="186.0" y="385.0" type="curve"/>
      <point x="186.0" y="446.0" type="line"/>
      <point x="187.0" y="446.0"/>
      <point x="167.0" y="434.0"/>
      <point x="140.0" y="434.0" type="curve"/>
      <point x="128.0" y="434.0"/>
      <point x="123.0" y="437.3"/>
      <point x="123.0" y="445.0" type="curve"/>
      <point x="123.0" y="453.6666666666667"/>
      <point x="126.0" y="458.0"/>
      <point x="144.0" y="458.0" type="curve"/>
      <point x="168.0" y="458.0"/>
      <point x="181.0" y="455.0"/>
      <point x="185.0" y="453.0" type="curve"/>
      <point x="185.0" y="515.0" type="line"/>
      <point x="180.23414072447093" y="518.8126874204232"/>
      <point x="146.0" y="522.0"/>
      <point x="130.0" y="522.0" type="curve"/>
      <point x="44.0" y="522.0"/>
      <point x="17.0" y="496.906976744186"/>
    </contour>
    <contour>
      <point x="178.0" y="354.0" type="line"/>
      <point x="285.0" y="354.0" type="line"/>
      <point x="285.0" y="549.0" type="line" smooth="yes"/>
      <point x="285.0" y="610.0"/>
      <point x="239.0" y="636.0"/>
      <point x="171.0" y="636.0" type="curve"/>
      <point x="115.0" y="636.0"/>
      <point x="79.0" y="632.0"/>
      <point x="44.0" y="626.0" type="curve"/>
      <point x="44.0" y="534.0" type="line"/>
      <point x="58.0" y="536.0"/>
      <point x="92.0" y="542.0"/>
      <point x="133.0" y="542.0" type="curve" smooth="yes"/>
      <point x="153.0" y="542.0"/>
      <point x="171.0" y="541.0"/>
      <point x="171.0" y="527.0" type="curve" smooth="yes"/>
      <point x="171.0" y="374.0" type="line"/>
      <point x="175.0" y="374.0" type="line"/>
    </contour>
  </outline>
</glyph>
<glyph name="guillemotleft" format="1">
  <advance width="494.0"/>
  <unicode hex="00AB"/>
  <outline>
    <contour>
      <point x="282.0" y="494.0" type="line"/>
      <point x="130.0" y="494.0" type="line"/>
      <point x="9.0" y="282.0" type="line"/>
      <point x="127.0" y="222.0" type="line"/>
    </contour>
    <contour>
      <point x="130.0" y="64.0" type="line"/>
      <point x="282.0" y="64.0" type="line"/>
      <point x="131.0" y="344.0" type="line"/>
      <point x="9.0" y="282.0" type="line"/>
    </contour>
    <contour>
      <point x="486.0" y="494.0" type="line"/>
      <point x="334.0" y="494.0" type="line"/>
      <point x="212.0" y="282.0" type="line"/>
      <point x="330.0" y="222.0" type="line"/>
    </contour>
    <contour>
      <point x="334.0" y="64.0" type="line"/>
      <point x="486.0" y="64.0" type="line"/>
      <point x="334.0" y="344.0" type="line"/>
      <point x="212.0" y="282.0" type="line"/>
    </contour>
  </outline>
</glyph>
<glyph name="registered" format="2">
  <advance width="386"/>
  <unicode hex="00AE"/>
  <outline>
    <contour>
      <point x="193.0" y="270.0" type="curve"/>
      <point x="311.0" y="270.0"/>
      <point x="375.0" y="335.0"/>
      <point x="375.0" y="454.0" type="curve"/>
      <point x="375.0" y="578.0"/>
      <point x="311.0" y="637.0"/>
      <point x="195.0" y="637.0" type="curve"/>
      <point x="75.0" y="637.0"/>
      <point x="11.0" y="572.0"/>
      <point x="11.0" y="454.0" type="curve"/>
      <point x="11.0" y="329.0"/>
      <point x="74.0" y="270.0"/>
    </contour>
    <contour>
      <point x="194.0" y="581.0" type="curve"/>
      <point x="274.0" y="581.0"/>
      <point x="310.0" y="540.0"/>
      <point x="310.0" y="454.0" type="curve"/>
      <point x="310.0" y="369.0"/>
      <point x="274.0" y="330.0"/>
      <point x="194.0" y="330.0" type="curve"/>
      <point x="113.0" y="330.0"/>
      <point x="76.0" y="369.0"/>
      <point x="76.0" y="454.0" type="curve"/>
      <point x="76.0" y="540.0"/>
      <point x="113.0" y="581.0"/>
    </contour>
    <contour>
      <point x="193.0" y="417.0" type="line" smooth="yes"/>
      <point x="245.0" y="417.0"/>
      <point x="279.0" y="434.0"/>
      <point x="279.0" y="487.0" type="curve"/>
      <point x="279.0" y="543.0"/>
      <point x="248.0" y="557.0"/>
      <point x="192.0" y="557.0" type="curve" smooth="yes"/>
      <point x="158.0" y="557.0" type="line"/>
      <point x="158.0" y="504.0" type="line"/>
      <point x="192.0" y="504.0" type="line" smooth="yes"/>
      <point x="210.0" y="504.0"/>
      <point x="219.0" y="502.0"/>
      <point x="219.0" y="487.0" type="curve"/>
      <point x="219.0" y="467.0"/>
      <point x="211.0" y="464.0"/>
      <point x="192.0" y="464.0" type="curve" smooth="yes"/>
      <point x="158.0" y="464.0" type="line"/>
      <point x="158.0" y="417.0" type="line"/>
    </contour>
    <contour>
      <point x="175.0" y="355.0" type="line"/>
      <point x="175.0" y="557.0" type="line"/>
      <point x="116.0" y="557.0" type="line"/>
      <point x="116.0" y="355.0" type="line"/>
    </contour>
    <contour>
      <point x="173.0" y="427.0" type="line"/>
      <point x="206.0" y="355.0" type="line"/>
      <point x="277.0" y="355.0" type="line"/>
      <point x="238.0" y="427.0" type="line"/>
    </contour>
  </outline>
</glyph>
<glyph name="macron" format="2">
  <advance width="363"/>
  <unicode hex="00AF"/>
  <guideline x="177.0" y="0.0" angle="90.0" name="mid" identifier="VswSWMvKQb"/>
  <guideline x="182" y="535" angle="90" name="mid" identifier="h09l6SuoOB"/>
  <anchor x="182" y="530" name="_top"/>
  <outline>
    <contour>
      <point x="313.0" y="535.0" type="line"/>
      <point x="313.0" y="676.0" type="line"/>
      <point x="50.0" y="676.0" type="line"/>
      <point x="50.0" y="535.0" type="line"/>
    </contour>
  </outline>
</glyph>
<glyph name="degree" format="2">
  <advance width="290"/>
  <unicode hex="00B0"/>
  <guideline x="173" y="605" angle="270.0" identifier="JoaaM6u077"/>
  <outline>
    <contour>
      <point x="145.0" y="366.0" type="curve" smooth="yes"/>
      <point x="232.0" y="366.0"/>
      <point x="285.0" y="416.0"/>
      <point x="285.0" y="498.0" type="curve" smooth="yes"/>
      <point x="285.0" y="583.0"/>
      <point x="232.0" y="634.0"/>
      <point x="145.0" y="634.0" type="curve" smooth="yes"/>
      <point x="58.0" y="634.0"/>
      <point x="5.0" y="583.0"/>
      <point x="5.0" y="498.0" type="curve" smooth="yes"/>
      <point x="5.0" y="416.0"/>
      <point x="58.0" y="366.0"/>
    </contour>
    <contour>
      <point x="145.0" y="472.0" type="curve" smooth="yes"/>
      <point x="128.0" y="472.0"/>
      <point x="118.0" y="482.875"/>
      <point x="118.0" y="501.0" type="curve" smooth="yes"/>
      <point x="118.0" y="519.125"/>
      <point x="128.0" y="530.0"/>
      <point x="145.0" y="530.0" type="curve" smooth="yes"/>
      <point x="162.0" y="530.0"/>
      <point x="172.0" y="519.125"/>
      <point x="172.0" y="501.0" type="curve" smooth="yes"/>
      <point x="172.0" y="482.875"/>
      <point x="162.0" y="472.0"/>
    </contour>
  </outline>
</glyph>
<glyph name="plusminus" format="2">
  <advance width="500"/>
  <unicode hex="00B1"/>
  <outline>
    <contour>
      <point x="463.0" y="327.0" type="line"/>
      <point x="463.0" y="495.0" type="line"/>
      <point x="37.0" y="495.0" type="line"/>
      <point x="37.0" y="327.0" type="line"/>
    </contour>
    <contour>
      <point x="338.0" y="601.0" type="line"/>
      <point x="164.0" y="601.0" type="line"/>
      <point x="164.0" y="219.0" type="line"/>
      <point x="338.0" y="219.0" type="line"/>
    </contour>
    <component base="minus" yOffset="-222"/>
  </outline>
</glyph>
<glyph name="uni00B2" format="1">
  <advance width="278.0"/>
  <unicode hex="00B2"/>
  <outline>
    <contour>
      <point x="262.0" y="270.0" type="line"/>
      <point x="262.0" y="384.0" type="line"/>
      <point x="156.0" y="384.0" type="line"/>
      <point x="227.0" y="446.0" type="line" smooth="yes"/>
      <point x="253.0" y="469.0"/>
      <point x="266.0" y="494.0"/>
      <point x="266.0" y="538.0" type="curve"/>
      <point x="266.0" y="593.0"/>
      <point x="229.0" y="632.0"/>
      <point x="155.0" y="632.0" type="curve"/>
      <point x="103.0" y="632.0"/>
      <point x="52.0" y="625.0"/>
      <point x="26.0" y="618.0" type="curve"/>
      <point x="26.0" y="513.0" type="line"/>
      <point x="46.0" y="516.0"/>
      <point x="90.0" y="522.0"/>
      <point x="126.0" y="522.0" type="curve"/>
      <point x="140.0" y="522.0"/>
      <point x="143.0" y="515.0"/>
      <point x="143.0" y="508.0" type="curve" smooth="yes"/>
      <point x="143.0" y="499.0"/>
      <point x="139.0" y="494.0"/>
      <point x="130.0" y="486.0" type="curve" smooth="yes"/>
      <point x="9.0" y="384.0" type="line"/>
      <point x="9.0" y="270.0" type="line"/>
    </contour>
  </outline>
</glyph>
<glyph name="uni00B3" format="1">
  <advance width="271.0"/>
  <unicode hex="00B3"/>
  <outline>
    <contour>
      <point x="196.0" y="459.0" type="line"/>
      <point x="237.0" y="470.0"/>
      <point x="251.0" y="499.0"/>
      <point x="251.0" y="539.0" type="curve" smooth="yes"/>
      <point x="251.0" y="601.0"/>
      <point x="213.0" y="632.0"/>
      <point x="144.0" y="632.0" type="curve"/>
      <point x="98.0" y="632.0"/>
      <point x="42.0" y="625.0"/>
      <point x="16.0" y="617.0" type="curve"/>
      <point x="16.0" y="519.0" type="line"/>
      <point x="35.0" y="523.0"/>
      <point x="81.0" y="528.0"/>
      <point x="105.0" y="528.0" type="curve"/>
      <point x="128.0" y="528.0"/>
      <point x="132.0" y="522.0"/>
      <point x="132.0" y="514.0" type="curve"/>
      <point x="132.0" y="505.0"/>
      <point x="127.0" y="500.0"/>
      <point x="108.0" y="500.0" type="curve" smooth="yes"/>
      <point x="45.0" y="500.0" type="line"/>
      <point x="45.0" y="402.0" type="line"/>
      <point x="123.0" y="402.0" type="line" smooth="yes"/>
      <point x="138.0" y="402.0"/>
      <point x="143.0" y="398.0"/>
      <point x="143.0" y="388.0" type="curve" smooth="yes"/>
      <point x="143.0" y="377.0"/>
      <point x="138.0" y="372.0"/>
      <point x="113.0" y="372.0" type="curve"/>
      <point x="79.0" y="372.0"/>
      <point x="44.0" y="372.0"/>
      <point x="11.0" y="378.0" type="curve"/>
      <point x="11.0" y="276.0" type="line"/>
      <point x="31.0" y="269.0"/>
      <point x="78.0" y="263.0"/>
      <point x="126.0" y="263.0" type="curve"/>
      <point x="203.0" y="263.0"/>
      <point x="262.0" y="297.0"/>
      <point x="262.0" y="374.0" type="curve"/>
      <point x="262.0" y="423.0"/>
      <point x="242.0" y="453.0"/>
      <point x="196.0" y="457.0" type="curve"/>
    </contour>
  </outline>
</glyph>
<glyph name="acute" format="1">
  <advance width="431.0"/>
  <unicode hex="00B4"/>
  <outline>
    <contour>
      <point x="381.0" y="672.0" type="line"/>
      <point x="158.0" y="672.0" type="line"/>
      <point x="50.0" y="530.0" type="line"/>
      <point x="216.0" y="530.0" type="line"/>
    </contour>
    <contour>
      <point x="171" y="530" type="move" name="_top"/>
    </contour>
  </outline>
</glyph>
<glyph name="paragraph" format="1">
  <advance width="496.0"/>
  <unicode hex="00B6"/>
  <outline>
    <contour>
      <point x="468.0" y="26.0" type="curve" smooth="yes"/>
      <point x="468.0" y="627.0" type="line"/>
      <point x="446.0" y="629.0"/>
      <point x="370.0" y="639.0"/>
      <point x="273.0" y="639.0" type="curve" smooth="yes"/>
      <point x="73.0" y="639.0"/>
      <point x="11.0" y="571.0"/>
      <point x="11.0" y="381.0" type="curve" smooth="yes"/>
      <point x="11.0" y="197.0"/>
      <point x="64.0" y="133.0"/>
      <point x="211.0" y="133.0" type="curve" smooth="yes"/>
      <point x="223.0" y="133.0"/>
      <point x="236.0" y="133.0"/>
      <point x="248.0" y="134.0" type="curve"/>
      <point x="248.0" y="39.0" type="line" smooth="yes"/>
      <point x="248.0" y="25.0"/>
      <point x="238.0" y="20.0"/>
      <point x="226.0" y="20.0" type="curve" smooth="yes"/>
      <point x="220.0" y="20.0"/>
      <point x="209.0" y="21.0"/>
      <point x="203.0" y="22.0" type="curve"/>
      <point x="203.0" y="-155.0" type="line"/>
      <point x="217.0" y="-158.0"/>
      <point x="247.0" y="-162.0"/>
      <point x="289.0" y="-162.0" type="curve"/>
      <point x="396.0" y="-162.0"/>
      <point x="468.0" y="-102.0"/>
    </contour>
    <contour>
      <point x="208.0" y="384.0" type="curve"/>
      <point x="208.0" y="441.0"/>
      <point x="216.0" y="446.0"/>
      <point x="232.0" y="446.0" type="curve"/>
      <point x="236.0" y="446.0"/>
      <point x="241.0" y="446.0"/>
      <point x="248.0" y="445.0" type="curve"/>
      <point x="248.0" y="330.0" type="line"/>
      <point x="240.0" y="328.0"/>
      <point x="236.0" y="328.0"/>
      <point x="232.0" y="328.0" type="curve"/>
      <point x="215.0" y="328.0"/>
      <point x="208.0" y="333.0"/>
    </contour>
  </outline>
</glyph>
<glyph name="ordmasculine" format="1">
  <advance width="329.0"/>
  <unicode hex="00BA"/>
  <outline>
    <contour>
      <point x="21.0" y="220.0" type="line"/>
      <point x="307.0" y="220.0" type="line"/>
      <point x="307.0" y="318.0" type="line"/>
      <point x="21.0" y="318.0" type="line"/>
    </contour>
    <contour>
      <point x="166.0" y="347.0" type="curve" smooth="yes"/>
      <point x="267.0" y="347.0"/>
      <point x="314.0" y="393.0"/>
      <point x="314.0" y="492.0" type="curve" smooth="yes"/>
      <point x="314.0" y="588.0"/>
      <point x="266.0" y="636.0"/>
      <point x="166.0" y="636.0" type="curve" smooth="yes"/>
      <point x="64.0" y="636.0"/>
      <point x="16.0" y="590.0"/>
      <point x="16.0" y="492.0" type="curve" smooth="yes"/>
      <point x="16.0" y="394.0"/>
      <point x="65.0" y="347.0"/>
    </contour>
    <contour>
      <point x="166.0" y="452.0" type="curve" smooth="yes"/>
      <point x="139.0" y="452.0"/>
      <point x="129.0" y="464.0"/>
      <point x="129.0" y="493.0" type="curve" smooth="yes"/>
      <point x="129.0" y="524.0"/>
      <point x="138.0" y="534.0"/>
      <point x="166.0" y="534.0" type="curve" smooth="yes"/>
      <point x="191.0" y="534.0"/>
      <point x="201.0" y="523.0"/>
      <point x="201.0" y="493.0" type="curve" smooth="yes"/>
      <point x="201.0" y="463.0"/>
      <point x="192.0" y="452.0"/>
    </contour>
  </outline>
</glyph>
<glyph name="AE" format="2">
  <advance width="767"/>
  <unicode hex="00C6"/>
  <anchor x="415.0" y="645.0" name="top"/>
  <outline>
    <contour>
      <point x="-10.0" y="0.0" type="line"/>
      <point x="219.0" y="0.0" type="line"/>
      <point x="283.0" y="252.0" type="line" smooth="yes"/>
      <point x="298.0" y="313.0"/>
      <point x="347.0" y="500.0"/>
      <point x="370.0" y="627.0" type="curve"/>
      <point x="206.0" y="627.0" type="line"/>
    </contour>
    <contour>
      <point x="615.0" y="0.0" type="line"/>
      <point x="442.0" y="627.0" type="line"/>
      <point x="265.0" y="627.0" type="line"/>
      <point x="291.0" y="494.0"/>
      <point x="340.0" y="314.0"/>
      <point x="356.0" y="252.0" type="curve" smooth="yes"/>
      <point x="422.0" y="0.0" type="line"/>
    </contour>
    <contour>
      <point x="158.0" y="64.0" type="line"/>
      <point x="463.0" y="64.0" type="line"/>
      <point x="463.0" y="236.0" type="line"/>
      <point x="158.0" y="236.0" type="line"/>
    </contour>
    <contour>
      <point x="423.0" y="434.0" type="line"/>
      <point x="740.0" y="434.0" type="line"/>
      <point x="740.0" y="627.0" type="line"/>
      <point x="423.0" y="627.0" type="line"/>
    </contour>
    <contour>
      <point x="493.0" y="224.0" type="line"/>
      <point x="703.0" y="224.0" type="line"/>
      <point x="703.0" y="407.0" type="line"/>
      <point x="493.0" y="407.0" type="line"/>
    </contour>
    <contour>
      <point x="554.0" y="0.0" type="line"/>
      <point x="749.0" y="0.0" type="line"/>
      <point x="749.0" y="197.0" type="line"/>
      <point x="554.0" y="197.0" type="line"/>
    </contour>
  </outline>
</glyph>
<glyph name="multiply" format="2">
  <advance width="500"/>
  <unicode hex="00D7"/>
  <outline>
    <contour>
      <point x="475.0" y="428.0" type="line"/>
      <point x="356.0" y="547.0" type="line"/>
      <point x="25.0" y="216.0" type="line"/>
      <point x="144.0" y="97.0" type="line"/>
    </contour>
    <contour>
      <point x="148.0" y="547.0" type="line"/>
      <point x="26.0" y="424.0" type="line"/>
      <point x="354.0" y="96.0" type="line"/>
      <point x="477.0" y="218.0" type="line"/>
    </contour>
  </outline>
</glyph>
<glyph name="Oslash" format="2">
  <advance width="647"/>
  <unicode hex="00D8"/>
  <anchor x="323.0" y="655" name="top"/>
  <outline>
    <contour>
      <point x="31.0" y="-5.0" type="line"/>
      <point x="149.0" y="-83.0" type="line"/>
      <point x="273.0" y="106.0" type="line"/>
      <point x="152.0" y="180.0" type="line"/>
    </contour>
    <contour>
      <point x="502.0" y="456.0" type="line"/>
      <point x="620.0" y="635.0" type="line"/>
      <point x="500.0" y="712.0" type="line"/>
      <point x="384.0" y="537.0" type="line"/>
    </contour>
    <contour>
      <point x="273.0" y="106.0" type="line"/>
      <point x="310.0" y="164.0" type="line"/>
      <point x="192.0" y="245.0" type="line"/>
      <point x="152.0" y="180.0" type="line"/>
    </contour>
    <component base="O"/>
  </outline>
</glyph>
<glyph name="Thorn" format="1">
  <advance width="569.0"/>
  <unicode hex="00DE"/>
  <outline>
    <contour>
      <point x="274.0" y="79.0" type="line" smooth="yes"/>
      <point x="466.0" y="79.0"/>
      <point x="558.0" y="150.0"/>
      <point x="558.0" y="319.0" type="curve"/>
      <point x="558.0" y="495.0"/>
      <point x="475.0" y="554.0"/>
      <point x="271.0" y="554.0" type="curve" smooth="yes"/>
      <point x="187.0" y="554.0" type="line"/>
      <point x="187.0" y="349.0" type="line"/>
      <point x="291.0" y="349.0" type="line" smooth="yes"/>
      <point x="308.0" y="349.0"/>
      <point x="327.0" y="345.0"/>
      <point x="327.0" y="312.0" type="curve"/>
      <point x="327.0" y="278.0"/>
      <point x="309.0" y="274.0"/>
      <point x="291.0" y="274.0" type="curve" smooth="yes"/>
      <point x="187.0" y="274.0" type="line"/>
      <point x="187.0" y="79.0" type="line"/>
    </contour>
    <contour>
      <point x="253.0" y="0.0" type="line"/>
      <point x="253.0" y="627.0" type="line"/>
      <point x="26.0" y="627.0" type="line"/>
      <point x="26.0" y="0.0" type="line"/>
    </contour>
  </outline>
</glyph>
<glyph name="germandbls" format="2">
  <advance width="604"/>
  <unicode hex="00DF"/>
  <outline>
    <contour>
      <point x="260.0" y="677.0" type="curve"/>
      <point x="115.0" y="677.0"/>
      <point x="21.0" y="612.0"/>
      <point x="21.0" y="482.0" type="curve"/>
      <point x="21.0" y="0.0" type="line"/>
      <point x="241.0" y="0.0" type="line"/>
      <point x="241.0" y="476.0" type="line" smooth="yes"/>
      <point x="241.0" y="487.0"/>
      <point x="248.0" y="495.0"/>
      <point x="263.0" y="495.0" type="curve"/>
      <point x="280.0" y="495.0"/>
      <point x="286.0" y="488.0"/>
      <point x="286.0" y="477.0" type="curve" smooth="yes"/>
      <point x="286.0" y="475.0"/>
      <point x="285.0" y="466.0"/>
      <point x="284.0" y="458.0" type="curve" smooth="yes"/>
      <point x="259.0" y="228.0" type="line"/>
      <point x="376.0" y="203.0" type="line" smooth="yes"/>
      <point x="385.7332974862934" y="200.92023557985183"/>
      <point x="389.0" y="199.0"/>
      <point x="389.0" y="191.0" type="curve"/>
      <point x="389.0" y="184.125"/>
      <point x="385.75" y="180.0"/>
      <point x="376.0" y="180.0" type="curve" smooth="yes"/>
      <point x="353.2738095238095" y="180.0"/>
      <point x="318.6945670993557" y="183.03524225776664"/>
      <point x="293.0" y="186.0" type="curve"/>
      <point x="293.0" y="2.0" type="line"/>
      <point x="328.0" y="-3.0"/>
      <point x="375.0" y="-10.0"/>
      <point x="428.0" y="-10.0" type="curve" smooth="yes"/>
      <point x="525.0" y="-10.0"/>
      <point x="594.0" y="36.0"/>
      <point x="594.0" y="177.0" type="curve"/>
      <point x="594.0" y="286.0"/>
      <point x="569.0" y="325.0"/>
      <point x="508.0" y="337.0" type="curve" smooth="yes"/>
      <point x="477.0" y="343.0" type="line"/>
      <point x="494.0" y="479.0" type="line" smooth="yes"/>
      <point x="495.8059729957944" y="493.4477839663549"/>
      <point x="498.0" y="520.0"/>
      <point x="498.0" y="530.0" type="curve" smooth="yes"/>
      <point x="498.0" y="611.0"/>
      <point x="445.0" y="677.0"/>
    </contour>
  </outline>
</glyph>
<glyph name="ae" format="1">
  <advance width="708.0"/>
  <unicode hex="00E6"/>
  <outline>
    <contour>
      <point x="473.0" y="344.0" type="curve"/>
      <point x="499.0" y="344.0"/>
      <point x="502.0" y="333.0"/>
      <point x="504.0" y="319.0" type="curve" smooth="yes"/>
      <point x="505.0" y="308.0"/>
      <point x="505.0" y="302.0"/>
      <point x="505.0" y="296.0" type="curve"/>
      <point x="442.0" y="296.0" type="line"/>
      <point x="442.0" y="319.0"/>
      <point x="443.0" y="344.0"/>
    </contour>
    <contour>
      <point x="675.0" y="21.0" type="curve"/>
      <point x="675.0" y="181.0" type="line"/>
      <point x="651.0" y="177.0"/>
      <point x="577.0" y="168.0"/>
      <point x="493.0" y="168.0" type="curve"/>
      <point x="452.0" y="168.0"/>
      <point x="443.0" y="178.0"/>
      <point x="442.0" y="199.0" type="curve"/>
      <point x="691.0" y="199.0" type="line"/>
      <point x="695.0" y="236.0"/>
      <point x="696.0" y="262.0"/>
      <point x="696.0" y="308.0" type="curve"/>
      <point x="696.0" y="428.0"/>
      <point x="651.3362831858407" y="504.0"/>
      <point x="490.0" y="504.0" type="curve"/>
      <point x="328.22222222222223" y="504.0"/>
      <point x="256.0" y="418.0"/>
      <point x="256.0" y="244.0" type="curve" smooth="yes"/>
      <point x="256.0" y="67.0"/>
      <point x="319.42857142857144" y="-12.0"/>
      <point x="478.0" y="-12.0" type="curve"/>
      <point x="580.5852534562212" y="-12.0"/>
      <point x="651.9726226980647" y="11.7890490792259"/>
    </contour>
    <contour>
      <point x="9.0" y="144.0" type="curve"/>
      <point x="9.0" y="36.0"/>
      <point x="47.0" y="-12.0"/>
      <point x="147.0" y="-12.0" type="curve"/>
      <point x="222.0" y="-12.0"/>
      <point x="283.0" y="17.0"/>
      <point x="319.0" y="53.0" type="curve"/>
      <point x="284.0" y="151.0" type="line"/>
      <point x="276.2682472879689" y="143.2682472879689"/>
      <point x="252.52307692307693" y="133.0"/>
      <point x="222.0" y="133.0" type="curve"/>
      <point x="204.6315789473684" y="133.0"/>
      <point x="200.0" y="141.0"/>
      <point x="200.0" y="157.0" type="curve" smooth="yes"/>
      <point x="200.0" y="172.0"/>
      <point x="205.78947368421052" y="180.0"/>
      <point x="222.0" y="180.0" type="curve"/>
      <point x="245.77049180327867" y="180.0"/>
      <point x="268.40537514658223" y="177.7297499022785"/>
      <point x="280.0" y="170.0" type="curve"/>
      <point x="280.0" y="276.0" type="line"/>
      <point x="259.0" y="283.0"/>
      <point x="222.0" y="287.0"/>
      <point x="178.0" y="287.0" type="curve"/>
      <point x="68.0" y="287.0"/>
      <point x="9.0" y="248.0"/>
    </contour>
    <contour>
      <point x="426.0" y="340.0" type="line"/>
      <point x="426.0" y="453.0"/>
      <point x="355.0" y="504.0"/>
      <point x="226.0" y="504.0" type="curve"/>
      <point x="158.85869565217394" y="504.0"/>
      <point x="95.61590331129977" y="495.48171811115213"/>
      <point x="52.0" y="486.0" type="curve"/>
      <point x="52.0" y="307.0" type="line"/>
      <point x="89.0" y="313.0"/>
      <point x="123.0" y="316.0"/>
      <point x="179.0" y="316.0" type="curve"/>
      <point x="242.0" y="316.0"/>
      <point x="256.0" y="309.0"/>
      <point x="256.0" y="292.0" type="curve" smooth="yes"/>
      <point x="256.0" y="212.0" type="line"/>
    </contour>
    <contour>
      <point x="375.0" y="530.0" type="move" name="top"/>
    </contour>
  </outline>
</glyph>
<glyph name="oslash" format="2">
  <advance width="541"/>
  <unicode hex="00F8"/>
  <guideline x="519" y="226" angle="90.0" identifier="CNH78KHfHZ"/>
  <anchor x="270.0" y="530.0" name="top"/>
  <outline>
    <contour>
      <point x="6.0" y="-15.0" type="line"/>
      <point x="124.0" y="-96.0" type="line"/>
      <point x="221.0" y="45.0" type="line"/>
      <point x="175.0" y="212.0" type="line"/>
      <point x="286.0" y="373.0" type="line"/>
      <point x="437.0" y="360.0" type="line"/>
      <point x="537.0" y="507.0" type="line"/>
      <point x="418.0" y="586.0" type="line"/>
      <point x="331.0" y="458.0" type="line"/>
      <point x="299.0" y="399.0" type="line"/>
      <point x="163.0" y="204.0" type="line"/>
      <point x="89.0" y="106.0" type="line"/>
    </contour>
    <component base="o"/>
  </outline>
</glyph>
<glyph name="Dcroat" format="1">
  <advance width="658.0"/>
  <unicode hex="0110"/>
  <outline>
    <contour>
      <point x="381.0" y="246.0" type="line"/>
      <point x="381.0" y="394.0" type="line"/>
      <point x="9.0" y="394.0" type="line"/>
      <point x="9.0" y="246.0" type="line"/>
    </contour>
    <component base="D" xOffset="53.0"/>
  </outline>
</glyph>
<glyph name="Hbar" format="1">
  <advance width="684.0"/>
  <unicode hex="0126"/>
  <outline>
    <contour>
      <point x="673.0" y="455.0" type="line"/>
      <point x="673.0" y="566.0" type="line"/>
      <point x="11.0" y="566.0" type="line"/>
      <point x="11.0" y="455.0" type="line"/>
    </contour>
    <component base="H" xOffset="35.0"/>
  </outline>
</glyph>
<glyph name="hbar" format="2">
  <advance width="525"/>
  <unicode hex="0127"/>
  <outline>
    <contour>
      <point x="339.0" y="516.0" type="line"/>
      <point x="339.0" y="624.0" type="line"/>
      <point x="-63.0" y="624.0" type="line"/>
      <point x="-63.0" y="516.0" type="line"/>
    </contour>
    <contour>
      <point x="21.0" y="0.0" type="line"/>
      <point x="241.0" y="0.0" type="line"/>
      <point x="241.0" y="665.0" type="line"/>
      <point x="21.0" y="665.0" type="line"/>
    </contour>
    <contour>
      <point x="201.0" y="277.0" type="line"/>
      <point x="215.0" y="291.0"/>
      <point x="238.0" y="306.0"/>
      <point x="265.0" y="306.0" type="curve"/>
      <point x="282.0" y="306.0"/>
      <point x="286.0" y="296.0"/>
      <point x="286.0" y="282.0" type="curve" smooth="yes"/>
      <point x="286.0" y="0.0" type="line"/>
      <point x="506.0" y="0.0" type="line"/>
      <point x="506.0" y="342.0" type="line" smooth="yes"/>
      <point x="506.0" y="451.0"/>
      <point x="454.0" y="504.0"/>
      <point x="363.0" y="504.0" type="curve"/>
      <point x="293.0" y="504.0"/>
      <point x="241.0" y="477.0"/>
      <point x="201.0" y="408.0" type="curve"/>
    </contour>
  </outline>
</glyph>
<glyph name="dotlessi" format="2">
  <advance width="262"/>
  <unicode hex="0131"/>
  <guideline x="117" y="494" angle="90" name="mid" identifier="kYCfujb8jH"/>
  <anchor x="131.0" y="530" name="top"/>
  <outline>
    <contour>
      <point x="21.0" y="0.0" type="line"/>
      <point x="241.0" y="0.0" type="line"/>
      <point x="241.0" y="494.0" type="line"/>
      <point x="21.0" y="494.0" type="line"/>
    </contour>
  </outline>
</glyph>
<glyph name="Lslash" format="2">
  <advance width="509"/>
  <unicode hex="0141"/>
  <outline>
    <contour>
      <point x="405.0" y="316.0" type="line"/>
      <point x="405.0" y="467.0" type="line"/>
      <point x="11.0" y="355.0" type="line"/>
      <point x="11.0" y="204.0" type="line"/>
    </contour>
    <component base="L" xOffset="55"/>
  </outline>
</glyph>
<glyph name="lslash" format="2">
  <advance width="372"/>
  <unicode hex="0142"/>
  <outline>
    <contour>
      <point x="364.0" y="308.0" type="line"/>
      <point x="364.0" y="455.0" type="line"/>
      <point x="11.0" y="347.0" type="line"/>
      <point x="11.0" y="200.0" type="line"/>
    </contour>
    <component base="l" xOffset="54"/>
  </outline>
</glyph>
<glyph name="Eng" format="1">
  <advance width="629.0"/>
  <unicode hex="014A"/>
  <outline>
    <contour>
      <point x="603.0" y="-4.0" type="curve" smooth="yes"/>
      <point x="603.0" y="627.0" type="line"/>
      <point x="392.0" y="627.0" type="line"/>
      <point x="392.0" y="364.0" type="line"/>
      <point x="235.0" y="627.0" type="line"/>
      <point x="26.0" y="627.0" type="line"/>
      <point x="26.0" y="0.0" type="line"/>
      <point x="238.0" y="0.0" type="line"/>
      <point x="238.0" y="242.0" type="line"/>
      <point x="383.0" y="27.0" type="line"/>
      <point x="383.0" y="16.0"/>
      <point x="377.0" y="11.0"/>
      <point x="360.0" y="11.0" type="curve" smooth="yes"/>
      <point x="354.0" y="11.0"/>
      <point x="351.0" y="11.0"/>
      <point x="342.0" y="12.0" type="curve"/>
      <point x="342.0" y="-163.0" type="line"/>
      <point x="354.0" y="-165.0"/>
      <point x="375.0" y="-169.0"/>
      <point x="420.0" y="-169.0" type="curve"/>
      <point x="524.0" y="-169.0"/>
      <point x="603.0" y="-119.0"/>
    </contour>
  </outline>
</glyph>
<glyph name="eng" format="2">
  <advance width="525"/>
  <unicode hex="014B"/>
  <guideline x="356" y="90" angle="90.0" identifier="mhHjKK9fhh"/>
  <outline>
    <contour>
      <point x="21.0" y="0.0" type="line"/>
      <point x="241.0" y="0.0" type="line"/>
      <point x="241.0" y="441.0" type="line"/>
      <point x="219.0" y="441.0" type="line"/>
      <point x="211.0" y="494.0" type="line"/>
      <point x="21.0" y="494.0" type="line"/>
    </contour>
    <contour>
      <point x="506.0" y="3.0" type="curve"/>
      <point x="506.0" y="342.0" type="line" smooth="yes"/>
      <point x="506.0" y="451.0"/>
      <point x="454.0" y="504.0"/>
      <point x="363.0" y="504.0" type="curve"/>
      <point x="292.0" y="504.0"/>
      <point x="241.06826509467203" y="478.11605066094245"/>
      <point x="201.0" y="410.0" type="curve"/>
      <point x="201.0" y="277.0" type="line"/>
      <point x="215.1133548314841" y="291.1133548314841"/>
      <point x="237.10975609756096" y="306.0"/>
      <point x="264.0" y="306.0" type="curve" smooth="yes"/>
      <point x="281.741935483871" y="306.0"/>
      <point x="286.0" y="296.0"/>
      <point x="286.0" y="282.0" type="curve"/>
      <point x="286.0" y="34.0" type="line" smooth="yes"/>
      <point x="286.0" y="23.0"/>
      <point x="282.3478260869565" y="18.0"/>
      <point x="272.0" y="18.0" type="curve" smooth="yes"/>
      <point x="266.0" y="18.0"/>
      <point x="263.0" y="18.0"/>
      <point x="254.0" y="19.0" type="curve"/>
      <point x="254.0" y="-156.0" type="line"/>
      <point x="264.6870016384441" y="-157.78116693974067"/>
      <point x="283.1923076923077" y="-162.0"/>
      <point x="323.0" y="-162.0" type="curve"/>
      <point x="427.0" y="-162.0"/>
      <point x="506.0" y="-112.0"/>
    </contour>
  </outline>
</glyph>
<glyph name="OE" format="1">
  <advance width="825.0"/>
  <unicode hex="0152"/>
  <outline>
    <contour>
      <point x="312.0" y="-12.0" type="curve"/>
      <point x="526.0" y="-12.0"/>
      <point x="596.0" y="90.0"/>
      <point x="596.0" y="313.0" type="curve"/>
      <point x="596.0" y="540.0"/>
      <point x="534.0" y="637.0"/>
      <point x="312.0" y="637.0" type="curve"/>
      <point x="98.0" y="637.0"/>
      <point x="14.0" y="535.0"/>
      <point x="14.0" y="313.0" type="curve"/>
      <point x="14.0" y="85.0"/>
      <point x="91.0" y="-12.0"/>
    </contour>
    <contour>
      <point x="312.0" y="200.0" type="curve"/>
      <point x="259.0" y="200.0"/>
      <point x="244.0" y="225.0"/>
      <point x="244.0" y="313.0" type="curve"/>
      <point x="244.0" y="405.0"/>
      <point x="259.0" y="432.0"/>
      <point x="312.0" y="432.0" type="curve"/>
      <point x="366.0" y="432.0"/>
      <point x="381.0" y="405.0"/>
      <point x="381.0" y="313.0" type="curve"/>
      <point x="381.0" y="225.0"/>
      <point x="366.0" y="200.0"/>
    </contour>
    <contour>
      <point x="571.0" y="434.0" type="line"/>
      <point x="798.0" y="434.0" type="line"/>
      <point x="798.0" y="627.0" type="line"/>
      <point x="371.0" y="627.0" type="line"/>
    </contour>
    <contour>
      <point x="572.0" y="224.0" type="line"/>
      <point x="761.0" y="224.0" type="line"/>
      <point x="761.0" y="407.0" type="line"/>
      <point x="572.0" y="407.0" type="line"/>
    </contour>
    <contour>
      <point x="371.0" y="0.0" type="line"/>
      <point x="807.0" y="0.0" type="line"/>
      <point x="807.0" y="197.0" type="line"/>
      <point x="571.0" y="197.0" type="line"/>
    </contour>
  </outline>
</glyph>
<glyph name="oe" format="2">
  <advance width="775"/>
  <unicode hex="0153"/>
  <guideline x="175.0" y="0.0" angle="90.0" identifier="4dGxZFSxab"/>
  <guideline x="359.0" y="0.0" angle="90.0" identifier="CVjF7NFFVy"/>
  <guideline x="503.0" y="0.0" angle="90.0" identifier="y0q2MxDXii"/>
  <outline>
    <contour>
      <point x="250.0" y="-12.0" type="curve"/>
      <point x="411.2028985507246" y="-12.0"/>
      <point x="477.0" y="61.0"/>
      <point x="477.0" y="246.0" type="curve"/>
      <point x="477.0" y="425.0"/>
      <point x="407.9130434782609" y="504.0"/>
      <point x="250.0" y="504.0" type="curve"/>
      <point x="90.0" y="504.0"/>
      <point x="11.0" y="431.0"/>
      <point x="11.0" y="246.0" type="curve"/>
      <point x="11.0" y="67.0"/>
      <point x="94.0" y="-12.0"/>
    </contour>
    <contour>
      <point x="270.0" y="192.0" type="curve"/>
      <point x="240.0" y="192.0"/>
      <point x="231.0" y="205.0"/>
      <point x="231.0" y="249.0" type="curve"/>
      <point x="231.0" y="293.0"/>
      <point x="240.0" y="306.0"/>
      <point x="270.0" y="306.0" type="curve"/>
      <point x="301.0" y="306.0"/>
      <point x="310.0" y="293.0"/>
      <point x="310.0" y="249.0" type="curve"/>
      <point x="310.0" y="205.0"/>
      <point x="301.0" y="192.0"/>
    </contour>
    <contour>
      <point x="540.0" y="344.0" type="curve"/>
      <point x="566.0" y="344.0"/>
      <point x="569.0" y="333.0"/>
      <point x="571.0" y="319.0" type="curve" smooth="yes"/>
      <point x="572.0" y="308.0"/>
      <point x="572.0" y="302.0"/>
      <point x="572.0" y="296.0" type="curve"/>
      <point x="509.0" y="296.0" type="line"/>
      <point x="509.0" y="319.0"/>
      <point x="510.0" y="344.0"/>
    </contour>
    <contour>
      <point x="742.0" y="21.0" type="curve"/>
      <point x="742.0" y="181.0" type="line"/>
      <point x="718.0" y="177.0"/>
      <point x="644.0" y="168.0"/>
      <point x="560.0" y="168.0" type="curve"/>
      <point x="519.0" y="168.0"/>
      <point x="510.0" y="178.0"/>
      <point x="509.0" y="199.0" type="curve"/>
      <point x="758.0" y="199.0" type="line"/>
      <point x="762.0" y="236.0"/>
      <point x="763.0" y="262.0"/>
      <point x="763.0" y="308.0" type="curve"/>
      <point x="763.0" y="428.0"/>
      <point x="718.3362831858407" y="504.0"/>
      <point x="557.0" y="504.0" type="curve"/>
      <point x="412.2105263157895" y="504.0"/>
      <point x="347.0" y="418.0"/>
      <point x="347.0" y="244.0" type="curve" smooth="yes"/>
      <point x="347.0" y="67.0"/>
      <point x="403.4438202247191" y="-12.0"/>
      <point x="544.0" y="-12.0" type="curve"/>
      <point x="647.1059907834101" y="-12.0"/>
      <point x="718.8746956381857" y="11.749878255274277"/>
    </contour>
  </outline>
</glyph>
<glyph name="Tbar" format="1">
  <advance width="525.0"/>
  <unicode hex="0166"/>
  <outline>
    <contour>
      <point x="475.0" y="202.0" type="line"/>
      <point x="475.0" y="350.0" type="line"/>
      <point x="50.0" y="350.0" type="line"/>
      <point x="50.0" y="202.0" type="line"/>
    </contour>
    <component base="T" xOffset="4.0"/>
  </outline>
</glyph>
<glyph name="tbar" format="2">
  <advance width="394"/>
  <unicode hex="0167"/>
  <outline>
    <contour>
      <point x="377.0" y="217.0" type="line"/>
      <point x="377.0" y="295.0" type="line"/>
      <point x="12.0" y="295.0" type="line"/>
      <point x="12.0" y="217.0" type="line"/>
    </contour>
    <component base="t" xOffset="1"/>
  </outline>
</glyph>
<glyph name="uni018F" format="1">
  <advance width="577.0"/>
  <unicode hex="018F"/>
  <outline>
    <contour>
      <point x="564.0" y="314.0" type="curve" smooth="yes"/>
      <point x="564.0" y="521.0"/>
      <point x="485.0" y="637.0"/>
      <point x="268.0" y="637.0" type="curve"/>
      <point x="182.0" y="637.0"/>
      <point x="108.18604713746646" y="627.0361758322852"/>
      <point x="72.0" y="620.0" type="curve"/>
      <point x="72.0" y="423.0" type="line"/>
      <point x="116.20156414669466" y="427.91128490518827"/>
      <point x="173.0" y="432.0"/>
      <point x="236.0" y="432.0" type="curve"/>
      <point x="317.6333333333333" y="432.0"/>
      <point x="329.0" y="410.0"/>
      <point x="329.0" y="306.0" type="curve" smooth="yes"/>
      <point x="329.0" y="218.76521739130436"/>
      <point x="324.0" y="192.0"/>
      <point x="282.0" y="192.0" type="curve"/>
      <point x="254.0" y="192.0"/>
      <point x="239.0" y="204.0"/>
      <point x="239.0" y="231.0" type="curve"/>
      <point x="239.0" y="235.0"/>
      <point x="239.0" y="241.0"/>
      <point x="240.0" y="247.0" type="curve"/>
      <point x="403.0" y="247.0" type="line"/>
      <point x="403.0" y="393.0" type="line"/>
      <point x="24.0" y="393.0" type="line"/>
      <point x="17.243729099693624" y="342.8105590262955"/>
      <point x="13.0" y="313.9078014184397"/>
      <point x="13.0" y="257.0" type="curve"/>
      <point x="13.0" y="76.0"/>
      <point x="100.0" y="-12.0"/>
      <point x="267.0" y="-12.0" type="curve"/>
      <point x="465.0" y="-12.0"/>
      <point x="564.0" y="80.0"/>
    </contour>
  </outline>
</glyph>
<glyph name="florin" format="1">
  <advance width="459.0"/>
  <unicode hex="0192"/>
  <outline>
    <contour>
      <point x="448.0" y="626.0" type="line"/>
      <point x="433.0" y="630.0"/>
      <point x="381.0" y="638.0"/>
      <point x="336.0" y="638.0" type="curve"/>
      <point x="198.0" y="638.0"/>
      <point x="137.0" y="592.0"/>
      <point x="115.0" y="461.0" type="curve" smooth="yes"/>
      <point x="13.0" y="-152.0" type="line"/>
      <point x="242.0" y="-152.0" type="line"/>
      <point x="334.0" y="401.0" type="line" smooth="yes"/>
      <point x="339.0" y="429.0"/>
      <point x="353.0" y="439.0"/>
      <point x="382.0" y="439.0" type="curve"/>
      <point x="403.0" y="439.0"/>
      <point x="422.0" y="437.0"/>
      <point x="448.0" y="435.0" type="curve"/>
    </contour>
    <contour>
      <point x="16.0" y="273.0" type="line"/>
      <point x="427.0" y="273.0" type="line"/>
      <point x="427.0" y="385.0" type="line"/>
      <point x="16.0" y="385.0" type="line"/>
    </contour>
  </outline>
</glyph>
<glyph name="uni01B5" format="2">
  <advance width="507"/>
  <unicode hex="01B5"/>
  <guideline x="456" y="450" angle="90.0" identifier="Fngkb07iGj"/>
  <outline>
    <contour>
      <point x="473.0" y="267.0" type="line"/>
      <point x="473.0" y="375.0" type="line"/>
      <point x="34.0" y="375.0" type="line"/>
      <point x="34.0" y="267.0" type="line"/>
    </contour>
    <component base="Z" xOffset="1"/>
  </outline>
</glyph>
<glyph name="uni01B6" format="2">
  <advance width="426"/>
  <unicode hex="01B6"/>
  <outline>
    <contour>
      <point x="392.0" y="222.0" type="line"/>
      <point x="392.0" y="291.0" type="line"/>
      <point x="32.0" y="291.0" type="line"/>
      <point x="32.0" y="222.0" type="line"/>
    </contour>
    <component base="z"/>
  </outline>
</glyph>
<glyph name="uni0237" format="2">
  <advance width="266"/>
  <unicode hex="0237"/>
  <guideline x="115" y="494" angle="90" name="mid" identifier="FPSaq3ObaA"/>
  <anchor x="136.0" y="530" name="top"/>
  <outline>
    <contour>
      <point x="-16.0" y="-156.0" type="line"/>
      <point x="-4.0" y="-158.0"/>
      <point x="17.0" y="-162.0"/>
      <point x="62.0" y="-162.0" type="curve"/>
      <point x="166.0" y="-162.0"/>
      <point x="245.0" y="-112.0"/>
      <point x="245.0" y="3.0" type="curve" smooth="yes"/>
      <point x="245.0" y="494.0" type="line"/>
      <point x="25.0" y="494.0" type="line"/>
      <point x="25.0" y="-1.0" type="line" smooth="yes"/>
      <point x="25.0" y="-12.0"/>
      <point x="19.0" y="-17.0"/>
      <point x="2.0" y="-17.0" type="curve" smooth="yes"/>
      <point x="-4.0" y="-17.0"/>
      <point x="-7.0" y="-17.0"/>
      <point x="-16.0" y="-16.0" type="curve"/>
    </contour>
  </outline>
</glyph>
<glyph name="circumflex" format="1">
  <advance width="490.0"/>
  <unicode hex="02C6"/>
  <outline>
    <contour>
      <point x="284.0" y="530.0" type="line"/>
      <point x="440.0" y="530.0" type="line"/>
      <point x="339.0" y="672.0" type="line"/>
      <point x="151.0" y="672.0" type="line"/>
      <point x="50.0" y="530.0" type="line"/>
      <point x="206.0" y="530.0" type="line"/>
      <point x="245.0" y="581.0" type="line"/>
    </contour>
    <contour>
      <point x="245" y="530" type="move" name="_top"/>
    </contour>
  </outline>
</glyph>
<glyph name="breve" format="2">
  <advance width="390"/>
  <unicode hex="02D8"/>
  <anchor x="196" y="530" name="_top"/>
  <outline>
    <contour>
      <point x="340.0" y="672.0" type="curve"/>
      <point x="220.0" y="672.0" type="line"/>
      <point x="220.0" y="642.0"/>
      <point x="211.0" y="634.0"/>
      <point x="196.0" y="634.0" type="curve" smooth="yes"/>
      <point x="180.0" y="634.0"/>
      <point x="170.0" y="642.0"/>
      <point x="170.0" y="672.0" type="curve"/>
      <point x="50.0" y="672.0" type="line"/>
      <point x="50.0" y="576.0"/>
      <point x="111.0" y="523.0"/>
      <point x="196.0" y="523.0" type="curve" smooth="yes"/>
      <point x="279.0" y="523.0"/>
      <point x="340.0" y="576.0"/>
    </contour>
  </outline>
</glyph>
<glyph name="dotaccent" format="2">
  <advance width="322"/>
  <unicode hex="02D9"/>
  <guideline x="119.0" y="0.0" angle="90.0" name="mid" identifier="MQVf02jIq4"/>
  <anchor x="164" y="530" name="_top"/>
  <outline>
    <contour>
      <point x="50.0" y="530.0" type="line"/>
      <point x="272.0" y="530.0" type="line"/>
      <point x="272.0" y="687.0" type="line"/>
      <point x="50.0" y="687.0" type="line"/>
    </contour>
  </outline>
</glyph>
<glyph name="ring" format="2">
  <advance width="347"/>
  <unicode hex="02DA"/>
  <anchor x="172.0" y="530.0" name="_top"/>
  <outline>
    <contour>
      <point x="172.0" y="612.0" type="curve" smooth="yes"/>
      <point x="154.0" y="612.0"/>
      <point x="142.0" y="622.0"/>
      <point x="142.0" y="637.0" type="curve" smooth="yes"/>
      <point x="142.0" y="652.0"/>
      <point x="154.0" y="662.0"/>
      <point x="172.0" y="662.0" type="curve" smooth="yes"/>
      <point x="192.0" y="662.0"/>
      <point x="204.0" y="652.0"/>
      <point x="204.0" y="637.0" type="curve" smooth="yes"/>
      <point x="204.0" y="622.0"/>
      <point x="192.0" y="612.0"/>
    </contour>
    <contour>
      <point x="172.0" y="523.0" type="curve" smooth="yes"/>
      <point x="248.0" y="523.0"/>
      <point x="298.0" y="565.0"/>
      <point x="298.0" y="637.0" type="curve" smooth="yes"/>
      <point x="298.0" y="710.0"/>
      <point x="249.0" y="750.0"/>
      <point x="172.0" y="750.0" type="curve" smooth="yes"/>
      <point x="96.0" y="750.0"/>
      <point x="47.0" y="710.0"/>
      <point x="47.0" y="637.0" type="curve" smooth="yes"/>
      <point x="47.0" y="565.0"/>
      <point x="97.0" y="523.0"/>
    </contour>
  </outline>
</glyph>
<glyph name="ogonek" format="1">
  <advance width="345.0"/>
  <unicode hex="02DB"/>
  <outline>
    <contour>
      <point x="295.0" y="9.0" type="curve"/>
      <point x="214.0" y="38.0" type="line"/>
      <point x="131.0" y="24.0"/>
      <point x="41.0" y="-10.0"/>
      <point x="41.0" y="-94.0" type="curve"/>
      <point x="41.0" y="-162.0"/>
      <point x="85.0" y="-195.0"/>
      <point x="167.0" y="-195.0" type="curve" smooth="yes"/>
      <point x="208.0" y="-195.0"/>
      <point x="237.0" y="-188.0"/>
      <point x="252.0" y="-184.0" type="curve"/>
      <point x="252.0" y="-71.0" type="line"/>
      <point x="242.0" y="-72.0"/>
      <point x="232.0" y="-72.0"/>
      <point x="223.0" y="-72.0" type="curve" smooth="yes"/>
      <point x="190.0" y="-72.0"/>
      <point x="178.0" y="-63.0"/>
      <point x="178.0" y="-46.0" type="curve"/>
      <point x="178.0" y="-11.0"/>
      <point x="246.0" y="2.0"/>
    </contour>
    <contour>
      <point x="295" y="9" type="move" name="_ogonek"/>
    </contour>
  </outline>
</glyph>
<glyph name="tilde" format="2">
  <advance width="413"/>
  <unicode hex="02DC"/>
  <guideline x="161.0" y="0.0" angle="90.0" name="mid" identifier="PZjGCG6Fh1"/>
  <guideline x="207" y="602" angle="90" name="mid" identifier="5Z0JekgQOt"/>
  <anchor x="207" y="530" name="_top"/>
  <outline>
    <contour>
      <point x="363.0" y="674.0" type="curve"/>
      <point x="259.0" y="674.0" type="line"/>
      <point x="259.0" y="664.0"/>
      <point x="259.0" y="648.0"/>
      <point x="245.0" y="648.0" type="curve"/>
      <point x="218.0" y="648.0"/>
      <point x="176.0" y="678.0"/>
      <point x="135.0" y="678.0" type="curve" smooth="yes"/>
      <point x="66.0" y="678.0"/>
      <point x="50.0" y="599.0"/>
      <point x="50.0" y="530.0" type="curve"/>
      <point x="154.0" y="530.0" type="line"/>
      <point x="154.0" y="543.0"/>
      <point x="154.0" y="561.0"/>
      <point x="167.0" y="561.0" type="curve"/>
      <point x="191.0" y="561.0"/>
      <point x="235.0" y="526.0"/>
      <point x="276.0" y="526.0" type="curve" smooth="yes"/>
      <point x="346.0" y="526.0"/>
      <point x="363.0" y="605.0"/>
    </contour>
  </outline>
</glyph>
<glyph name="hungarumlaut" format="2">
  <advance width="601"/>
  <unicode hex="02DD"/>
  <guideline x="247.0" y="0.0" angle="90.0" name="mid" identifier="dgOYEvnrTX"/>
  <anchor x="268" y="530" name="_top"/>
  <outline>
    <contour>
      <point x="342.0" y="672.0" type="line"/>
      <point x="152.0" y="672.0" type="line"/>
      <point x="44.0" y="530.0" type="line"/>
      <point x="193.0" y="530.0" type="line"/>
    </contour>
    <contour>
      <point x="547.0" y="672.0" type="line"/>
      <point x="356.0" y="672.0" type="line"/>
      <point x="249.0" y="530.0" type="line"/>
      <point x="398.0" y="530.0" type="line"/>
    </contour>
  </outline>
</glyph>
<glyph name="uni0312" format="1">
  <advance width="271.0"/>
  <unicode hex="0312"/>
  <outline>
    <contour>
      <point x="70.0" y="651.0" type="curve" smooth="yes"/>
      <point x="50.0" y="540.0" type="line"/>
      <point x="224.0" y="540.0" type="line"/>
      <point x="224.0" y="720.0" type="line"/>
      <point x="157.0" y="720.0" type="line" smooth="yes"/>
      <point x="111.0" y="720.0"/>
      <point x="77.0" y="693.0"/>
    </contour>
    <contour>
      <point x="137" y="530" type="move" name="_top"/>
    </contour>
  </outline>
</glyph>
<glyph name="uni0326" format="2">
  <advance width="271"/>
  <unicode hex="0326"/>
  <guideline x="104" y="-62" angle="90" name="mid" identifier="m7X7GXBDuW"/>
  <anchor x="137" y="0" name="_bottom"/>
  <outline>
    <contour>
      <point x="202.0" y="-145.0" type="curve" smooth="yes"/>
      <point x="222.0" y="-34.0" type="line"/>
      <point x="49.0" y="-34.0" type="line"/>
      <point x="49.0" y="-214.0" type="line"/>
      <point x="116.0" y="-214.0" type="line" smooth="yes"/>
      <point x="162.0" y="-214.0"/>
      <point x="196.0" y="-187.0"/>
    </contour>
  </outline>
</glyph>
<glyph name="uni0394" format="1">
  <advance width="618.0"/>
  <unicode hex="0394"/>
  <outline>
    <contour>
      <point x="468.0" y="0.0" type="line"/>
      <point x="603.0" y="0.0" type="line"/>
      <point x="603.0" y="212.0" type="line"/>
      <point x="426.0" y="627.0" type="line"/>
      <point x="217.0" y="627.0" type="line"/>
    </contour>
    <contour>
      <point x="150.0" y="0.0" type="line"/>
      <point x="401.0" y="627.0" type="line"/>
      <point x="192.0" y="627.0" type="line"/>
      <point x="15.0" y="212.0" type="line"/>
      <point x="15.0" y="0.0" type="line"/>
    </contour>
    <contour>
      <point x="127.0" y="212.0" type="line"/>
      <point x="127.0" y="0.0" type="line"/>
      <point x="485.0" y="0.0" type="line"/>
      <point x="485.0" y="212.0" type="line"/>
    </contour>
  </outline>
</glyph>
<glyph name="uni03BC" format="2">
  <advance width="533"/>
  <unicode hex="03BC"/>
  <outline>
    <contour>
      <point x="244.0" y="-4.0" type="curve"/>
      <point x="277.0" y="-4.0"/>
      <point x="301.90058215989603" y="11.11528370267892"/>
      <point x="317.0" y="37.0" type="curve"/>
      <point x="322.0" y="0.0" type="line"/>
      <point x="512.0" y="0.0" type="line"/>
      <point x="512.0" y="494.0" type="line"/>
      <point x="292.0" y="494.0" type="line"/>
      <point x="292.0" y="193.0" type="line"/>
      <point x="287.0946821997921" y="189.07574575983367"/>
      <point x="276.5" y="184.0"/>
      <point x="261.0" y="184.0" type="curve" smooth="yes"/>
      <point x="243.10526315789474" y="184.0"/>
      <point x="241.0" y="194.08333333333334"/>
      <point x="241.0" y="206.0" type="curve" smooth="yes"/>
      <point x="241.0" y="494.0" type="line"/>
      <point x="21.0" y="494.0" type="line"/>
      <point x="21.0" y="60.0" type="line" smooth="yes"/>
      <point x="21.0" y="-14.0"/>
      <point x="21.0" y="-86.0"/>
      <point x="47.0" y="-152.0" type="curve"/>
      <point x="254.0" y="-152.0" type="line"/>
      <point x="226.86073944261685" y="-107.41407194144197"/>
      <point x="217.0" y="-50.0"/>
      <point x="217.0" y="2.0" type="curve"/>
      <point x="221.14201038144523" y="-2.142010381445222"/>
      <point x="232.3" y="-4.0"/>
    </contour>
  </outline>
</glyph>
<glyph name="pi" format="1">
  <advance width="570.0"/>
  <unicode hex="03C0"/>
  <outline>
    <contour>
      <point x="17.0" y="494.0" type="line"/>
      <point x="17.0" y="289.0" type="line"/>
      <point x="555.0" y="289.0" type="line"/>
      <point x="555.0" y="494.0" type="line"/>
    </contour>
    <contour>
      <point x="499.0" y="230.0" type="curve" smooth="yes"/>
      <point x="499.0" y="355.0" type="line"/>
      <point x="299.0" y="355.0" type="line"/>
      <point x="299.0" y="134.0" type="line" smooth="yes"/>
      <point x="299.0" y="50.25"/>
      <point x="349.76" y="0.0"/>
      <point x="434.0" y="0.0" type="curve" smooth="yes"/>
      <point x="535.0" y="0.0" type="line"/>
      <point x="535.0" y="208.0" type="line"/>
      <point x="518.0" y="208.0" type="line" smooth="yes"/>
      <point x="502.0" y="208.0"/>
      <point x="499.0" y="216.0"/>
    </contour>
    <contour>
      <point x="227.0" y="0.0" type="line"/>
      <point x="241.0" y="52.0"/>
      <point x="279.0" y="161.0"/>
      <point x="272.0" y="355.0" type="curve"/>
      <point x="73.0" y="355.0" type="line"/>
      <point x="84.9959092390984" y="186.05761154936422"/>
      <point x="31.73243447614628" y="57.37924798465936"/>
      <point x="7.0" y="0.0" type="curve"/>
    </contour>
  </outline>
</glyph>
<glyph name="uni1E9E" format="2">
  <advance width="661"/>
  <unicode hex="1E9E"/>
  <outline>
    <contour>
      <point x="300.0" y="637.0" type="curve"/>
      <point x="121.0" y="637.0"/>
      <point x="23.0" y="577.0"/>
      <point x="23.0" y="424.0" type="curve" smooth="yes"/>
      <point x="23.0" y="0.0" type="line"/>
      <point x="250.0" y="0.0" type="line"/>
      <point x="250.0" y="411.0" type="line" smooth="yes"/>
      <point x="250.0" y="428.0"/>
      <point x="263.0" y="439.0"/>
      <point x="288.0" y="439.0" type="curve"/>
      <point x="307.0" y="439.0"/>
      <point x="317.0" y="438.0"/>
      <point x="325.0" y="436.0" type="curve"/>
      <point x="299.0" y="242.0" type="line"/>
      <point x="422.0" y="216.0" type="line" smooth="yes"/>
      <point x="432.96897136499473" y="213.6813556464239"/>
      <point x="438.0" y="211.66666666666666"/>
      <point x="438.0" y="203.0" type="curve" smooth="yes"/>
      <point x="438.0" y="195.41666666666666"/>
      <point x="435.0" y="190.0"/>
      <point x="417.0" y="190.0" type="curve" smooth="yes"/>
      <point x="384.0" y="190.0"/>
      <point x="341.0" y="192.0"/>
      <point x="308.0" y="196.0" type="curve"/>
      <point x="308.0" y="3.0" type="line"/>
      <point x="348.0" y="-3.0"/>
      <point x="406.0" y="-10.0"/>
      <point x="472.0" y="-10.0" type="curve" smooth="yes"/>
      <point x="576.0" y="-10.0"/>
      <point x="653.0" y="44.0"/>
      <point x="653.0" y="211.0" type="curve"/>
      <point x="653.0" y="318.0"/>
      <point x="628.0" y="353.0"/>
      <point x="562.0" y="368.0" type="curve"/>
      <point x="526.0" y="376.0" type="line"/>
      <point x="561.0" y="603.0" type="line"/>
      <point x="487.0" y="624.0"/>
      <point x="398.0" y="637.0"/>
    </contour>
  </outline>
</glyph>
<glyph name="endash" format="2">
  <advance width="445"/>
  <unicode hex="2013"/>
  <outline>
    <contour>
      <point x="427.0" y="237.0" type="line"/>
      <point x="427.0" y="401.0" type="line"/>
      <point x="18.0" y="401.0" type="line"/>
      <point x="18.0" y="237.0" type="line"/>
    </contour>
  </outline>
</glyph>
<glyph name="emdash" format="2">
  <advance width="725"/>
  <unicode hex="2014"/>
  <outline>
    <contour>
      <point x="707.0" y="237.0" type="line"/>
      <point x="707.0" y="401.0" type="line"/>
      <point x="18.0" y="401.0" type="line"/>
      <point x="18.0" y="237.0" type="line"/>
    </contour>
  </outline>
</glyph>
<glyph name="quoteright" format="1">
  <advance width="207.0"/>
  <unicode hex="2019"/>
  <outline>
    <contour>
      <point x="173.0" y="425.0" type="curve" smooth="yes"/>
      <point x="208.0" y="627.0" type="line"/>
      <point x="18.0" y="627.0" type="line"/>
      <point x="18.0" y="357.0" type="line"/>
      <point x="87.0" y="357.0" type="line" smooth="yes"/>
      <point x="132.0" y="357.0"/>
      <point x="166.0" y="384.0"/>
    </contour>
  </outline>
</glyph>
<glyph name="dagger" format="1">
  <advance width="327.0"/>
  <unicode hex="2020"/>
  <outline>
    <contour>
      <point x="141.0" y="525.0" type="line"/>
      <point x="141.0" y="433.0" type="line"/>
      <point x="316.0" y="423.0" type="line"/>
      <point x="316.0" y="535.0" type="line"/>
    </contour>
    <contour>
      <point x="229.0" y="221.0" type="line"/>
      <point x="216.0" y="478.0" type="line"/>
      <point x="114.0" y="478.0" type="line"/>
      <point x="99.0" y="221.0" type="line"/>
    </contour>
    <contour>
      <point x="186.0" y="434.0" type="line"/>
      <point x="186.0" y="526.0" type="line"/>
      <point x="11.0" y="535.0" type="line"/>
      <point x="11.0" y="423.0" type="line"/>
    </contour>
    <contour>
      <point x="114.0" y="462.0" type="line"/>
      <point x="216.0" y="462.0" type="line"/>
      <point x="225.0" y="627.0" type="line"/>
      <point x="103.0" y="627.0" type="line"/>
    </contour>
  </outline>
</glyph>
<glyph name="daggerdbl" format="2">
  <advance width="339"/>
  <unicode hex="2021"/>
  <outline>
    <contour>
      <point x="147.0" y="525.0" type="line"/>
      <point x="147.0" y="433.0" type="line"/>
      <point x="322.0" y="423.0" type="line"/>
      <point x="322.0" y="535.0" type="line"/>
    </contour>
    <contour>
      <point x="222.0" y="233.0" type="line"/>
      <point x="222.0" y="478.0" type="line"/>
      <point x="120.0" y="478.0" type="line"/>
      <point x="120.0" y="233.0" type="line"/>
    </contour>
    <contour>
      <point x="192.0" y="434.0" type="line"/>
      <point x="192.0" y="526.0" type="line"/>
      <point x="17.0" y="535.0" type="line"/>
      <point x="17.0" y="423.0" type="line"/>
    </contour>
    <contour>
      <point x="120.0" y="462.0" type="line"/>
      <point x="222.0" y="462.0" type="line"/>
      <point x="231.0" y="627.0" type="line"/>
      <point x="109.0" y="627.0" type="line"/>
    </contour>
    <contour>
      <point x="192.0" y="221.0" type="line"/>
      <point x="192.0" y="312.0" type="line"/>
      <point x="17.0" y="322.0" type="line"/>
      <point x="17.0" y="210.0" type="line"/>
    </contour>
    <contour>
      <point x="147.0" y="311.0" type="line"/>
      <point x="147.0" y="219.0" type="line"/>
      <point x="322.0" y="210.0" type="line"/>
      <point x="322.0" y="322.0" type="line"/>
    </contour>
    <contour>
      <point x="220.0" y="283.0" type="line"/>
      <point x="119.0" y="283.0" type="line"/>
      <point x="109.0" y="118.0" type="line"/>
      <point x="231.0" y="118.0" type="line"/>
    </contour>
  </outline>
</glyph>
<glyph name="ellipsis" format="2">
  <advance width="772"/>
  <unicode hex="2026"/>
  <guideline x="244" y="134" angle="0" identifier="CDF1yEEhPF"/>
  <outline>
    <contour>
      <point x="297.0" y="0.0" type="line"/>
      <point x="476.0" y="0.0" type="line"/>
      <point x="476.0" y="195.0" type="line"/>
      <point x="297.0" y="195.0" type="line"/>
    </contour>
    <contour>
      <point x="17.0" y="0.0" type="line"/>
      <point x="197.0" y="0.0" type="line"/>
      <point x="197.0" y="195.0" type="line"/>
      <point x="17.0" y="195.0" type="line"/>
    </contour>
    <contour>
      <point x="576.0" y="0.0" type="line"/>
      <point x="755.0" y="0.0" type="line"/>
      <point x="755.0" y="195.0" type="line"/>
      <point x="576.0" y="195.0" type="line"/>
    </contour>
  </outline>
</glyph>
<glyph name="guilsinglleft" format="2">
  <advance width="326"/>
  <unicode hex="2039"/>
  <outline>
    <contour>
      <point x="318.0" y="494.0" type="line"/>
      <point x="130.0" y="494.0" type="line"/>
      <point x="9.0" y="281.0" type="line"/>
      <point x="163.0" y="221.0" type="line"/>
    </contour>
    <contour>
      <point x="130.0" y="64.0" type="line"/>
      <point x="318.0" y="64.0" type="line"/>
      <point x="167.0" y="344.0" type="line"/>
      <point x="9.0" y="281.0" type="line"/>
    </contour>
  </outline>
</glyph>
<glyph name="fraction" format="2">
  <advance width="220"/>
  <unicode hex="2044"/>
  <outline>
    <contour>
      <point x="30.0" y="0.0" type="line"/>
      <point x="330.0" y="627.0" type="line"/>
      <point x="190.0" y="627.0" type="line"/>
      <point x="-110.0" y="0.0" type="line"/>
    </contour>
  </outline>
</glyph>
<glyph name="uni2070" format="1">
  <advance width="338.0"/>
  <unicode hex="2070"/>
  <outline>
    <contour>
      <point x="169.0" y="522.0" type="curve"/>
      <point x="194.0" y="522.0"/>
      <point x="198.0" y="513.0"/>
      <point x="198.0" y="448.0" type="curve"/>
      <point x="198.0" y="387.0"/>
      <point x="194.0" y="377.0"/>
      <point x="169.0" y="377.0" type="curve"/>
      <point x="144.0" y="377.0"/>
      <point x="140.0" y="387.0"/>
      <point x="140.0" y="448.0" type="curve"/>
      <point x="140.0" y="513.0"/>
      <point x="144.0" y="522.0"/>
    </contour>
    <contour>
      <point x="169.0" y="263.0" type="curve"/>
      <point x="277.0" y="263.0"/>
      <point x="327.0" y="299.0"/>
      <point x="327.0" y="448.0" type="curve"/>
      <point x="327.0" y="594.0"/>
      <point x="292.0" y="632.0"/>
      <point x="169.0" y="632.0" type="curve"/>
      <point x="63.0" y="632.0"/>
      <point x="11.0" y="597.0"/>
      <point x="11.0" y="448.0" type="curve"/>
      <point x="11.0" y="302.0"/>
      <point x="46.0" y="263.0"/>
    </contour>
  </outline>
</glyph>
<glyph name="uni2074" format="2">
  <advance width="316"/>
  <unicode hex="2074"/>
  <outline>
    <contour>
      <point x="309.0" y="339.0" type="line"/>
      <point x="309.0" y="445.0" type="line"/>
      <point x="277.0" y="445.0" type="line"/>
      <point x="277.0" y="564.0" type="line"/>
      <point x="174.0" y="564.0" type="line"/>
      <point x="157.0" y="445.0" type="line"/>
      <point x="136.0" y="445.0" type="line"/>
      <point x="169.0" y="627.0" type="line"/>
      <point x="49.0" y="627.0" type="line"/>
      <point x="9.0" y="445.0" type="line"/>
      <point x="9.0" y="339.0" type="line"/>
      <point x="149.0" y="339.0" type="line"/>
      <point x="149.0" y="270.0" type="line"/>
      <point x="277.0" y="270.0" type="line"/>
      <point x="277.0" y="339.0" type="line"/>
    </contour>
  </outline>
</glyph>
<glyph name="uni2075" format="2">
  <advance width="273"/>
  <unicode hex="2075"/>
  <outline>
    <contour>
      <point x="130.0" y="263.0" type="curve"/>
      <point x="205.0" y="263.0"/>
      <point x="264.0" y="297.0"/>
      <point x="264.0" y="384.0" type="curve" smooth="yes"/>
      <point x="264.0" y="472.0"/>
      <point x="226.0" y="494.0"/>
      <point x="180.0" y="494.0" type="curve" smooth="yes"/>
      <point x="172.0" y="494.0"/>
      <point x="160.0" y="493.0"/>
      <point x="151.0" y="492.0" type="curve"/>
      <point x="151.0" y="517.0" type="line"/>
      <point x="240.0" y="517.0" type="line"/>
      <point x="240.0" y="627.0" type="line"/>
      <point x="24.0" y="627.0" type="line"/>
      <point x="24.0" y="402.0" type="line"/>
      <point x="49.0" y="405.0"/>
      <point x="72.0" y="406.0"/>
      <point x="103.0" y="406.0" type="curve"/>
      <point x="130.0" y="406.0"/>
      <point x="136.0" y="402.0"/>
      <point x="136.0" y="390.0" type="curve"/>
      <point x="136.0" y="379.0"/>
      <point x="130.0" y="373.0"/>
      <point x="106.0" y="373.0" type="curve"/>
      <point x="72.0" y="373.0"/>
      <point x="45.0" y="374.0"/>
      <point x="12.0" y="379.0" type="curve"/>
      <point x="12.0" y="276.0" type="line"/>
      <point x="32.0" y="269.0"/>
      <point x="80.0" y="263.0"/>
    </contour>
  </outline>
</glyph>
<glyph name="uni2077" format="2">
  <advance width="271"/>
  <unicode hex="2077"/>
  <outline>
    <contour>
      <point x="263.0" y="517.0" type="line"/>
      <point x="263.0" y="627.0" type="line"/>
      <point x="13.0" y="627.0" type="line"/>
      <point x="13.0" y="517.0" type="line"/>
      <point x="126.0" y="517.0" type="line"/>
      <point x="0.0" y="270.0" type="line"/>
      <point x="144.0" y="270.0" type="line"/>
    </contour>
  </outline>
</glyph>
<glyph name="uni2079" format="2">
  <advance width="301"/>
  <unicode hex="2079"/>
  <outline>
    <contour>
      <point x="291.0" y="457.0" type="curve"/>
      <point x="291.0" y="589.0"/>
      <point x="252.0" y="633.0"/>
      <point x="142.0" y="633.0" type="curve"/>
      <point x="52.0" y="633.0"/>
      <point x="6.0" y="584.0"/>
      <point x="6.0" y="503.0" type="curve"/>
      <point x="6.0" y="424.0"/>
      <point x="38.0" y="391.0"/>
      <point x="102.0" y="391.0" type="curve"/>
      <point x="144.0" y="391.0"/>
      <point x="175.0" y="411.0"/>
      <point x="181.0" y="414.0" type="curve"/>
      <point x="181.0" y="490.0" type="line"/>
      <point x="170.0" y="484.0"/>
      <point x="158.0" y="479.0"/>
      <point x="145.0" y="479.0" type="curve"/>
      <point x="129.0" y="479.0"/>
      <point x="122.0" y="484.0"/>
      <point x="122.0" y="504.0" type="curve"/>
      <point x="122.0" y="524.0"/>
      <point x="130.0" y="532.0"/>
      <point x="144.0" y="532.0" type="curve"/>
      <point x="167.0" y="532.0"/>
      <point x="168.0" y="523.0"/>
      <point x="168.0" y="468.0" type="curve"/>
      <point x="168.0" y="380.0"/>
      <point x="157.0" y="367.0"/>
      <point x="98.0" y="367.0" type="curve"/>
      <point x="68.0" y="367.0"/>
      <point x="49.0" y="369.0"/>
      <point x="36.0" y="371.0" type="curve"/>
      <point x="36.0" y="270.0" type="line"/>
      <point x="48.0" y="266.0"/>
      <point x="79.0" y="264.0"/>
      <point x="105.0" y="264.0" type="curve"/>
      <point x="228.0" y="264.0"/>
      <point x="291.0" y="324.0"/>
    </contour>
  </outline>
</glyph>
<glyph name="Euro" format="2">
  <advance width="517"/>
  <unicode hex="20AC"/>
  <guideline x="112" y="355" angle="270.0" identifier="Jo27RCYod3"/>
  <outline>
    <contour>
      <point x="11.0" y="421.0" type="line"/>
      <point x="11.0" y="329.0" type="line"/>
      <point x="436.0" y="329.0" type="line"/>
      <point x="436.0" y="421.0" type="line"/>
    </contour>
    <contour>
      <point x="11.0" y="309.0" type="line"/>
      <point x="11.0" y="217.0" type="line"/>
      <point x="436.0" y="217.0" type="line"/>
      <point x="436.0" y="309.0" type="line"/>
    </contour>
    <contour>
      <point x="497.0" y="208.0" type="line"/>
      <point x="459.0" y="198.0"/>
      <point x="416.0" y="192.0"/>
      <point x="366.0" y="192.0" type="curve"/>
      <point x="321.0" y="192.0"/>
      <point x="312.0" y="194.0"/>
      <point x="312.0" y="313.0" type="curve" smooth="yes"/>
      <point x="312.0" y="443.0"/>
      <point x="319.0" y="444.0"/>
      <point x="376.0" y="444.0" type="curve"/>
      <point x="414.0" y="444.0"/>
      <point x="460.0" y="440.0"/>
      <point x="483.0" y="438.0" type="curve"/>
      <point x="483.0" y="628.0" type="line"/>
      <point x="451.0" y="632.0"/>
      <point x="413.0" y="637.0"/>
      <point x="363.0" y="637.0" type="curve"/>
      <point x="170.0" y="637.0"/>
      <point x="78.0" y="550.0"/>
      <point x="78.0" y="313.0" type="curve" smooth="yes"/>
      <point x="78.0" y="63.0"/>
      <point x="149.0" y="-12.0"/>
      <point x="326.0" y="-12.0" type="curve"/>
      <point x="415.0" y="-12.0"/>
      <point x="464.0" y="3.0"/>
      <point x="497.0" y="21.0" type="curve"/>
    </contour>
  </outline>
</glyph>
<glyph name="uni20BA" format="2">
  <advance width="590"/>
  <unicode hex="20BA"/>
  <guideline x="311.0" y="0.0" angle="90.0" name="mid" identifier="hiHmbypWWX"/>
  <outline>
    <contour>
      <point x="362.0" y="274.0" type="line"/>
      <point x="362.0" y="233.0"/>
      <point x="360.0" y="212.0"/>
      <point x="332.0" y="212.0" type="curve" smooth="yes"/>
      <point x="318.0" y="212.0" type="line"/>
      <point x="318.0" y="627.0" type="line"/>
      <point x="91.0" y="627.0" type="line"/>
      <point x="91.0" y="0.0" type="line"/>
      <point x="334.0" y="0.0" type="line" smooth="yes"/>
      <point x="505.0" y="0.0"/>
      <point x="581.0" y="79.0"/>
      <point x="581.0" y="274.0" type="curve"/>
    </contour>
    <contour>
      <point x="21.0" y="427.0" type="line"/>
      <point x="21.0" y="331.0" type="line"/>
      <point x="413.0" y="452.0" type="line"/>
      <point x="413.0" y="548.0" type="line"/>
    </contour>
    <contour>
      <point x="21.0" y="309.0" type="line"/>
      <point x="21.0" y="212.0" type="line"/>
      <point x="413.0" y="334.0" type="line"/>
      <point x="413.0" y="431.0" type="line"/>
    </contour>
  </outline>
</glyph>
<glyph name="uni2120" format="2">
  <advance width="737"/>
  <unicode hex="2120"/>
  <outline>
    <contour>
      <point x="99.0" y="410.0" type="curve" smooth="yes"/>
      <point x="150.0" y="402.0" type="line" smooth="yes"/>
      <point x="161.0" y="400.0"/>
      <point x="167.0" y="399.0"/>
      <point x="167.0" y="392.0" type="curve"/>
      <point x="167.0" y="382.0"/>
      <point x="160.47826086956522" y="379.0"/>
      <point x="142.0" y="379.0" type="curve"/>
      <point x="89.3" y="379.0"/>
      <point x="44.18085135993607" y="386.6693616192179"/>
      <point x="18.0" y="394.0" type="curve"/>
      <point x="18.0" y="280.0" type="line"/>
      <point x="39.947260649110625" y="272.6842464502965"/>
      <point x="87.3" y="267.0"/>
      <point x="144.0" y="267.0" type="curve"/>
      <point x="272.0" y="267.0"/>
      <point x="291.0" y="335.0"/>
      <point x="291.0" y="391.0" type="curve"/>
      <point x="291.0" y="481.0"/>
      <point x="253.0" y="491.0"/>
      <point x="202.0" y="499.0" type="curve" smooth="yes"/>
      <point x="147.0" y="508.0" type="line" smooth="yes"/>
      <point x="141.0" y="509.0"/>
      <point x="135.0" y="511.0"/>
      <point x="135.0" y="517.0" type="curve"/>
      <point x="135.0" y="521.0"/>
      <point x="136.0" y="529.0"/>
      <point x="158.0" y="529.0" type="curve" smooth="yes"/>
      <point x="203.6326530612245" y="529.0"/>
      <point x="239.7580442589687" y="523.2365629982917"/>
      <point x="262.0" y="519.0" type="curve"/>
      <point x="262.0" y="626.0" type="line"/>
      <point x="242.94233850288228" y="631.2937948603105"/>
      <point x="215.22105263157894" y="636.0"/>
      <point x="161.0" y="636.0" type="curve" smooth="yes"/>
      <point x="64.0" y="636.0"/>
      <point x="16.0" y="593.0"/>
      <point x="16.0" y="507.0" type="curve"/>
      <point x="16.0" y="426.0"/>
      <point x="61.0" y="416.0"/>
    </contour>
    <contour>
      <point x="714.0" y="276.0" type="line"/>
      <point x="714.0" y="627.0" type="line"/>
      <point x="567.0" y="627.0" type="line"/>
      <point x="518.0" y="497.0" type="line"/>
      <point x="472.0" y="627.0" type="line"/>
      <point x="318.0" y="627.0" type="line"/>
      <point x="318.0" y="276.0" type="line"/>
      <point x="436.0" y="276.0" type="line"/>
      <point x="436.0" y="426.0" type="line"/>
      <point x="468.0" y="341.0" type="line"/>
      <point x="564.0" y="341.0" type="line"/>
      <point x="596.0" y="426.0" type="line"/>
      <point x="596.0" y="276.0" type="line"/>
    </contour>
  </outline>
</glyph>
<glyph name="trademark" format="2">
  <advance width="761"/>
  <unicode hex="2122"/>
  <outline>
    <contour>
      <point x="308.0" y="512.0" type="line"/>
      <point x="308.0" y="627.0" type="line"/>
      <point x="11.0" y="627.0" type="line"/>
      <point x="11.0" y="512.0" type="line"/>
      <point x="96.0" y="512.0" type="line"/>
      <point x="96.0" y="276.0" type="line"/>
      <point x="223.0" y="276.0" type="line"/>
      <point x="223.0" y="512.0" type="line"/>
    </contour>
    <contour>
      <point x="735.0" y="276.0" type="line"/>
      <point x="735.0" y="627.0" type="line"/>
      <point x="587.0" y="627.0" type="line"/>
      <point x="539.0" y="497.0" type="line"/>
      <point x="492.0" y="627.0" type="line"/>
      <point x="339.0" y="627.0" type="line"/>
      <point x="339.0" y="276.0" type="line"/>
      <point x="457.0" y="276.0" type="line"/>
      <point x="457.0" y="426.0" type="line"/>
      <point x="488.0" y="341.0" type="line"/>
      <point x="585.0" y="341.0" type="line"/>
      <point x="616.0" y="426.0" type="line"/>
      <point x="616.0" y="276.0" type="line"/>
    </contour>
  </outline>
</glyph>
<glyph name="partialdiff" format="2">
  <advance width="539"/>
  <unicode hex="2202"/>
  <outline>
    <contour>
      <point x="311.0" y="446.0" type="curve"/>
      <point x="311.0" y="229.0"/>
      <point x="297.0" y="188.0"/>
      <point x="250.0" y="188.0" type="curve"/>
      <point x="230.0" y="188.0"/>
      <point x="217.0" y="199.0"/>
      <point x="217.0" y="221.0" type="curve" smooth="yes"/>
      <point x="217.0" y="240.0"/>
      <point x="221.0" y="295.0"/>
      <point x="268.0" y="295.0" type="curve"/>
      <point x="299.0" y="295.0"/>
      <point x="321.0" y="285.0"/>
      <point x="340.0" y="275.0" type="curve"/>
      <point x="347.0" y="427.0" type="line"/>
      <point x="313.0" y="447.0"/>
      <point x="280.0" y="454.0"/>
      <point x="224.0" y="454.0" type="curve"/>
      <point x="77.0" y="454.0"/>
      <point x="2.0" y="343.0"/>
      <point x="2.0" y="201.0" type="curve"/>
      <point x="2.0" y="60.0"/>
      <point x="83.0" y="-10.0"/>
      <point x="218.0" y="-10.0" type="curve" smooth="yes"/>
      <point x="488.0" y="-10.0"/>
      <point x="525.0" y="237.0"/>
      <point x="525.0" y="448.0" type="curve"/>
      <point x="525.0" y="597.0"/>
      <point x="449.0" y="674.0"/>
      <point x="280.0" y="674.0" type="curve"/>
      <point x="232.0" y="674.0"/>
      <point x="164.0" y="669.0"/>
      <point x="114.0" y="658.0" type="curve"/>
      <point x="114.0" y="482.0" type="line"/>
      <point x="154.0" y="490.0"/>
      <point x="198.0" y="492.0"/>
      <point x="227.0" y="492.0" type="curve" smooth="yes"/>
      <point x="299.0" y="492.0"/>
      <point x="311.0" y="477.0"/>
    </contour>
  </outline>
</glyph>
<glyph name="product" format="2">
  <advance width="610"/>
  <unicode hex="220F"/>
  <outline>
    <contour>
      <point x="291.0" y="-152.0" type="line"/>
      <point x="291.0" y="454.0" type="line"/>
      <point x="76.0" y="454.0" type="line"/>
      <point x="76.0" y="-152.0" type="line"/>
    </contour>
    <contour>
      <point x="535.0" y="-152.0" type="line"/>
      <point x="535.0" y="454.0" type="line"/>
      <point x="320.0" y="454.0" type="line"/>
      <point x="320.0" y="-152.0" type="line"/>
    </contour>
    <contour>
      <point x="14.0" y="627.0" type="line"/>
      <point x="14.0" y="415.0" type="line"/>
      <point x="596.0" y="415.0" type="line"/>
      <point x="596.0" y="627.0" type="line"/>
    </contour>
  </outline>
</glyph>
<glyph name="summation" format="1">
  <advance width="528.0"/>
  <unicode hex="2211"/>
  <outline>
    <contour>
      <point x="14.0" y="60.0" type="line"/>
      <point x="14.0" y="-152.0" type="line"/>
      <point x="516.0" y="-152.0" type="line"/>
      <point x="516.0" y="60.0" type="line"/>
      <point x="295.0" y="60.0" type="line"/>
      <point x="463.0" y="239.0" type="line"/>
      <point x="322.0" y="415.0" type="line"/>
      <point x="496.0" y="415.0" type="line"/>
      <point x="496.0" y="627.0" type="line"/>
      <point x="39.0" y="627.0" type="line"/>
      <point x="39.0" y="415.0" type="line"/>
      <point x="201.0" y="238.0" type="line"/>
    </contour>
  </outline>
</glyph>
<glyph name="radical" format="1">
  <advance width="663.0"/>
  <unicode hex="221A"/>
  <outline>
    <contour>
      <point x="191.0" y="-152.0" type="line"/>
      <point x="309.0" y="-152.0" type="line"/>
      <point x="309.0" y="63.0" type="line"/>
      <point x="253.0" y="327.0" type="line"/>
      <point x="23.0" y="327.0" type="line"/>
    </contour>
    <contour>
      <point x="446.0" y="-152.0" type="line"/>
      <point x="675.0" y="779.0" type="line"/>
      <point x="438.0" y="779.0" type="line"/>
      <point x="293.0" y="62.0" type="line"/>
      <point x="293.0" y="-152.0" type="line"/>
    </contour>
    <contour>
      <point x="1.0" y="327.0" type="line"/>
      <point x="1.0" y="115.0" type="line"/>
      <point x="228.0" y="115.0" type="line"/>
      <point x="228.0" y="327.0" type="line"/>
    </contour>
  </outline>
</glyph>
<glyph name="infinity" format="2">
  <advance width="931"/>
  <unicode hex="221E"/>
  <outline>
    <contour>
      <point x="680.0" y="82.0" type="curve" smooth="yes"/>
      <point x="829.0" y="82.0"/>
      <point x="918.0" y="190.0"/>
      <point x="918.0" y="317.0" type="curve" smooth="yes"/>
      <point x="918.0" y="445.0"/>
      <point x="831.0" y="552.0"/>
      <point x="680.0" y="552.0" type="curve" smooth="yes"/>
      <point x="617.0" y="552.0"/>
      <point x="558.0" y="528.0"/>
      <point x="515.0" y="484.0" type="curve" smooth="yes"/>
      <point x="466.0" y="432.0" type="line"/>
      <point x="415.0" y="484.0" type="line" smooth="yes"/>
      <point x="371.0" y="528.0"/>
      <point x="312.0" y="552.0"/>
      <point x="250.0" y="552.0" type="curve" smooth="yes"/>
      <point x="101.0" y="552.0"/>
      <point x="13.0" y="445.0"/>
      <point x="13.0" y="317.0" type="curve" smooth="yes"/>
      <point x="13.0" y="190.0"/>
      <point x="100.0" y="82.0"/>
      <point x="250.0" y="82.0" type="curve" smooth="yes"/>
      <point x="312.0" y="82.0"/>
      <point x="371.0" y="107.0"/>
      <point x="415.0" y="152.0" type="curve" smooth="yes"/>
      <point x="466.0" y="203.0" type="line"/>
      <point x="515.0" y="152.0" type="line" smooth="yes"/>
      <point x="558.0" y="106.0"/>
      <point x="617.0" y="82.0"/>
    </contour>
    <contour>
      <point x="578.0" y="317.0" type="line"/>
      <point x="629.0" y="369.0" type="line" smooth="yes"/>
      <point x="643.0" y="383.0"/>
      <point x="661.0" y="391.0"/>
      <point x="680.0" y="391.0" type="curve" smooth="yes"/>
      <point x="719.0" y="391.0"/>
      <point x="753.0" y="363.0"/>
      <point x="753.0" y="317.0" type="curve" smooth="yes"/>
      <point x="753.0" y="273.0"/>
      <point x="719.0" y="245.0"/>
      <point x="680.0" y="245.0" type="curve" smooth="yes"/>
      <point x="661.0" y="245.0"/>
      <point x="643.0" y="252.0"/>
      <point x="629.0" y="266.0" type="curve" smooth="yes"/>
    </contour>
    <contour>
      <point x="300.0" y="369.0" type="curve" smooth="yes"/>
      <point x="351.0" y="317.0" type="line"/>
      <point x="300.0" y="266.0" type="line" smooth="yes"/>
      <point x="288.0" y="253.0"/>
      <point x="270.0" y="245.0"/>
      <point x="250.0" y="245.0" type="curve" smooth="yes"/>
      <point x="212.0" y="245.0"/>
      <point x="178.0" y="273.0"/>
      <point x="178.0" y="317.0" type="curve" smooth="yes"/>
      <point x="178.0" y="363.0"/>
      <point x="212.0" y="391.0"/>
      <point x="250.0" y="391.0" type="curve" smooth="yes"/>
      <point x="270.0" y="391.0"/>
      <point x="287.0" y="382.0"/>
    </contour>
  </outline>
</glyph>
<glyph name="integral" format="2">
  <advance width="460"/>
  <unicode hex="222B"/>
  <outline>
    <contour>
      <point x="303.0" y="56.0" type="curve" smooth="yes"/>
      <point x="382.0" y="546.0" type="line" smooth="yes"/>
      <point x="384.0" y="558.0"/>
      <point x="392.0" y="567.0"/>
      <point x="407.0" y="567.0" type="curve" smooth="yes"/>
      <point x="459.0" y="567.0" type="line"/>
      <point x="459.0" y="779.0" type="line"/>
      <point x="388.0" y="779.0" type="line" smooth="yes"/>
      <point x="238.0" y="779.0"/>
      <point x="180.0" y="717.0"/>
      <point x="156.0" y="571.0" type="curve" smooth="yes"/>
      <point x="77.0" y="83.0" type="line" smooth="yes"/>
      <point x="75.0" y="71.0"/>
      <point x="67.0" y="60.0"/>
      <point x="52.0" y="60.0" type="curve" smooth="yes"/>
      <point x="1.0" y="60.0" type="line"/>
      <point x="1.0" y="-152.0" type="line"/>
      <point x="72.0" y="-152.0" type="line" smooth="yes"/>
      <point x="222.0" y="-152.0"/>
      <point x="281.0" y="-91.0"/>
    </contour>
  </outline>
</glyph>
<glyph name="notequal" format="2">
  <advance width="500"/>
  <unicode hex="2260"/>
  <outline>
    <contour>
      <point x="214.0" y="57.0" type="line"/>
      <point x="374.0" y="567.0" type="line"/>
      <point x="279.0" y="567.0" type="line"/>
      <point x="119.0" y="57.0" type="line"/>
    </contour>
    <component base="minus" yOffset="-115"/>
    <component base="minus" yOffset="95"/>
  </outline>
</glyph>
<glyph name="lessequal" format="2">
  <advance width="500"/>
  <unicode hex="2264"/>
  <outline>
    <contour>
      <point x="463.0" y="468.0" type="line"/>
      <point x="463.0" y="651.0" type="line"/>
      <point x="37.0" y="378.0" type="line"/>
      <point x="124.0" y="278.0" type="line"/>
    </contour>
    <contour>
      <point x="463.0" y="227.0" type="line"/>
      <point x="463.0" y="378.0" type="line"/>
      <point x="37.0" y="378.0" type="line"/>
      <point x="37.0" y="227.0" type="line"/>
    </contour>
    <component base="minus" yOffset="-222"/>
  </outline>
</glyph>
<glyph name="lozenge" format="2">
  <advance width="691"/>
  <unicode hex="25CA"/>
  <outline>
    <contour>
      <point x="350.0" y="97.0" type="line"/>
      <point x="246.0" y="325.0" type="line"/>
      <point x="340.0" y="530.0" type="line"/>
      <point x="445.0" y="307.0" type="line"/>
    </contour>
    <contour>
      <point x="240.0" y="-152.0" type="line"/>
      <point x="450.0" y="-152.0" type="line"/>
      <point x="686.0" y="317.0" type="line"/>
      <point x="451.0" y="770.0" type="line"/>
      <point x="240.0" y="770.0" type="line"/>
      <point x="5.0" y="317.0" type="line"/>
    </contour>
  </outline>
</glyph>
<glyph name=".notdef" format="2">
  <advance width="382"/>
  <outline>
    <contour>
      <point x="50" y="0" type="line"/>
      <point x="50" y="627" type="line"/>
      <point x="332" y="627" type="line"/>
      <point x="332" y="0" type="line"/>
    </contour>
    <contour>
      <point x="170" y="120" type="line"/>
      <point x="212" y="120" type="line"/>
      <point x="212" y="507" type="line"/>
      <point x="170" y="507" type="line"/>
    </contour>
  </outline>
</glyph>
<glyph name="acute.uc" format="2">
  <advance width="431"/>
  <guideline x="130" y="559" angle="90.0" name="mid" identifier="tdKmxQqQY4"/>
  <anchor x="171" y="530" name="_top"/>
  <outline>
    <contour>
      <point x="379.0" y="667.0" type="line"/>
      <point x="156.0" y="667.0" type="line"/>
      <point x="50.0" y="535.0" type="line"/>
      <point x="216.0" y="535.0" type="line"/>
    </contour>
  </outline>
</glyph>
<glyph name="breve.uc" format="2">
  <advance width="390"/>
  <anchor x="196" y="530" name="_top"/>
  <outline>
    <contour>
      <point x="340.0" y="667.0" type="curve"/>
      <point x="220.0" y="667.0" type="line"/>
      <point x="220.0" y="641.0"/>
      <point x="211.0" y="634.0"/>
      <point x="196.0" y="634.0" type="curve" smooth="yes"/>
      <point x="181.0" y="634.0"/>
      <point x="171.0" y="642.0"/>
      <point x="171.0" y="667.0" type="curve"/>
      <point x="50.0" y="667.0" type="line"/>
      <point x="50.0" y="577.0"/>
      <point x="111.0" y="528.0"/>
      <point x="196.0" y="528.0" type="curve" smooth="yes"/>
      <point x="279.0" y="528.0"/>
      <point x="340.0" y="578.0"/>
    </contour>
  </outline>
</glyph>
<glyph name="caron.alt" format="2">
  <advance width="44"/>
  <anchor x="42" y="665" name="_caronalt"/>
  <outline>
    <contour>
      <point x="196.0" y="523.0" type="curve" smooth="yes"/>
      <point x="216.0" y="665.0" type="line"/>
      <point x="42.0" y="665.0" type="line"/>
      <point x="42.0" y="454.0" type="line"/>
      <point x="110.0" y="454.0" type="line" smooth="yes"/>
      <point x="155.0" y="454.0"/>
      <point x="190.0" y="481.0"/>
    </contour>
  </outline>
</glyph>
<glyph name="circumflex.uc" format="2">
  <advance width="490"/>
  <guideline x="186" y="566" angle="90.0" identifier="10UlYZtbWH"/>
  <anchor x="245" y="530" name="_top"/>
  <outline>
    <contour>
      <point x="284.0" y="535.0" type="line"/>
      <point x="440.0" y="535.0" type="line"/>
      <point x="339.0" y="667.0" type="line"/>
      <point x="151.0" y="667.0" type="line"/>
      <point x="50.0" y="535.0" type="line"/>
      <point x="206.0" y="535.0" type="line"/>
      <point x="245.0" y="584.0" type="line"/>
    </contour>
  </outline>
</glyph>
<glyph name="dieresis.uc" format="2">
  <advance width="470"/>
  <guideline x="208.0" y="0.0" angle="90.0" name="mid" identifier="YiibEmiZH9"/>
  <anchor x="236" y="530" name="_top"/>
  <outline>
    <contour>
      <point x="420.0" y="535.0" type="line"/>
      <point x="420.0" y="677.0" type="line"/>
      <point x="246.0" y="677.0" type="line"/>
      <point x="246.0" y="535.0" type="line"/>
    </contour>
    <contour>
      <point x="223.0" y="535.0" type="line"/>
      <point x="223.0" y="677.0" type="line"/>
      <point x="50.0" y="677.0" type="line"/>
      <point x="50.0" y="535.0" type="line"/>
    </contour>
  </outline>
</glyph>
<glyph name="dotaccent.uc" format="2">
  <advance width="322"/>
  <guideline x="119.0" y="0.0" angle="90.0" name="mid" identifier="VF5mhA1cRu"/>
  <anchor x="164" y="530" name="_top"/>
  <outline>
    <contour>
      <point x="80.0" y="535.0" type="line"/>
      <point x="242.0" y="535.0" type="line"/>
      <point x="242.0" y="677.0" type="line"/>
      <point x="80.0" y="677.0" type="line"/>
    </contour>
  </outline>
</glyph>
<glyph name="eight.tf" format="2">
  <advance width="500"/>
  <guideline x="255" y="318" angle="0" name="mid" identifier="yMHqCKrfbn"/>
  <outline>
    <contour>
      <point x="250.0" y="-12.0" type="curve"/>
      <point x="412.0" y="-12.0"/>
      <point x="480.0" y="43.0"/>
      <point x="480.0" y="174.0" type="curve"/>
      <point x="480.0" y="241.0"/>
      <point x="457.0" y="300.0"/>
      <point x="398.0" y="327.0" type="curve"/>
      <point x="461.0" y="359.0"/>
      <point x="471.0" y="412.0"/>
      <point x="471.0" y="465.0" type="curve"/>
      <point x="471.0" y="595.0"/>
      <point x="414.0" y="638.0"/>
      <point x="250.0" y="638.0" type="curve"/>
      <point x="94.0" y="638.0"/>
      <point x="28.0" y="589.0"/>
      <point x="28.0" y="468.0" type="curve"/>
      <point x="27.0" y="408.0"/>
      <point x="41.0" y="358.0"/>
      <point x="104.0" y="327.0" type="curve"/>
      <point x="45.0" y="301.0"/>
      <point x="19.0" y="245.0"/>
      <point x="19.0" y="179.0" type="curve"/>
      <point x="19.0" y="37.0"/>
      <point x="89.0" y="-12.0"/>
    </contour>
    <contour>
      <point x="250.0" y="463.0" type="curve"/>
      <point x="273.0" y="463.0"/>
      <point x="284.0" y="453.0"/>
      <point x="284.0" y="431.0" type="curve"/>
      <point x="284.0" y="411.0"/>
      <point x="273.0" y="401.0"/>
      <point x="250.0" y="401.0" type="curve"/>
      <point x="227.0" y="401.0"/>
      <point x="215.0" y="411.0"/>
      <point x="215.0" y="432.0" type="curve"/>
      <point x="215.0" y="454.0"/>
      <point x="227.0" y="463.0"/>
    </contour>
    <contour>
      <point x="250.0" y="234.0" type="curve"/>
      <point x="274.0" y="234.0"/>
      <point x="285.0" y="224.0"/>
      <point x="285.0" y="202.0" type="curve"/>
      <point x="285.0" y="180.0"/>
      <point x="274.0" y="170.0"/>
      <point x="250.0" y="170.0" type="curve"/>
      <point x="226.0" y="170.0"/>
      <point x="215.0" y="180.0"/>
      <point x="215.0" y="202.0" type="curve"/>
      <point x="215.0" y="224.0"/>
      <point x="226.0" y="234.0"/>
    </contour>
  </outline>
</glyph>
<glyph name="f.alt" format="2">
  <advance width="353"/>
  <outline>
    <contour>
      <point x="357.0" y="665.0" type="line"/>
      <point x="344.00628670224" y="667.598742659552"/>
      <point x="300.2093023255814" y="675.0"/>
      <point x="246.0" y="675.0" type="curve"/>
      <point x="135.0" y="675.0"/>
      <point x="55.0" y="620.0"/>
      <point x="55.0" y="504.0" type="curve"/>
      <point x="55.0" y="0.0" type="line"/>
      <point x="275.0" y="0.0" type="line"/>
      <point x="275.0" y="498.0" type="line" smooth="yes"/>
      <point x="275.0" y="522.0"/>
      <point x="282.5" y="528.0"/>
      <point x="310.0" y="528.0" type="curve"/>
      <point x="324.1" y="528.0"/>
      <point x="342.0" y="526.0"/>
      <point x="357.0" y="524.0" type="curve"/>
    </contour>
    <contour>
      <point x="13.0" y="312.0" type="line"/>
      <point x="342.0" y="312.0" type="line"/>
      <point x="342.0" y="494.0" type="line"/>
      <point x="13.0" y="494.0" type="line"/>
    </contour>
  </outline>
</glyph>
<glyph name="five.osf" format="2">
  <advance width="454"/>
  <outline>
    <contour>
      <point x="211.0" y="-162.0" type="curve"/>
      <point x="339.0" y="-162.0"/>
      <point x="441.0" y="-103.26818181818183"/>
      <point x="441.0" y="57.0" type="curve" smooth="yes"/>
      <point x="441.0" y="215.0"/>
      <point x="380.0" y="255.0"/>
      <point x="303.0" y="255.0" type="curve" smooth="yes"/>
      <point x="291.0" y="255.0"/>
      <point x="277.0" y="254.0"/>
      <point x="263.0" y="252.0" type="curve"/>
      <point x="263.0" y="289.0" type="line"/>
      <point x="401.0" y="289.0" type="line"/>
      <point x="401.0" y="494.0" type="line"/>
      <point x="36.0" y="494.0" type="line"/>
      <point x="36.0" y="88.0" type="line"/>
      <point x="78.0" y="94.0"/>
      <point x="109.0" y="95.0"/>
      <point x="162.0" y="95.0" type="curve"/>
      <point x="203.0" y="95.0"/>
      <point x="212.0" y="86.0"/>
      <point x="212.0" y="68.0" type="curve"/>
      <point x="212.0" y="50.0"/>
      <point x="206.0" y="41.0"/>
      <point x="169.0" y="41.0" type="curve"/>
      <point x="113.0" y="41.0"/>
      <point x="75.0" y="41.0"/>
      <point x="18.0" y="51.0" type="curve"/>
      <point x="18.0" y="-141.0" type="line"/>
      <point x="50.82835253141721" y="-152.93758273869716"/>
      <point x="128.0" y="-162.0"/>
    </contour>
  </outline>
</glyph>
<glyph name="five.tf" format="2">
  <advance width="500"/>
  <outline>
    <contour>
      <point x="230.0" y="-12.0" type="curve"/>
      <point x="368.0" y="-12.0"/>
      <point x="475.0" y="46.0"/>
      <point x="475.0" y="203.0" type="curve" smooth="yes"/>
      <point x="475.0" y="357.0"/>
      <point x="411.0" y="396.0"/>
      <point x="329.0" y="396.0" type="curve" smooth="yes"/>
      <point x="318.0" y="396.0"/>
      <point x="299.0" y="395.0"/>
      <point x="286.0" y="393.0" type="curve"/>
      <point x="286.0" y="422.0" type="line"/>
      <point x="435.0" y="422.0" type="line"/>
      <point x="435.0" y="627.0" type="line"/>
      <point x="49.0" y="627.0" type="line"/>
      <point x="49.0" y="229.0" type="line"/>
      <point x="91.0" y="235.0"/>
      <point x="137.0" y="236.0"/>
      <point x="190.0" y="236.0" type="curve"/>
      <point x="229.0" y="236.0"/>
      <point x="238.0" y="229.0"/>
      <point x="238.0" y="214.0" type="curve"/>
      <point x="238.0" y="199.0"/>
      <point x="230.0" y="192.0"/>
      <point x="193.0" y="192.0" type="curve"/>
      <point x="139.0" y="192.0"/>
      <point x="88.0" y="192.0"/>
      <point x="31.0" y="202.0" type="curve"/>
      <point x="31.0" y="10.0" type="line"/>
      <point x="63.0" y="-2.0"/>
      <point x="149.0" y="-12.0"/>
    </contour>
  </outline>
</glyph>
<glyph name="four.osf" format="2">
  <advance width="535"/>
  <guideline x="118" y="219" angle="353.741" identifier="jaAOn6vlBY"/>
  <outline>
    <contour>
      <point x="525.0" y="-29.0" type="line"/>
      <point x="525.0" y="169.0" type="line"/>
      <point x="475.0" y="169.0" type="line"/>
      <point x="475.0" y="381.0" type="line"/>
      <point x="306.0" y="381.0" type="line"/>
      <point x="272.0" y="169.0" type="line"/>
      <point x="244.0" y="168.0" type="line"/>
      <point x="298.0" y="493.0" type="line"/>
      <point x="84.0" y="494.0" type="line"/>
      <point x="18.0" y="169.0" type="line"/>
      <point x="18.0" y="-29.0" type="line"/>
      <point x="248.0" y="-29.0" type="line"/>
      <point x="248.0" y="-152.0" type="line"/>
      <point x="475.0" y="-152.0" type="line"/>
      <point x="475.0" y="-29.0" type="line"/>
    </contour>
  </outline>
</glyph>
<glyph name="four.tf" format="1">
  <advance width="500.0"/>
  <outline>
    <contour>
      <point x="493.0" y="117.0" type="line"/>
      <point x="493.0" y="315.0" type="line"/>
      <point x="450.0" y="315.0" type="line"/>
      <point x="450.0" y="518.0" type="line"/>
      <point x="287.0" y="518.0" type="line"/>
      <point x="256.0" y="315.0" type="line"/>
      <point x="229.0" y="315.0" type="line"/>
      <point x="279.0" y="628.0" type="line"/>
      <point x="72.0" y="628.0" type="line"/>
      <point x="11.0" y="315.0" type="line"/>
      <point x="11.0" y="117.0" type="line"/>
      <point x="223.0" y="117.0" type="line"/>
      <point x="223.0" y="0.0" type="line"/>
      <point x="450.0" y="0.0" type="line"/>
      <point x="450.0" y="117.0" type="line"/>
    </contour>
  </outline>
</glyph>
<glyph name="grave.uc" format="2">
  <advance width="431"/>
  <guideline x="130" y="705" angle="90.0" name="mid" identifier="vcEzfu5w9d"/>
  <anchor x="260" y="530" name="_top"/>
  <outline>
    <contour>
      <point x="52.0" y="667.0" type="line"/>
      <point x="215.0" y="535.0" type="line"/>
      <point x="381.0" y="535.0" type="line"/>
      <point x="275.0" y="667.0" type="line"/>
    </contour>
  </outline>
</glyph>
<glyph name="hungarumlaut.uc" format="2">
  <advance width="601"/>
  <guideline x="247.0" y="0.0" angle="90.0" name="mid" identifier="PZIrNt9M1f"/>
  <anchor x="268" y="530" name="_top"/>
  <outline>
    <contour>
      <point x="340.0" y="667.0" type="line"/>
      <point x="150.0" y="667.0" type="line"/>
      <point x="44.0" y="535.0" type="line"/>
      <point x="193.0" y="535.0" type="line"/>
    </contour>
    <contour>
      <point x="546.0" y="667.0" type="line"/>
      <point x="355.0" y="667.0" type="line"/>
      <point x="250.0" y="535.0" type="line"/>
      <point x="399.0" y="535.0" type="line"/>
    </contour>
  </outline>
</glyph>
<glyph name="macron.uc" format="2">
  <advance width="363"/>
  <guideline x="177.0" y="0.0" angle="90.0" name="mid" identifier="mrqsaNZ2Pv"/>
  <anchor x="182" y="530" name="_top"/>
  <outline>
    <contour>
      <point x="315.0" y="540.0" type="line"/>
      <point x="315.0" y="665.0" type="line"/>
      <point x="52.0" y="665.0" type="line"/>
      <point x="52.0" y="540.0" type="line"/>
    </contour>
  </outline>
</glyph>
<glyph name="nine.osf" format="2">
  <advance width="509"/>
  <outline>
    <contour>
      <point x="494.0" y="188.0" type="curve"/>
      <point x="494.0" y="425.0"/>
      <point x="425.0" y="504.0"/>
      <point x="239.0" y="504.0" type="curve"/>
      <point x="87.0" y="504.0"/>
      <point x="10.0" y="416.2532188841202"/>
      <point x="10.0" y="269.0" type="curve"/>
      <point x="10.0" y="128.0"/>
      <point x="63.0" y="70.0"/>
      <point x="169.0" y="70.0" type="curve"/>
      <point x="241.0" y="70.0"/>
      <point x="294.0" y="107.0"/>
      <point x="300.0" y="110.0" type="curve"/>
      <point x="300.0" y="249.0" type="line"/>
      <point x="279.0" y="238.0"/>
      <point x="261.0" y="230.0"/>
      <point x="246.0" y="230.0" type="curve"/>
      <point x="226.0" y="230.0"/>
      <point x="215.0" y="239.0"/>
      <point x="215.0" y="270.0" type="curve"/>
      <point x="215.0" y="304.4347826086956"/>
      <point x="226.0" y="318.0"/>
      <point x="243.0" y="318.0" type="curve"/>
      <point x="275.0" y="318.0"/>
      <point x="274.0" y="304.0"/>
      <point x="274.0" y="213.0" type="curve"/>
      <point x="274.0" y="47.0"/>
      <point x="259.0" y="27.0"/>
      <point x="162.0" y="27.0" type="curve"/>
      <point x="111.0" y="27.0"/>
      <point x="80.0" y="32.0"/>
      <point x="59.0" y="35.0" type="curve"/>
      <point x="59.0" y="-153.0" type="line"/>
      <point x="79.0" y="-160.0"/>
      <point x="132.0" y="-164.0"/>
      <point x="177.0" y="-164.0" type="curve"/>
      <point x="384.0" y="-164.0"/>
      <point x="494.0" y="-54.25882352941176"/>
    </contour>
  </outline>
</glyph>
